<?xml version="1.0" standalone="no"?>
<!DOCTYPE svg PUBLIC "-//W3C//DTD SVG 1.1//EN" "http://www.w3.org/Graphics/SVG/1.1/DTD/svg11.dtd">
<svg xmlns="http://www.w3.org/2000/svg" version="1.1" width="141px" height="31.5px" viewBox="0 -1 141 31.5" style="top:-1px">
  <desc>고속도로 주행 보조 2</desc>
  <defs/>
  <g id="Polygon627827">
    <path d="M 9.5 8.6 L 2.5 8.6 L 2.5 7.1 L 11.3 7.1 C 11.3 7.1 11.34 9.27 11.3 9.3 C 11.3 11.1 11.1 13 10.6 14.8 C 10.6 14.8 8.8 14.4 8.8 14.4 C 9.3 12.9 9.5 11.1 9.5 9.2 C 9.51 9.18 9.5 8.6 9.5 8.6 Z M 6.9 11.8 L 6.9 16.9 L 13.4 16.9 L 13.4 18.4 L 0.5 18.4 L 0.5 16.9 L 5 16.9 L 5 11.8 L 6.9 11.8 Z M 20.5 9 C 20 9.6 19.3 10.1 18.5 10.6 C 17.7 11 16.8 11.4 15.9 11.7 C 15.9 11.7 15.3 10.3 15.3 10.3 C 16 10.1 16.7 9.8 17.4 9.4 C 18 9.1 18.6 8.7 19 8.3 C 19.4 7.9 19.6 7.5 19.6 7.1 C 19.56 7.14 19.6 6.1 19.6 6.1 L 21.4 6.1 C 21.4 6.1 21.39 7.14 21.4 7.1 C 21.4 7.5 21.6 7.8 22 8.2 C 22.3 8.6 22.9 8.9 23.5 9.3 C 24.2 9.6 24.9 9.9 25.7 10.1 C 25.7 10.1 25.1 11.5 25.1 11.5 C 24.1 11.2 23.2 10.8 22.4 10.4 C 21.6 10 21 9.5 20.5 9 C 20.5 9 20.5 9 20.5 9 Z M 21.4 10.9 L 21.4 12.6 L 26.9 12.6 L 26.9 14.1 L 14 14.1 L 14 12.6 L 19.6 12.6 L 19.6 10.9 L 21.4 10.9 Z M 22.9 16.8 L 15.7 16.8 L 15.7 15.3 L 24.7 15.3 L 24.7 19.9 L 22.9 19.9 L 22.9 16.8 Z M 31.3 11.8 L 38.8 11.8 L 38.8 13.3 L 29.5 13.3 L 29.5 6.9 L 38.4 6.9 L 38.4 8.4 L 31.3 8.4 L 31.3 11.8 Z M 34.9 14 L 34.9 16.9 L 40.4 16.9 L 40.4 18.4 L 27.5 18.4 L 27.5 16.9 L 33.1 16.9 L 33.1 14 L 34.9 14 Z M 48.4 14.4 L 48.4 16.9 L 53.9 16.9 L 53.9 18.4 L 41 18.4 L 41 16.9 L 46.6 16.9 L 46.6 14.4 L 43.1 14.4 L 43.1 9.8 L 50 9.8 L 50 8.3 L 43.1 8.3 L 43.1 6.8 L 51.9 6.8 L 51.9 11.3 L 44.9 11.3 L 44.9 13 L 52.3 13 L 52.3 14.4 L 48.4 14.4 Z M 59.6 11.2 C 60.3 11 61 10.7 61.7 10.4 C 62.3 10 62.8 9.7 63.2 9.3 C 63.6 8.9 63.8 8.5 63.8 8.2 C 63.79 8.19 60.4 8.2 60.4 8.2 L 60.4 6.7 L 69 6.7 L 69 8.2 C 69 8.2 65.65 8.19 65.7 8.2 C 65.7 8.5 65.8 8.9 66.2 9.2 C 66.6 9.6 67.1 9.9 67.7 10.3 C 68.4 10.6 69.1 10.8 69.9 11 C 69.9 11 69.4 12.4 69.4 12.4 C 68.4 12.2 67.5 11.9 66.7 11.5 C 65.9 11.1 65.3 10.6 64.7 10.1 C 64.2 10.6 63.5 11.1 62.7 11.6 C 61.9 12 61.1 12.3 60.1 12.6 C 60.1 12.6 59.6 11.2 59.6 11.2 Z M 58.3 13.4 L 71.2 13.4 L 71.2 14.9 L 65.6 14.9 L 65.6 19.6 L 63.8 19.6 L 63.8 14.9 L 58.3 14.9 L 58.3 13.4 Z M 82.3 11.5 L 81 11.5 L 81 14.5 L 79.2 14.5 L 79.2 6 L 81 6 L 81 10.1 L 82.3 10.1 L 82.3 5.8 L 84 5.8 L 84 15.2 L 82.3 15.2 L 82.3 11.5 Z M 75.6 7.9 C 74.6 7.9 73.8 7.8 73.2 7.6 C 73.2 7.6 73.2 6.2 73.2 6.2 C 73.8 6.4 74.7 6.5 75.6 6.5 C 75.63 6.54 77.5 6.5 77.5 6.5 L 77.5 7.9 C 77.5 7.9 75.63 7.93 75.6 7.9 Z M 72 8.4 L 78.7 8.4 L 78.7 9.8 L 72 9.8 L 72 8.4 Z M 78.1 12.6 C 78.1 13 78 13.4 77.8 13.7 C 77.5 14.1 77.2 14.3 76.8 14.5 C 76.3 14.7 75.9 14.8 75.4 14.8 C 74.8 14.8 74.4 14.7 74 14.5 C 73.5 14.3 73.2 14.1 73 13.7 C 72.7 13.4 72.6 13 72.6 12.6 C 72.6 12.6 72.6 12.5 72.6 12.5 C 72.6 12 72.7 11.6 73 11.3 C 73.2 11 73.5 10.7 74 10.5 C 74.4 10.3 74.8 10.2 75.4 10.2 C 75.9 10.2 76.3 10.3 76.8 10.5 C 77.2 10.7 77.5 11 77.8 11.3 C 78 11.6 78.1 12 78.1 12.5 C 78.1 12.5 78.1 12.6 78.1 12.6 Z M 74.3 12.5 C 74.3 12.8 74.4 13.1 74.6 13.2 C 74.8 13.4 75 13.5 75.4 13.5 C 75.7 13.5 75.9 13.4 76.1 13.2 C 76.4 13.1 76.5 12.8 76.5 12.5 C 76.5 12.5 76.5 12.5 76.5 12.5 C 76.5 12.2 76.4 12 76.1 11.8 C 75.9 11.6 75.7 11.5 75.4 11.5 C 75 11.5 74.8 11.6 74.6 11.8 C 74.4 12 74.3 12.2 74.3 12.5 C 74.3 12.5 74.3 12.5 74.3 12.5 Z M 79.6 15.1 C 81.1 15.1 82.2 15.4 83 15.8 C 83.8 16.2 84.2 16.8 84.2 17.5 C 84.2 17.5 84.2 17.6 84.2 17.6 C 84.2 18.4 83.8 19 83 19.4 C 82.2 19.8 81.1 20 79.6 20 C 78.2 20 77 19.8 76.3 19.4 C 75.5 19 75.1 18.4 75.1 17.6 C 75.1 17.6 75.1 17.5 75.1 17.5 C 75.1 16.8 75.5 16.2 76.3 15.8 C 77 15.4 78.2 15.1 79.6 15.1 C 79.6 15.1 79.6 15.1 79.6 15.1 Z M 82.3 17.5 C 82.3 17.2 82.1 17 81.7 16.8 C 81.2 16.6 80.5 16.6 79.6 16.6 C 78.7 16.6 78 16.6 77.6 16.8 C 77.1 17 76.9 17.2 76.9 17.5 C 76.9 17.5 76.9 17.6 76.9 17.6 C 76.9 17.9 77.1 18.1 77.6 18.3 C 78 18.5 78.7 18.6 79.6 18.6 C 80.5 18.6 81.2 18.5 81.7 18.3 C 82.1 18.1 82.3 17.9 82.3 17.6 C 82.3 17.6 82.3 17.5 82.3 17.5 Z M 98.1 6.6 L 99.9 6.6 L 99.9 13.6 L 91.1 13.6 L 91.1 6.6 L 92.9 6.6 L 92.9 8.8 L 98.1 8.8 L 98.1 6.6 Z M 92.9 10.2 L 92.9 12.1 L 98.1 12.1 L 98.1 10.2 L 92.9 10.2 Z M 96.4 14.2 L 96.4 16.9 L 101.9 16.9 L 101.9 18.4 L 89 18.4 L 89 16.9 L 94.6 16.9 L 94.6 14.2 L 96.4 14.2 Z M 103.7 12.7 C 104.5 12.4 105.2 12 105.9 11.6 C 106.5 11.2 107.1 10.7 107.4 10.2 C 107.8 9.8 108 9.3 108 8.9 C 108.03 8.94 108 8.4 108 8.4 L 104.7 8.4 L 104.7 6.9 L 113.3 6.9 L 113.3 8.4 L 109.9 8.4 C 109.9 8.4 109.89 8.94 109.9 8.9 C 109.9 9.3 110.1 9.8 110.5 10.2 C 110.9 10.6 111.4 11.1 112 11.5 C 112.7 11.9 113.4 12.2 114.3 12.5 C 114.3 12.5 113.7 13.9 113.7 13.9 C 112.7 13.6 111.8 13.2 111 12.7 C 110.2 12.2 109.5 11.6 109 11 C 108.5 11.6 107.8 12.2 107 12.7 C 106.2 13.3 105.3 13.8 104.3 14.1 C 104.3 14.1 103.7 12.7 103.7 12.7 Z M 109.9 13.6 L 109.9 16.9 L 115.4 16.9 L 115.4 18.4 L 102.5 18.4 L 102.5 16.9 L 108.1 16.9 L 108.1 13.6 L 109.9 13.6 Z M 120.2 18.1 L 120.2 16.7 C 120.2 16.7 123.88 12.97 123.9 13 C 124.4 12.5 124.8 12 125 11.6 C 125.2 11.2 125.3 10.8 125.3 10.3 C 125.3 9.7 125.1 9.3 124.8 8.9 C 124.4 8.6 124 8.4 123.4 8.4 C 122.8 8.4 122.3 8.5 121.8 8.8 C 121.4 9.1 121 9.5 120.6 10 C 120.6 10 120.6 7.8 120.6 7.8 C 121 7.5 121.4 7.2 121.9 7 C 122.4 6.8 123 6.7 123.6 6.7 C 124.4 6.7 125.1 6.9 125.7 7.2 C 126.2 7.5 126.7 7.9 127 8.4 C 127.3 9 127.4 9.6 127.4 10.2 C 127.4 11 127.2 11.7 126.9 12.3 C 126.5 12.9 126 13.5 125.3 14.2 C 125.28 14.25 123.1 16.5 123.1 16.5 L 127.7 16.5 L 127.7 18.1 L 120.2 18.1 Z " stroke="none" fill="#fff"/>
  </g>
</svg>