<?xml version="1.0" standalone="no"?>
<!DOCTYPE svg PUBLIC "-//W3C//DTD SVG 1.1//EN" "http://www.w3.org/Graphics/SVG/1.1/DTD/svg11.dtd">
<svg xmlns="http://www.w3.org/2000/svg" version="1.1" width="714px" height="107.2px" viewBox="0 -10 714 107.2" style="top:-10px">
  <desc>Kia How to 알아두면 편리한 내차 사용설명서, Kia How to. Seltos의 다양한 기능을 영상으로 쉽게 알아보세요.</desc>
  <defs/>
  <g id="Polygon627160">
    <path d="M 1.3 84 C 1.7 84.7 2.2 85.2 2.9 85.6 C 3.6 86 4.3 86.2 5.1 86.2 C 5.8 86.2 6.3 86.1 6.8 85.8 C 7.2 85.6 7.6 85.3 7.8 84.9 C 8 84.5 8.2 84.1 8.2 83.6 C 8.2 83 8 82.5 7.6 82 C 7.3 81.6 6.7 81.2 6.1 80.8 C 6.1 80.8 4.1 79.8 4.1 79.8 C 3.4 79.4 2.7 78.9 2.2 78.3 C 1.8 77.8 1.5 77.1 1.5 76.3 C 1.5 75.7 1.7 75.1 2 74.6 C 2.3 74.1 2.8 73.7 3.4 73.4 C 4 73.1 4.6 73 5.4 73 C 6 73 6.7 73.2 7.4 73.5 C 8 73.8 8.6 74.1 9 74.6 C 9 74.6 9 76.2 9 76.2 C 8.6 75.6 8 75.1 7.3 74.7 C 6.7 74.3 6 74.1 5.4 74.1 C 4.6 74.1 4 74.3 3.5 74.7 C 3.1 75.1 2.8 75.6 2.8 76.3 C 2.8 76.8 3 77.2 3.3 77.6 C 3.7 78 4.2 78.4 5 78.8 C 5 78.8 6.8 79.7 6.8 79.7 C 7.7 80.2 8.4 80.8 8.8 81.4 C 9.2 82 9.5 82.7 9.5 83.6 C 9.5 84.3 9.3 84.9 8.9 85.4 C 8.6 86 8.1 86.4 7.4 86.8 C 6.8 87.1 6 87.2 5.1 87.2 C 4.3 87.2 3.5 87.1 2.8 86.8 C 2.2 86.5 1.6 86.1 1.3 85.7 C 1.3 85.7 1.3 84 1.3 84 Z M 10.8 81.8 C 10.8 80.8 11 80 11.4 79.2 C 11.7 78.5 12.2 77.9 12.9 77.5 C 13.5 77.1 14.3 76.9 15.1 76.9 C 16.4 76.9 17.4 77.3 18.1 78.1 C 18.9 79 19.2 80.2 19.2 81.9 C 19.22 81.9 19.2 82.4 19.2 82.4 C 19.2 82.4 12.06 82.42 12.1 82.4 C 12.1 83.5 12.4 84.4 13 85.1 C 13.5 85.9 14.3 86.2 15.2 86.2 C 16 86.2 16.7 86.1 17.3 85.8 C 17.8 85.5 18.3 85.1 18.7 84.7 C 18.7 84.7 18.7 86 18.7 86 C 18.3 86.4 17.8 86.7 17.3 86.9 C 16.8 87.1 16.1 87.2 15.2 87.2 C 14.3 87.2 13.5 87 12.9 86.6 C 12.2 86.2 11.7 85.6 11.3 84.8 C 11 84.1 10.8 83.2 10.8 82.2 C 10.8 82.2 10.8 81.8 10.8 81.8 Z M 18 81.4 C 18 80.2 17.7 79.3 17.2 78.7 C 16.6 78.2 16 77.9 15.1 77.9 C 14.6 77.9 14.1 78 13.6 78.3 C 13.2 78.6 12.8 79 12.5 79.6 C 12.3 80.1 12.1 80.7 12.1 81.4 C 12.1 81.4 18 81.4 18 81.4 Z M 22.2 87 L 21 87 L 21 73.2 L 22.2 73.2 L 22.2 87 Z M 25.7 78.2 L 23.5 78.2 L 23.5 77.1 L 25.7 77.1 L 25.7 74.1 L 26.9 74.1 L 26.9 77.1 L 29.1 77.1 L 29.1 78.2 L 26.9 78.2 L 26.9 87 L 25.7 87 L 25.7 78.2 Z M 29.5 81.9 C 29.5 80.9 29.7 80 30.1 79.2 C 30.4 78.5 31 77.9 31.6 77.5 C 32.3 77.1 33.1 76.9 34 76.9 C 34.8 76.9 35.6 77.1 36.3 77.5 C 37 77.9 37.5 78.5 37.9 79.2 C 38.2 80 38.4 80.9 38.4 81.9 C 38.4 81.9 38.4 82.2 38.4 82.2 C 38.4 83.2 38.2 84.1 37.9 84.9 C 37.5 85.6 37 86.2 36.3 86.6 C 35.6 87 34.8 87.2 34 87.2 C 33.1 87.2 32.3 87 31.6 86.6 C 31 86.2 30.4 85.6 30.1 84.9 C 29.7 84.1 29.5 83.2 29.5 82.2 C 29.5 82.2 29.5 81.9 29.5 81.9 Z M 30.8 82.2 C 30.8 83.5 31.1 84.4 31.6 85.1 C 32.2 85.9 33 86.2 34 86.2 C 34.9 86.2 35.7 85.9 36.3 85.1 C 36.9 84.4 37.2 83.5 37.2 82.2 C 37.2 82.2 37.2 81.9 37.2 81.9 C 37.2 80.7 36.9 79.7 36.3 78.9 C 35.7 78.2 34.9 77.9 34 77.9 C 33 77.9 32.2 78.2 31.6 78.9 C 31.1 79.7 30.8 80.7 30.8 81.9 C 30.8 81.9 30.8 82.2 30.8 82.2 Z M 39.8 84.8 C 40.6 85.7 41.6 86.2 42.9 86.2 C 43.6 86.2 44.1 86.1 44.6 85.8 C 45 85.5 45.2 85 45.2 84.5 C 45.2 84.1 45.1 83.8 44.9 83.5 C 44.7 83.2 44.3 83 43.7 82.7 C 43.7 82.7 42.2 82.1 42.2 82.1 C 41.4 81.8 40.8 81.4 40.4 80.9 C 40.1 80.5 39.9 80 39.9 79.4 C 39.9 79 40 78.5 40.3 78.1 C 40.5 77.8 40.9 77.4 41.4 77.2 C 41.9 77 42.4 76.9 43.1 76.9 C 43.7 76.9 44.3 77 44.8 77.2 C 45.3 77.4 45.8 77.7 46.1 78 C 46.1 78 46.1 79.4 46.1 79.4 C 45.7 78.9 45.2 78.5 44.7 78.3 C 44.2 78 43.6 77.9 43.1 77.9 C 42.5 77.9 42 78 41.6 78.3 C 41.3 78.6 41.1 79 41.1 79.4 C 41.1 79.7 41.3 80 41.5 80.3 C 41.8 80.5 42.2 80.7 42.8 81 C 42.8 81 44.2 81.6 44.2 81.6 C 45 81.9 45.6 82.3 45.9 82.8 C 46.3 83.2 46.5 83.8 46.5 84.5 C 46.5 85.3 46.1 86 45.5 86.5 C 44.8 87 43.9 87.2 42.9 87.2 C 42.2 87.2 41.6 87.1 41 86.9 C 40.5 86.7 40.1 86.5 39.8 86.2 C 39.8 86.2 39.8 84.8 39.8 84.8 Z M 60.7 88.7 L 59.6 88.7 L 59.6 72.5 L 60.7 72.5 L 60.7 88.7 Z M 52.8 81.7 C 52 81.7 51.3 81.5 50.7 81.2 C 50.1 80.9 49.6 80.4 49.2 79.9 C 48.9 79.3 48.7 78.7 48.7 78 C 48.7 78 48.7 77.6 48.7 77.6 C 48.7 76.9 48.9 76.2 49.2 75.7 C 49.6 75.1 50.1 74.6 50.7 74.3 C 51.3 74 52 73.9 52.8 73.9 C 53.5 73.9 54.2 74 54.9 74.3 C 55.5 74.6 56 75.1 56.3 75.7 C 56.7 76.2 56.9 76.9 56.9 77.6 C 56.9 77.6 56.9 78 56.9 78 C 56.9 78.7 56.7 79.3 56.3 79.9 C 56 80.4 55.5 80.9 54.9 81.2 C 54.2 81.5 53.5 81.7 52.8 81.7 C 52.8 81.7 52.8 81.7 52.8 81.7 Z M 52.8 80.7 C 53.6 80.7 54.3 80.4 54.9 79.9 C 55.4 79.4 55.7 78.8 55.7 77.9 C 55.7 77.9 55.7 77.6 55.7 77.6 C 55.7 77.1 55.6 76.6 55.3 76.2 C 55.1 75.8 54.7 75.4 54.3 75.2 C 53.8 75 53.3 74.8 52.8 74.8 C 52 74.8 51.3 75.1 50.7 75.6 C 50.2 76.1 49.9 76.8 49.9 77.6 C 49.9 77.6 49.9 77.9 49.9 77.9 C 49.9 78.8 50.2 79.4 50.7 79.9 C 51.3 80.4 52 80.7 52.8 80.7 C 52.8 80.7 52.8 80.7 52.8 80.7 Z M 47.4 85.8 L 47.4 84.8 C 47.4 84.8 51.1 84.76 51.1 84.8 C 53.5 84.8 55.8 84.5 58.1 84 C 58.1 84 58.3 85 58.3 85 C 56.9 85.3 55.7 85.5 54.4 85.6 C 53.2 85.7 51.9 85.8 50.6 85.8 C 50.56 85.77 47.4 85.8 47.4 85.8 Z M 80.9 78.6 L 83.9 78.6 L 83.9 79.6 L 80.9 79.6 L 80.9 88.7 L 79.7 88.7 L 79.7 72.5 L 80.9 72.5 L 80.9 78.6 Z M 71.2 82.8 C 72 82.8 73.1 82.7 74.4 82.6 C 75.7 82.5 76.9 82.3 78 82 C 78 82 78.2 83 78.2 83 C 76.7 83.3 75.3 83.5 74 83.6 C 72.6 83.7 71.1 83.8 69.4 83.8 C 69.37 83.79 69.4 74.2 69.4 74.2 L 76.5 74.2 L 76.5 75.2 L 70.6 75.2 L 70.6 82.8 C 70.6 82.8 71.15 82.78 71.2 82.8 Z M 100.1 75.1 L 100.1 76.1 L 97.1 76.1 L 97.1 78.8 L 100.1 78.8 L 100.1 79.8 L 97.1 79.8 L 97.1 82.7 L 95.9 82.7 L 95.9 72.5 L 97.1 72.5 L 97.1 75.1 L 100.1 75.1 Z M 93 77.7 C 93 78.5 92.9 79.1 92.5 79.7 C 92.2 80.3 91.7 80.8 91.1 81.1 C 90.5 81.4 89.8 81.6 89 81.6 C 88.2 81.6 87.6 81.4 86.9 81.1 C 86.3 80.8 85.8 80.3 85.5 79.7 C 85.2 79.1 85 78.5 85 77.7 C 85 77.7 85 77.3 85 77.3 C 85 76.6 85.2 75.9 85.5 75.3 C 85.8 74.7 86.3 74.3 86.9 73.9 C 87.6 73.6 88.2 73.4 89 73.4 C 89.8 73.4 90.5 73.6 91.1 73.9 C 91.7 74.3 92.2 74.7 92.5 75.3 C 92.9 75.9 93 76.6 93 77.3 C 93 77.3 93 77.7 93 77.7 Z M 86.2 77.7 C 86.2 78.6 86.4 79.3 87 79.8 C 87.5 80.3 88.2 80.6 89 80.6 C 89.9 80.6 90.5 80.4 91.1 79.8 C 91.6 79.3 91.9 78.6 91.9 77.7 C 91.9 77.7 91.9 77.4 91.9 77.4 C 91.9 76.5 91.6 75.8 91.1 75.2 C 90.5 74.7 89.8 74.4 89 74.4 C 88.2 74.4 87.5 74.7 87 75.2 C 86.4 75.8 86.2 76.5 86.2 77.4 C 86.2 77.4 86.2 77.7 86.2 77.7 Z M 92.4 82.9 C 93.9 82.9 95.1 83.1 96 83.7 C 96.9 84.3 97.3 85 97.3 86 C 97.3 86 97.3 86.2 97.3 86.2 C 97.3 87.2 96.9 88 96 88.5 C 95.1 89.1 93.9 89.4 92.4 89.4 C 90.8 89.4 89.6 89.1 88.8 88.5 C 87.9 88 87.5 87.2 87.5 86.2 C 87.5 86.2 87.5 86 87.5 86 C 87.5 85 87.9 84.3 88.8 83.7 C 89.6 83.1 90.8 82.9 92.4 82.9 C 92.4 82.9 92.4 82.9 92.4 82.9 Z M 96.1 86.1 C 96.1 85.4 95.8 84.8 95.1 84.4 C 94.5 84 93.6 83.8 92.4 83.8 C 91.2 83.8 90.3 84 89.6 84.4 C 89 84.8 88.6 85.4 88.6 86.1 C 88.6 86.1 88.6 86.2 88.6 86.2 C 88.6 86.9 89 87.4 89.6 87.8 C 90.3 88.2 91.2 88.4 92.4 88.4 C 93.6 88.4 94.5 88.2 95.1 87.8 C 95.8 87.4 96.1 86.9 96.1 86.2 C 96.1 86.2 96.1 86.1 96.1 86.1 Z M 113.3 72.5 L 113.3 78.9 L 116.3 78.9 L 116.3 79.9 L 113.3 79.9 L 113.3 85.4 L 112.1 85.4 L 112.1 72.5 L 113.3 72.5 Z M 108.1 74.1 C 108.1 74.1 106.11 74.12 106.1 74.1 C 104.8 74.1 103.7 74 103 73.8 C 103 73.8 103 72.9 103 72.9 C 103.8 73.1 104.8 73.2 106.1 73.2 C 106.11 73.15 108.1 73.2 108.1 73.2 L 108.1 74.1 Z M 101.1 75.5 L 110 75.5 L 110 76.4 L 101.1 76.4 L 101.1 75.5 Z M 109 80.5 C 109 81 108.8 81.5 108.5 81.9 C 108.2 82.4 107.8 82.7 107.3 83 C 106.8 83.2 106.2 83.3 105.6 83.3 C 104.9 83.3 104.3 83.2 103.8 83 C 103.3 82.7 102.9 82.4 102.6 81.9 C 102.3 81.5 102.1 81 102.1 80.5 C 102.1 80.5 102.1 80.3 102.1 80.3 C 102.1 79.8 102.3 79.3 102.6 78.8 C 102.9 78.4 103.3 78.1 103.8 77.8 C 104.3 77.6 104.9 77.5 105.6 77.5 C 106.2 77.5 106.8 77.6 107.3 77.8 C 107.8 78.1 108.2 78.4 108.5 78.8 C 108.8 79.3 109 79.8 109 80.3 C 109 80.3 109 80.5 109 80.5 Z M 103.3 80.5 C 103.3 81 103.5 81.5 103.9 81.8 C 104.3 82.2 104.9 82.4 105.6 82.4 C 106.2 82.4 106.8 82.2 107.2 81.8 C 107.6 81.5 107.8 81 107.8 80.5 C 107.8 80.5 107.8 80.3 107.8 80.3 C 107.8 79.8 107.6 79.3 107.2 78.9 C 106.8 78.6 106.2 78.4 105.6 78.4 C 104.9 78.4 104.3 78.6 103.9 78.9 C 103.5 79.3 103.3 79.8 103.3 80.3 C 103.3 80.3 103.3 80.5 103.3 80.5 Z M 103.8 84.5 L 105 84.5 L 105 88.1 L 114 88.1 L 114 89.1 L 103.8 89.1 L 103.8 84.5 Z M 134.5 88.7 L 133.4 88.7 L 133.4 72.5 L 134.5 72.5 L 134.5 88.7 Z M 122.2 83.9 C 124.4 82.9 126 81.8 127 80.6 C 128 79.4 128.5 78 128.5 76.3 C 128.47 76.34 128.5 75.2 128.5 75.2 L 122.7 75.2 L 122.7 74.2 L 129.7 74.2 C 129.7 74.2 129.65 76.23 129.7 76.2 C 129.7 78.1 129.1 79.7 128 81.1 C 126.8 82.5 125.1 83.8 122.7 84.9 C 122.7 84.9 122.2 83.9 122.2 83.9 Z M 150.5 77.8 L 150.5 78.8 L 140.1 78.8 L 140.1 73.1 L 141.3 73.1 L 141.3 77.8 L 150.5 77.8 Z M 137.4 80.9 L 152.9 80.9 L 152.9 81.9 L 137.4 81.9 L 137.4 80.9 Z M 145.1 89.4 C 143.6 89.4 142.4 89.1 141.5 88.6 C 140.6 88 140.2 87.3 140.2 86.4 C 140.2 86.4 140.2 86.3 140.2 86.3 C 140.2 85.3 140.6 84.6 141.5 84.1 C 142.4 83.6 143.6 83.3 145.1 83.3 C 146.7 83.3 147.9 83.6 148.7 84.1 C 149.6 84.6 150 85.3 150 86.3 C 150 86.3 150 86.4 150 86.4 C 150 87.3 149.6 88 148.7 88.6 C 147.9 89.1 146.7 89.4 145.1 89.4 C 145.1 89.4 145.1 89.4 145.1 89.4 Z M 145.1 88.4 C 146.3 88.4 147.3 88.2 147.9 87.9 C 148.5 87.5 148.9 87 148.9 86.4 C 148.9 86.4 148.9 86.3 148.9 86.3 C 148.9 85.7 148.5 85.2 147.9 84.8 C 147.2 84.5 146.3 84.3 145.1 84.3 C 143.9 84.3 143 84.5 142.3 84.8 C 141.7 85.2 141.4 85.7 141.4 86.3 C 141.4 86.3 141.4 86.4 141.4 86.4 C 141.4 87 141.7 87.5 142.3 87.9 C 143 88.2 143.9 88.4 145.1 88.4 C 145.1 88.4 145.1 88.4 145.1 88.4 Z M 161.3 78.7 C 159.8 78.7 158.7 78.5 157.8 78 C 156.9 77.5 156.5 76.8 156.5 75.9 C 156.5 75.9 156.5 75.8 156.5 75.8 C 156.5 74.9 156.9 74.2 157.8 73.7 C 158.7 73.2 159.8 72.9 161.3 72.9 C 162.8 72.9 164 73.2 164.9 73.7 C 165.7 74.2 166.2 74.9 166.2 75.8 C 166.2 75.8 166.2 75.9 166.2 75.9 C 166.2 76.8 165.7 77.5 164.9 78 C 164 78.5 162.8 78.7 161.3 78.7 C 161.3 78.7 161.3 78.7 161.3 78.7 Z M 161.3 77.8 C 162.5 77.8 163.3 77.6 164 77.3 C 164.6 77 164.9 76.5 164.9 75.9 C 164.9 75.9 164.9 75.8 164.9 75.8 C 164.9 75.2 164.6 74.7 164 74.4 C 163.3 74.1 162.5 73.9 161.3 73.9 C 160.2 73.9 159.3 74.1 158.6 74.4 C 158 74.7 157.7 75.2 157.7 75.8 C 157.7 75.8 157.7 75.9 157.7 75.9 C 157.7 76.5 158 77 158.6 77.3 C 159.3 77.6 160.2 77.8 161.3 77.8 C 161.3 77.8 161.3 77.8 161.3 77.8 Z M 153.6 80.1 L 169.1 80.1 L 169.1 81.1 L 153.6 81.1 L 153.6 80.1 Z M 156.4 82.8 L 166.2 82.8 L 166.2 86.5 L 157.6 86.5 L 157.6 88.4 L 166.7 88.4 L 166.7 89.4 L 156.4 89.4 L 156.4 85.5 L 165 85.5 L 165 83.8 L 156.4 83.8 L 156.4 82.8 Z M 187.6 82.9 L 186.5 82.9 L 186.5 79.8 L 183.4 79.8 L 183.4 78.8 L 186.5 78.8 L 186.5 76.2 L 183.4 76.2 L 183.4 75.2 L 186.5 75.2 L 186.5 72.5 L 187.6 72.5 L 187.6 82.9 Z M 182.6 77.7 C 182.6 78.4 182.4 79 182.1 79.6 C 181.7 80.2 181.3 80.6 180.7 81 C 180.1 81.3 179.4 81.5 178.7 81.5 C 178 81.5 177.3 81.3 176.8 81 C 176.2 80.6 175.7 80.2 175.4 79.6 C 175 79 174.9 78.4 174.9 77.7 C 174.9 77.7 174.9 77.3 174.9 77.3 C 174.9 76.6 175 75.9 175.4 75.3 C 175.7 74.8 176.2 74.3 176.8 74 C 177.3 73.7 178 73.5 178.7 73.5 C 179.4 73.5 180.1 73.7 180.7 74 C 181.3 74.3 181.7 74.8 182.1 75.3 C 182.4 75.9 182.6 76.6 182.6 77.3 C 182.6 77.3 182.6 77.7 182.6 77.7 Z M 176.1 77.7 C 176.1 78.5 176.3 79.2 176.8 79.7 C 177.3 80.2 177.9 80.5 178.7 80.5 C 179.5 80.5 180.2 80.2 180.6 79.7 C 181.1 79.2 181.4 78.5 181.4 77.7 C 181.4 77.7 181.4 77.3 181.4 77.3 C 181.4 76.5 181.1 75.8 180.6 75.3 C 180.1 74.7 179.5 74.5 178.7 74.5 C 177.9 74.5 177.3 74.7 176.8 75.3 C 176.3 75.8 176.1 76.5 176.1 77.3 C 176.1 77.3 176.1 77.7 176.1 77.7 Z M 182.9 82.9 C 184.5 82.9 185.7 83.1 186.5 83.7 C 187.4 84.3 187.8 85 187.8 86 C 187.8 86 187.8 86.2 187.8 86.2 C 187.8 87.2 187.4 88 186.5 88.5 C 185.7 89.1 184.5 89.4 182.9 89.4 C 181.4 89.4 180.2 89.1 179.3 88.5 C 178.4 88 178 87.2 178 86.2 C 178 86.2 178 86 178 86 C 178 85 178.4 84.3 179.3 83.7 C 180.2 83.1 181.4 82.9 182.9 82.9 C 182.9 82.9 182.9 82.9 182.9 82.9 Z M 186.7 86.1 C 186.7 85.4 186.3 84.8 185.7 84.4 C 185 84 184.1 83.8 182.9 83.8 C 181.7 83.8 180.8 84 180.1 84.4 C 179.5 84.8 179.2 85.4 179.2 86.1 C 179.2 86.1 179.2 86.2 179.2 86.2 C 179.2 86.9 179.5 87.4 180.1 87.8 C 180.8 88.2 181.7 88.4 182.9 88.4 C 184.1 88.4 185 88.2 185.7 87.8 C 186.3 87.4 186.7 86.9 186.7 86.2 C 186.7 86.2 186.7 86.1 186.7 86.1 Z M 203.3 72.5 L 203.3 77 L 206.3 77 L 206.3 78 L 203.3 78 L 203.3 82.7 L 202.1 82.7 L 202.1 72.5 L 203.3 72.5 Z M 195.5 78.2 C 195.1 78.9 194.5 79.6 193.8 80.3 C 193.1 81 192.3 81.6 191.4 82.1 C 191.4 82.1 190.8 81.2 190.8 81.2 C 192 80.5 193 79.7 193.8 78.7 C 194.5 77.8 194.9 76.9 194.9 76 C 194.88 76.05 194.9 73.4 194.9 73.4 L 196.1 73.4 C 196.1 73.4 196.07 76.01 196.1 76 C 196.1 76.9 196.4 77.7 197.2 78.5 C 197.9 79.3 198.9 80.1 200.2 80.7 C 200.2 80.7 199.6 81.7 199.6 81.7 C 197.8 80.7 196.4 79.5 195.5 78.2 C 195.5 78.2 195.5 78.2 195.5 78.2 Z M 198.6 83 C 200.1 83 201.3 83.3 202.2 83.9 C 203.1 84.4 203.5 85.2 203.5 86.1 C 203.5 86.1 203.5 86.3 203.5 86.3 C 203.5 87.2 203.1 88 202.2 88.5 C 201.3 89.1 200.1 89.4 198.6 89.4 C 197 89.4 195.8 89.1 195 88.5 C 194.1 88 193.7 87.2 193.7 86.3 C 193.7 86.3 193.7 86.1 193.7 86.1 C 193.7 85.2 194.1 84.4 195 83.9 C 195.8 83.3 197 83 198.6 83 C 198.6 83 198.6 83 198.6 83 Z M 202.3 86.1 C 202.3 85.5 202 85 201.3 84.6 C 200.7 84.2 199.8 84 198.6 84 C 197.4 84 196.5 84.2 195.8 84.6 C 195.2 85 194.8 85.5 194.8 86.1 C 194.8 86.1 194.8 86.3 194.8 86.3 C 194.8 86.9 195.2 87.4 195.8 87.8 C 196.5 88.2 197.4 88.4 198.6 88.4 C 199.8 88.4 200.7 88.2 201.3 87.8 C 202 87.4 202.3 86.9 202.3 86.3 C 202.3 86.3 202.3 86.1 202.3 86.1 Z M 214.4 82.2 C 213.3 82.2 212.3 82 211.5 81.7 C 210.7 81.3 210.1 80.8 209.7 80.2 C 209.3 79.6 209.1 78.9 209.1 78.1 C 209.1 78.1 209.1 77.9 209.1 77.9 C 209.1 77.1 209.3 76.4 209.7 75.8 C 210.1 75.1 210.7 74.6 211.5 74.3 C 212.3 73.9 213.3 73.8 214.4 73.8 C 215.5 73.8 216.5 73.9 217.3 74.3 C 218.1 74.6 218.7 75.1 219.1 75.8 C 219.5 76.4 219.7 77.1 219.7 77.9 C 219.7 77.9 219.7 78.1 219.7 78.1 C 219.7 78.9 219.5 79.6 219.1 80.2 C 218.7 80.8 218.1 81.3 217.3 81.7 C 216.5 82 215.5 82.2 214.4 82.2 C 214.4 82.2 214.4 82.2 214.4 82.2 Z M 214.4 81.2 C 215.7 81.2 216.7 80.9 217.5 80.3 C 218.2 79.7 218.5 79 218.5 78 C 218.5 78 218.5 77.9 218.5 77.9 C 218.5 77 218.2 76.2 217.5 75.6 C 216.7 75.1 215.7 74.8 214.4 74.8 C 213.1 74.8 212.1 75.1 211.4 75.6 C 210.7 76.2 210.3 77 210.3 77.9 C 210.3 77.9 210.3 78 210.3 78 C 210.3 79 210.7 79.7 211.4 80.3 C 212.1 80.9 213.1 81.2 214.4 81.2 C 214.4 81.2 214.4 81.2 214.4 81.2 Z M 206.7 86.2 L 222.2 86.2 L 222.2 87.2 L 206.7 87.2 L 206.7 86.2 Z M 231.2 82.7 L 231.2 86.2 L 238.4 86.2 L 238.4 87.2 L 222.9 87.2 L 222.9 86.2 L 230.1 86.2 L 230.1 82.7 L 225.6 82.7 L 225.6 77.6 L 234.5 77.6 L 234.5 74.7 L 225.6 74.7 L 225.6 73.7 L 235.7 73.7 L 235.7 78.6 L 226.8 78.6 L 226.8 81.7 L 236.1 81.7 L 236.1 82.7 L 231.2 82.7 Z M 255.8 83 L 255.8 72.5 L 256.9 72.5 L 256.9 83 L 255.8 83 Z M 248.9 76.2 C 248.5 76.8 247.9 77.3 247.2 77.8 C 246.5 78.2 245.7 78.5 244.7 78.8 C 244.7 78.8 244.4 77.8 244.4 77.8 C 245.4 77.5 246.4 77.1 247.1 76.5 C 247.9 75.9 248.3 75.3 248.3 74.6 C 248.29 74.57 248.3 73.2 248.3 73.2 L 249.5 73.2 C 249.5 73.2 249.48 74.54 249.5 74.5 C 249.5 75.2 249.9 75.8 250.6 76.3 C 251.4 76.8 252.3 77.2 253.4 77.5 C 253.4 77.5 253.1 78.5 253.1 78.5 C 251.3 78 249.9 77.3 248.9 76.2 C 248.9 76.2 248.9 76.2 248.9 76.2 Z M 248.3 83.1 C 248.3 83.1 248.25 80.96 248.3 81 C 247.9 81 247.4 81 246.8 81 C 246.76 80.98 243.6 81 243.6 81 L 243.6 80 C 243.6 80 247.3 79.97 247.3 80 C 247.7 80 248 80 248.3 80 C 248.3 80 248.4 80 248.4 80 C 250.5 79.9 252.5 79.6 254.3 79.3 C 254.3 79.3 254.5 80.2 254.5 80.2 C 252.8 80.6 251.1 80.8 249.4 80.9 C 249.44 80.91 249.4 83.1 249.4 83.1 L 248.3 83.1 Z M 248.6 85.6 L 255.8 85.6 L 255.8 83.9 L 256.9 83.9 L 256.9 89.2 L 247.4 89.2 L 247.4 83.9 L 248.6 83.9 L 248.6 85.6 Z M 248.6 86.6 L 248.6 88.2 L 255.8 88.2 L 255.8 86.6 L 248.6 86.6 Z M 272.8 88.7 L 272.8 72.5 L 274 72.5 L 274 88.7 L 272.8 88.7 Z M 266.4 78.8 L 269.2 78.8 L 269.2 72.7 L 270.4 72.7 L 270.4 88.1 L 269.2 88.1 L 269.2 79.8 L 266.4 79.8 L 266.4 78.8 Z M 266.5 74.3 C 266.5 74.3 266.47 76.48 266.5 76.5 C 266.5 77.7 266.3 78.8 265.9 79.7 C 265.6 80.7 265 81.6 264.1 82.4 C 263.3 83.2 262.2 84 260.8 84.7 C 260.8 84.7 260.2 83.7 260.2 83.7 C 261.4 83.1 262.4 82.4 263.2 81.7 C 263.9 81 264.5 80.3 264.8 79.4 C 265.1 78.6 265.3 77.7 265.3 76.6 C 265.32 76.59 265.3 75.3 265.3 75.3 L 260.9 75.3 L 260.9 74.3 L 266.5 74.3 Z M 293.3 72.5 L 293.3 76.8 L 296.3 76.8 L 296.3 77.8 L 293.3 77.8 L 293.3 81.8 L 292.1 81.8 L 292.1 72.5 L 293.3 72.5 Z M 289.2 77.4 C 289.2 78.1 289.1 78.7 288.7 79.3 C 288.4 79.8 287.9 80.3 287.3 80.6 C 286.6 80.9 286 81.1 285.2 81.1 C 284.5 81.1 283.8 80.9 283.2 80.6 C 282.5 80.3 282.1 79.8 281.7 79.3 C 281.4 78.7 281.2 78.1 281.2 77.4 C 281.2 77.4 281.2 77 281.2 77 C 281.2 76.4 281.4 75.7 281.7 75.2 C 282.1 74.6 282.5 74.2 283.2 73.9 C 283.8 73.5 284.5 73.4 285.2 73.4 C 286 73.4 286.6 73.5 287.3 73.9 C 287.9 74.2 288.4 74.6 288.7 75.2 C 289.1 75.7 289.2 76.4 289.2 77 C 289.2 77 289.2 77.4 289.2 77.4 Z M 282.4 77.4 C 282.4 78.2 282.6 78.8 283.2 79.3 C 283.7 79.8 284.4 80.1 285.2 80.1 C 286 80.1 286.7 79.8 287.3 79.3 C 287.8 78.8 288.1 78.2 288.1 77.4 C 288.1 77.4 288.1 77.1 288.1 77.1 C 288.1 76.3 287.8 75.6 287.3 75.1 C 286.7 74.6 286 74.4 285.2 74.4 C 284.4 74.4 283.7 74.6 283.2 75.1 C 282.6 75.6 282.4 76.3 282.4 77.1 C 282.4 77.1 282.4 77.4 282.4 77.4 Z M 293.3 86.5 L 285 86.5 L 285 88.4 L 293.8 88.4 L 293.8 89.4 L 283.8 89.4 L 283.8 85.5 L 292.1 85.5 L 292.1 83.7 L 283.8 83.7 L 283.8 82.7 L 293.3 82.7 L 293.3 86.5 Z M 309.5 78.6 L 312.5 78.6 L 312.5 79.6 L 309.5 79.6 L 309.5 88.7 L 308.3 88.7 L 308.3 72.5 L 309.5 72.5 L 309.5 78.6 Z M 301.6 73.7 C 302.5 73.7 303.2 73.9 303.8 74.4 C 304.5 74.8 304.9 75.4 305.3 76.1 C 305.6 76.9 305.8 77.8 305.8 78.8 C 305.8 78.8 305.8 79.2 305.8 79.2 C 305.8 80.3 305.6 81.2 305.3 81.9 C 304.9 82.7 304.5 83.3 303.8 83.7 C 303.2 84.1 302.5 84.3 301.6 84.3 C 300.7 84.3 300 84.1 299.3 83.7 C 298.7 83.3 298.2 82.7 297.9 81.9 C 297.5 81.2 297.4 80.3 297.4 79.2 C 297.4 79.2 297.4 78.8 297.4 78.8 C 297.4 77.8 297.5 76.9 297.9 76.1 C 298.2 75.4 298.7 74.8 299.3 74.4 C 300 73.9 300.7 73.7 301.6 73.7 C 301.6 73.7 301.6 73.7 301.6 73.7 Z M 304.6 78.9 C 304.6 77.6 304.3 76.6 303.8 75.8 C 303.3 75.1 302.5 74.7 301.6 74.7 C 300.6 74.7 299.9 75.1 299.4 75.8 C 298.8 76.6 298.6 77.6 298.6 78.9 C 298.6 78.9 298.6 79.2 298.6 79.2 C 298.6 80.5 298.8 81.5 299.4 82.2 C 299.9 83 300.6 83.3 301.6 83.3 C 302.5 83.3 303.3 83 303.8 82.2 C 304.3 81.5 304.6 80.5 304.6 79.2 C 304.6 79.2 304.6 78.9 304.6 78.9 Z M 324.5 73.5 L 325.7 73.5 L 325.7 81.6 L 315.6 81.6 L 315.6 73.5 L 316.7 73.5 L 316.7 76.6 L 324.5 76.6 L 324.5 73.5 Z M 316.7 77.6 L 316.7 80.6 L 324.5 80.6 L 324.5 77.6 L 316.7 77.6 Z M 321.2 82.6 L 321.2 86.2 L 328.4 86.2 L 328.4 87.2 L 312.9 87.2 L 312.9 86.2 L 320 86.2 L 320 82.6 L 321.2 82.6 Z M 342.1 88.7 L 342.1 72.5 L 343.3 72.5 L 343.3 88.7 L 342.1 88.7 Z M 335.5 78.2 L 338.7 78.2 L 338.7 72.7 L 339.9 72.7 L 339.9 88.1 L 338.7 88.1 L 338.7 79.2 L 335.5 79.2 L 335.5 78.2 Z M 333.9 77.9 C 333.9 78.8 334.2 79.7 334.8 80.7 C 335.4 81.8 336.2 82.6 337.3 83.4 C 337.3 83.4 336.6 84.3 336.6 84.3 C 335.1 83.1 334 81.8 333.3 80.2 C 332.6 81.8 331.5 83.3 330 84.6 C 330 84.6 329.2 83.8 329.2 83.8 C 330.3 83 331.1 82 331.7 80.9 C 332.4 79.8 332.7 78.8 332.7 77.9 C 332.69 77.92 332.7 74 332.7 74 L 333.9 74 C 333.9 74 333.88 77.89 333.9 77.9 Z M 353 81.6 C 351.9 81.6 350.9 81.4 350.1 81.1 C 349.3 80.8 348.7 80.3 348.3 79.7 C 347.9 79.1 347.7 78.5 347.7 77.7 C 347.7 77.7 347.7 77.5 347.7 77.5 C 347.7 76.8 347.9 76.1 348.3 75.5 C 348.7 74.9 349.3 74.5 350.1 74.1 C 350.9 73.8 351.9 73.6 353 73.6 C 354.1 73.6 355.1 73.8 355.9 74.1 C 356.7 74.5 357.3 74.9 357.7 75.5 C 358.1 76.1 358.3 76.8 358.3 77.5 C 358.3 77.5 358.3 77.7 358.3 77.7 C 358.3 78.5 358.1 79.1 357.7 79.7 C 357.3 80.3 356.7 80.8 355.9 81.1 C 355.1 81.4 354.1 81.6 353 81.6 C 353 81.6 353 81.6 353 81.6 Z M 348.9 77.7 C 348.9 78.6 349.3 79.3 350 79.8 C 350.7 80.3 351.7 80.6 353 80.6 C 354.3 80.6 355.4 80.3 356.1 79.8 C 356.8 79.3 357.1 78.6 357.1 77.7 C 357.1 77.7 357.1 77.6 357.1 77.6 C 357.1 76.7 356.8 76 356.1 75.4 C 355.4 74.9 354.3 74.6 353 74.6 C 351.7 74.6 350.7 74.9 350 75.4 C 349.3 76 348.9 76.7 348.9 77.6 C 348.9 77.6 348.9 77.7 348.9 77.7 Z M 356.3 82.2 L 356.3 86.2 L 360.8 86.2 L 360.8 87.2 L 345.3 87.2 L 345.3 86.2 L 349.7 86.2 L 349.7 82.2 L 350.9 82.2 L 350.9 86.2 L 355.1 86.2 L 355.1 82.2 L 356.3 82.2 Z M 363.7 87 L 362 87 L 362 84.9 L 363.7 84.9 L 363.7 87 Z " stroke="none" fill="#c7c8ca"/>
  </g>
  <g id="Polygon627159">
    <path d="M 13.5 46.5 L 13.5 50.8 L 16.5 50.8 L 16.5 51.8 L 13.5 51.8 L 13.5 55.8 L 12.3 55.8 L 12.3 46.5 L 13.5 46.5 Z M 9.4 51.4 C 9.4 52.1 9.2 52.7 8.9 53.3 C 8.5 53.8 8 54.3 7.4 54.6 C 6.8 54.9 6.1 55.1 5.4 55.1 C 4.6 55.1 3.9 54.9 3.3 54.6 C 2.7 54.3 2.2 53.8 1.9 53.3 C 1.5 52.7 1.3 52.1 1.3 51.4 C 1.3 51.4 1.3 51 1.3 51 C 1.3 50.4 1.5 49.7 1.9 49.2 C 2.2 48.6 2.7 48.2 3.3 47.9 C 3.9 47.5 4.6 47.4 5.4 47.4 C 6.1 47.4 6.8 47.5 7.4 47.9 C 8 48.2 8.5 48.6 8.9 49.2 C 9.2 49.7 9.4 50.4 9.4 51 C 9.4 51 9.4 51.4 9.4 51.4 Z M 2.5 51.4 C 2.5 52.2 2.8 52.8 3.3 53.3 C 3.9 53.8 4.5 54.1 5.4 54.1 C 6.2 54.1 6.9 53.8 7.4 53.3 C 7.9 52.8 8.2 52.2 8.2 51.4 C 8.2 51.4 8.2 51.1 8.2 51.1 C 8.2 50.3 7.9 49.6 7.4 49.1 C 6.9 48.6 6.2 48.4 5.4 48.4 C 4.5 48.4 3.9 48.6 3.3 49.1 C 2.8 49.6 2.5 50.3 2.5 51.1 C 2.5 51.1 2.5 51.4 2.5 51.4 Z M 13.5 60.5 L 5.1 60.5 L 5.1 62.4 L 14 62.4 L 14 63.4 L 3.9 63.4 L 3.9 59.5 L 12.3 59.5 L 12.3 57.7 L 3.9 57.7 L 3.9 56.7 L 13.5 56.7 L 13.5 60.5 Z M 29.7 52.6 L 32.7 52.6 L 32.7 53.6 L 29.7 53.6 L 29.7 62.7 L 28.5 62.7 L 28.5 46.5 L 29.7 46.5 L 29.7 52.6 Z M 21.7 47.7 C 22.6 47.7 23.4 47.9 24 48.4 C 24.6 48.8 25.1 49.4 25.4 50.1 C 25.8 50.9 26 51.8 26 52.8 C 26 52.8 26 53.2 26 53.2 C 26 54.3 25.8 55.2 25.4 55.9 C 25.1 56.7 24.6 57.3 24 57.7 C 23.4 58.1 22.6 58.3 21.7 58.3 C 20.9 58.3 20.1 58.1 19.5 57.7 C 18.9 57.3 18.4 56.7 18 55.9 C 17.7 55.2 17.5 54.3 17.5 53.2 C 17.5 53.2 17.5 52.8 17.5 52.8 C 17.5 51.8 17.7 50.9 18 50.1 C 18.4 49.4 18.9 48.8 19.5 48.4 C 20.1 47.9 20.9 47.7 21.7 47.7 C 21.7 47.7 21.7 47.7 21.7 47.7 Z M 24.8 52.9 C 24.8 51.6 24.5 50.6 24 49.8 C 23.4 49.1 22.7 48.7 21.7 48.7 C 20.8 48.7 20 49.1 19.5 49.8 C 19 50.6 18.7 51.6 18.7 52.9 C 18.7 52.9 18.7 53.2 18.7 53.2 C 18.7 54.5 19 55.5 19.5 56.2 C 20 57 20.8 57.3 21.7 57.3 C 22.7 57.3 23.4 57 24 56.2 C 24.5 55.5 24.8 54.5 24.8 53.2 C 24.8 53.2 24.8 52.9 24.8 52.9 Z M 36.9 52.7 L 46.2 52.7 L 46.2 53.7 L 35.7 53.7 L 35.7 47.6 L 45.8 47.6 L 45.8 48.6 L 36.9 48.6 L 36.9 52.7 Z M 33 56 L 48.5 56 L 48.5 57 L 41.4 57 L 41.4 63 L 40.2 63 L 40.2 57 L 33 57 L 33 56 Z M 62.6 58.7 L 61.4 58.7 L 61.4 54.2 L 58 54.2 L 58 53.2 L 61.4 53.2 L 61.4 50.4 L 58 50.4 L 58 49.3 L 61.4 49.3 L 61.4 46.5 L 62.6 46.5 L 62.6 58.7 Z M 50.4 47.8 L 57.1 47.8 L 57.1 55.8 L 50.4 55.8 L 50.4 47.8 Z M 51.6 54.8 L 55.9 54.8 L 55.9 48.8 L 51.6 48.8 L 51.6 54.8 Z M 54.3 57.6 L 54.3 62.1 L 63.3 62.1 L 63.3 63.1 L 53.1 63.1 L 53.1 57.6 L 54.3 57.6 Z M 83.3 58.7 L 82.1 58.7 L 82.1 53.7 L 79 53.7 L 79 52.7 L 82.1 52.7 L 82.1 51.1 L 79 51.1 L 79 50.1 L 82.1 50.1 L 82.1 46.5 L 83.3 46.5 L 83.3 58.7 Z M 70.7 47.9 L 78.9 47.9 L 78.9 48.9 L 70.7 48.9 L 70.7 47.9 Z M 79.6 55.7 C 78.1 56 76.7 56.1 75.3 56.3 C 73.9 56.4 72.2 56.4 70.3 56.4 C 70.29 56.4 70.3 55.4 70.3 55.4 L 72.3 55.4 L 72.4 55.4 L 72.1 49.7 L 73.2 49.6 C 73.2 49.6 73.49 55.38 73.5 55.4 C 74.4 55.3 75.3 55.3 76.1 55.2 C 76.07 55.2 76.4 49.6 76.4 49.6 L 77.5 49.7 C 77.5 49.7 77.18 55.07 77.2 55.1 C 78 55 78.7 54.9 79.4 54.7 C 79.4 54.7 79.6 55.7 79.6 55.7 Z M 74.7 57.8 L 74.7 62.1 L 84 62.1 L 84 63.1 L 73.5 63.1 L 73.5 57.8 L 74.7 57.8 Z M 99.5 62.7 L 98.3 62.7 L 98.3 46.5 L 99.5 46.5 L 99.5 62.7 Z M 87.5 52.5 L 93.1 52.5 L 93.1 49.1 L 87.5 49.1 L 87.5 48.1 L 94.3 48.1 L 94.3 53.5 L 88.7 53.5 L 88.7 57.2 C 88.7 57.2 89.3 57.2 89.3 57.2 C 90.2 57.2 91.3 57.1 92.6 57 C 93.9 56.9 95.1 56.7 96.2 56.4 C 96.2 56.4 96.4 57.4 96.4 57.4 C 94.9 57.7 93.5 57.9 92.1 58 C 90.7 58.1 89.2 58.2 87.5 58.2 C 87.52 58.2 87.5 52.5 87.5 52.5 Z M 115.2 46.5 L 115.2 52.9 L 118.2 52.9 L 118.2 53.9 L 115.2 53.9 L 115.2 59.4 L 114 59.4 L 114 46.5 L 115.2 46.5 Z M 109.9 48.1 C 109.9 48.1 107.96 48.12 108 48.1 C 106.6 48.1 105.6 48 104.9 47.8 C 104.9 47.8 104.9 46.9 104.9 46.9 C 105.6 47.1 106.6 47.2 108 47.2 C 107.96 47.15 109.9 47.2 109.9 47.2 L 109.9 48.1 Z M 103 49.5 L 111.9 49.5 L 111.9 50.4 L 103 50.4 L 103 49.5 Z M 110.8 54.5 C 110.8 55 110.7 55.5 110.4 55.9 C 110.1 56.4 109.7 56.7 109.2 57 C 108.7 57.2 108.1 57.3 107.4 57.3 C 106.7 57.3 106.2 57.2 105.6 57 C 105.1 56.7 104.7 56.4 104.4 55.9 C 104.1 55.5 104 55 104 54.5 C 104 54.5 104 54.3 104 54.3 C 104 53.8 104.1 53.3 104.4 52.8 C 104.7 52.4 105.1 52.1 105.6 51.8 C 106.2 51.6 106.7 51.5 107.4 51.5 C 108.1 51.5 108.7 51.6 109.2 51.8 C 109.7 52.1 110.1 52.4 110.4 52.8 C 110.7 53.3 110.8 53.8 110.8 54.3 C 110.8 54.3 110.8 54.5 110.8 54.5 Z M 105.1 54.5 C 105.1 55 105.3 55.5 105.7 55.8 C 106.2 56.2 106.7 56.4 107.4 56.4 C 108.1 56.4 108.7 56.2 109.1 55.8 C 109.5 55.5 109.7 55 109.7 54.5 C 109.7 54.5 109.7 54.3 109.7 54.3 C 109.7 53.8 109.5 53.3 109.1 52.9 C 108.7 52.6 108.1 52.4 107.4 52.4 C 106.7 52.4 106.2 52.6 105.7 52.9 C 105.3 53.3 105.1 53.8 105.1 54.3 C 105.1 54.3 105.1 54.5 105.1 54.5 Z M 105.6 58.5 L 106.8 58.5 L 106.8 62.1 L 115.8 62.1 L 115.8 63.1 L 105.6 63.1 L 105.6 58.5 Z M 136 52.5 L 136 46.5 L 137.2 46.5 L 137.2 62.7 L 136 62.7 L 136 53.5 L 133.6 53.5 L 133.6 62.1 L 132.5 62.1 L 132.5 46.7 L 133.6 46.7 L 133.6 52.5 L 136 52.5 Z M 125.8 56.8 C 126.6 56.8 127.4 56.7 128.4 56.6 C 129.4 56.5 130.4 56.4 131.3 56.2 C 131.3 56.2 131.5 57.2 131.5 57.2 C 130.4 57.4 129.2 57.5 128.1 57.6 C 126.9 57.7 125.7 57.8 124.3 57.8 C 124.33 57.79 124.3 48 124.3 48 L 125.5 48 L 125.5 56.8 C 125.5 56.8 125.84 56.78 125.8 56.8 Z M 152.1 53.1 L 155.1 53.1 L 155.1 54.1 L 152.1 54.1 L 152.1 62.7 L 150.9 62.7 L 150.9 46.5 L 152.1 46.5 L 152.1 53.1 Z M 147 48.3 C 147 48.3 144.95 48.32 145 48.3 C 144.3 48.3 143.7 48.3 143.1 48.2 C 142.6 48.2 142.2 48.1 141.8 48 C 141.8 48 141.8 47 141.8 47 C 142.5 47.2 143.5 47.3 145 47.3 C 144.95 47.33 147 47.3 147 47.3 L 147 48.3 Z M 145 52.3 C 145 53.2 145.4 54 146.1 55 C 146.9 55.9 147.9 56.8 149.2 57.6 C 149.2 57.6 148.6 58.5 148.6 58.5 C 146.7 57.3 145.3 55.9 144.4 54.4 C 144 55.2 143.4 56 142.6 56.8 C 141.9 57.5 141.1 58.2 140.2 58.7 C 140.2 58.7 139.6 57.8 139.6 57.8 C 140.4 57.4 141.1 56.8 141.7 56.1 C 142.4 55.5 142.9 54.8 143.2 54.2 C 143.6 53.5 143.8 52.9 143.8 52.3 C 143.8 52.34 143.8 50.9 143.8 50.9 L 140.1 50.9 L 140.1 49.9 L 148.6 49.9 L 148.6 50.9 L 145 50.9 C 145 50.9 144.99 52.3 145 52.3 Z M 172.8 52.6 L 175.8 52.6 L 175.8 53.6 L 172.8 53.6 L 172.8 62.7 L 171.6 62.7 L 171.6 46.5 L 172.8 46.5 L 172.8 52.6 Z M 165.6 52 C 165.6 52.9 166 53.8 166.8 54.8 C 167.6 55.8 168.6 56.7 169.8 57.4 C 169.8 57.4 169.2 58.4 169.2 58.4 C 167.3 57.1 165.9 55.7 165 54.2 C 164.6 55 164 55.9 163.2 56.7 C 162.5 57.5 161.7 58.1 160.9 58.7 C 160.9 58.7 160.2 57.8 160.2 57.8 C 161 57.3 161.7 56.7 162.4 56 C 163 55.4 163.5 54.7 163.9 54 C 164.3 53.3 164.4 52.6 164.4 52.1 C 164.45 52.07 164.4 48 164.4 48 L 165.6 48 C 165.6 48 165.63 52.03 165.6 52 Z M 187.1 54.9 L 191.6 54.9 L 191.6 56 L 176.1 56 L 176.1 54.9 L 180.6 54.9 C 180.6 54.9 180.65 52.55 180.6 52.6 C 180.1 52.3 179.7 52 179.5 51.5 C 179.2 51.1 179 50.7 179 50.2 C 179 50.2 179 50 179 50 C 179 49.4 179.2 48.9 179.6 48.4 C 180 48 180.6 47.6 181.3 47.3 C 182 47.1 182.9 47 183.9 47 C 184.9 47 185.7 47.1 186.5 47.3 C 187.2 47.6 187.7 48 188.1 48.4 C 188.5 48.9 188.7 49.4 188.7 50 C 188.7 50 188.7 50.2 188.7 50.2 C 188.7 50.7 188.6 51.2 188.3 51.6 C 188 52 187.6 52.3 187.1 52.6 C 187.05 52.59 187.1 54.9 187.1 54.9 Z M 180.2 50.1 C 180.2 50.8 180.6 51.3 181.2 51.7 C 181.8 52.1 182.7 52.2 183.9 52.2 C 185 52.2 185.9 52.1 186.5 51.7 C 187.2 51.3 187.5 50.8 187.5 50.1 C 187.5 50.1 187.5 50 187.5 50 C 187.5 49.4 187.2 48.9 186.5 48.5 C 185.9 48.1 185 47.9 183.9 47.9 C 182.7 47.9 181.9 48.1 181.2 48.5 C 180.6 48.9 180.2 49.4 180.2 50 C 180.2 50 180.2 50.1 180.2 50.1 Z M 181.8 54.9 L 185.9 54.9 C 185.9 54.9 185.87 53 185.9 53 C 185.3 53.1 184.6 53.2 183.9 53.2 C 183.1 53.2 182.4 53.1 181.8 53 C 181.83 52.98 181.8 54.9 181.8 54.9 Z M 183.9 57 C 185.4 57 186.6 57.3 187.5 57.9 C 188.3 58.4 188.8 59.2 188.8 60.1 C 188.8 60.1 188.8 60.3 188.8 60.3 C 188.8 61.2 188.4 62 187.5 62.5 C 186.6 63.1 185.4 63.4 183.9 63.4 C 182.3 63.4 181.1 63.1 180.3 62.5 C 179.4 62 179 61.2 179 60.3 C 179 60.3 179 60.1 179 60.1 C 179 59.2 179.4 58.4 180.3 57.9 C 181.1 57.3 182.3 57 183.9 57 C 183.9 57 183.9 57 183.9 57 Z M 187.6 60.1 C 187.6 59.5 187.3 59 186.6 58.6 C 186 58.2 185.1 58 183.9 58 C 182.7 58 181.7 58.2 181.1 58.6 C 180.4 59 180.1 59.5 180.1 60.1 C 180.1 60.1 180.1 60.3 180.1 60.3 C 180.1 60.9 180.4 61.4 181.1 61.8 C 181.7 62.2 182.7 62.4 183.9 62.4 C 185.1 62.4 186 62.2 186.6 61.8 C 187.3 61.4 187.6 60.9 187.6 60.3 C 187.6 60.3 187.6 60.1 187.6 60.1 Z M 205.7 55.8 L 204.5 55.8 L 204.5 51 L 200.8 51 L 200.8 50 L 204.5 50 L 204.5 46.5 L 205.7 46.5 L 205.7 55.8 Z M 201.4 55.1 C 199.5 54.1 198.2 53 197.3 51.7 C 196.9 52.4 196.3 53.1 195.6 53.8 C 194.9 54.5 194.1 55.1 193.2 55.6 C 193.2 55.6 192.6 54.7 192.6 54.7 C 193.9 53.9 194.8 53.1 195.6 52.2 C 196.3 51.4 196.7 50.5 196.7 49.6 C 196.7 49.58 196.7 47.2 196.7 47.2 L 197.9 47.2 C 197.9 47.2 197.89 49.55 197.9 49.5 C 197.9 50.4 198.3 51.2 199 52 C 199.7 52.8 200.7 53.5 201.9 54.2 C 201.9 54.2 201.4 55.1 201.4 55.1 Z M 197.4 60.5 L 197.4 62.4 L 206.2 62.4 L 206.2 63.4 L 196.2 63.4 L 196.2 59.5 L 204.5 59.5 L 204.5 57.7 L 196.2 57.7 L 196.2 56.7 L 205.7 56.7 L 205.7 60.5 L 197.4 60.5 Z M 221.9 56.9 L 220.7 56.9 L 220.7 53.8 L 217.3 53.8 L 217.3 52.8 L 220.7 52.8 L 220.7 50.2 L 217.3 50.2 L 217.3 49.2 L 220.7 49.2 L 220.7 46.5 L 221.9 46.5 L 221.9 56.9 Z M 209.7 47.7 L 216.4 47.7 L 216.4 55.1 L 209.7 55.1 L 209.7 47.7 Z M 210.9 54.1 L 215.2 54.1 L 215.2 48.7 L 210.9 48.7 L 210.9 54.1 Z M 217.2 57 C 218.7 57 219.9 57.3 220.8 57.9 C 221.6 58.4 222.1 59.2 222.1 60.1 C 222.1 60.1 222.1 60.3 222.1 60.3 C 222.1 61.2 221.7 62 220.8 62.5 C 219.9 63.1 218.7 63.4 217.2 63.4 C 215.6 63.4 214.4 63.1 213.6 62.5 C 212.7 62 212.3 61.2 212.3 60.3 C 212.3 60.3 212.3 60.1 212.3 60.1 C 212.3 59.2 212.7 58.4 213.6 57.9 C 214.4 57.3 215.6 57 217.2 57 C 217.2 57 217.2 57 217.2 57 Z M 220.9 60.1 C 220.9 59.5 220.6 59 219.9 58.6 C 219.3 58.2 218.4 58 217.2 58 C 216 58 215 58.2 214.4 58.6 C 213.7 59 213.4 59.5 213.4 60.1 C 213.4 60.1 213.4 60.3 213.4 60.3 C 213.4 60.9 213.7 61.4 214.4 61.8 C 215 62.2 216 62.4 217.2 62.4 C 218.4 62.4 219.3 62.2 219.9 61.8 C 220.6 61.4 220.9 60.9 220.9 60.3 C 220.9 60.3 220.9 60.1 220.9 60.1 Z M 236.9 52 L 236.9 46.5 L 238.1 46.5 L 238.1 62.7 L 236.9 62.7 L 236.9 53 L 232.9 53 L 232.9 52 L 236.9 52 Z M 230.3 52 C 230.3 52.9 230.7 53.8 231.4 54.8 C 232.2 55.8 233.2 56.7 234.4 57.4 C 234.4 57.4 233.7 58.3 233.7 58.3 C 232 57.1 230.6 55.7 229.7 54.2 C 229.3 55 228.7 55.9 228 56.6 C 227.2 57.4 226.5 58.1 225.7 58.7 C 225.7 58.7 225 57.8 225 57.8 C 225.8 57.3 226.5 56.7 227.1 56 C 227.7 55.3 228.2 54.7 228.6 54 C 228.9 53.3 229.1 52.6 229.1 52 C 229.12 52.05 229.1 48 229.1 48 L 230.3 48 C 230.3 48 230.31 52.01 230.3 52 Z M 242.1 62.9 L 241 62.9 L 241.8 58.8 L 243.5 58.8 L 242.1 62.9 Z M 251.4 61 L 250.1 61 L 250.1 47.3 L 251.4 47.3 L 251.4 53.6 L 258 47.3 L 259.7 47.3 L 252.8 54 L 259.9 61 L 258.1 61 L 251.4 54.4 L 251.4 61 Z M 262.4 49.4 L 261.2 49.4 L 261.2 47.7 L 262.4 47.7 L 262.4 49.4 Z M 262.4 61 L 261.2 61 L 261.2 51.1 L 262.4 51.1 L 262.4 61 Z M 264.2 58.4 C 264.2 57.8 264.4 57.3 264.7 56.8 C 264.9 56.4 265.3 56.1 265.9 55.9 C 266.4 55.7 267.2 55.5 268.3 55.3 C 268.3 55.3 270.9 54.7 270.9 54.7 C 270.9 53.8 270.7 53.1 270.3 52.6 C 269.9 52.1 269.2 51.9 268.2 51.9 C 267.5 51.9 266.9 52 266.4 52.3 C 265.8 52.6 265.3 53 264.9 53.4 C 264.9 53.4 264.9 52.2 264.9 52.2 C 265.3 51.8 265.8 51.5 266.4 51.2 C 267 51 267.6 50.9 268.2 50.9 C 269.5 50.9 270.4 51.2 271.1 51.8 C 271.8 52.4 272.1 53.3 272.1 54.5 C 272.14 54.46 272.1 61 272.1 61 L 271.2 61 C 271.2 61 270.93 59.27 270.9 59.3 C 270.5 59.9 269.9 60.3 269.3 60.7 C 268.6 61.1 267.9 61.2 267.1 61.2 C 266.2 61.2 265.5 61 265 60.5 C 264.5 60 264.2 59.3 264.2 58.4 C 264.2 58.4 264.2 58.4 264.2 58.4 Z M 265.4 58.4 C 265.4 59 265.6 59.5 266 59.8 C 266.3 60.1 266.8 60.2 267.4 60.2 C 268 60.2 268.6 60 269.3 59.6 C 270 59.2 270.5 58.6 270.9 57.9 C 270.93 57.9 270.9 55.7 270.9 55.7 L 269.1 56.1 C 269.1 56.1 268.68 56.17 268.7 56.2 C 267.9 56.3 267.3 56.5 266.8 56.6 C 266.3 56.8 266 57 265.8 57.3 C 265.6 57.6 265.4 57.9 265.4 58.4 C 265.4 58.4 265.4 58.4 265.4 58.4 Z M 280.4 61 L 279.2 61 L 279.2 47.3 L 280.4 47.3 L 280.4 53.4 L 288.4 53.4 L 288.4 47.3 L 289.7 47.3 L 289.7 61 L 288.4 61 L 288.4 54.5 L 280.4 54.5 L 280.4 61 Z M 292 55.9 C 292 54.9 292.1 54 292.5 53.2 C 292.9 52.5 293.4 51.9 294.1 51.5 C 294.8 51.1 295.5 50.9 296.4 50.9 C 297.3 50.9 298.1 51.1 298.7 51.5 C 299.4 51.9 299.9 52.5 300.3 53.2 C 300.7 54 300.8 54.9 300.8 55.9 C 300.8 55.9 300.8 56.2 300.8 56.2 C 300.8 57.2 300.7 58.1 300.3 58.9 C 299.9 59.6 299.4 60.2 298.7 60.6 C 298.1 61 297.3 61.2 296.4 61.2 C 295.5 61.2 294.8 61 294.1 60.6 C 293.4 60.2 292.9 59.6 292.5 58.9 C 292.1 58.1 292 57.2 292 56.2 C 292 56.2 292 55.9 292 55.9 Z M 293.2 56.2 C 293.2 57.5 293.5 58.4 294.1 59.1 C 294.6 59.9 295.4 60.2 296.4 60.2 C 297.4 60.2 298.2 59.9 298.7 59.1 C 299.3 58.4 299.6 57.5 299.6 56.2 C 299.6 56.2 299.6 55.9 299.6 55.9 C 299.6 54.7 299.3 53.7 298.7 52.9 C 298.1 52.2 297.4 51.9 296.4 51.9 C 295.4 51.9 294.7 52.2 294.1 52.9 C 293.5 53.7 293.2 54.7 293.2 55.9 C 293.2 55.9 293.2 56.2 293.2 56.2 Z M 304.1 61 L 301.3 51.1 L 302.6 51.1 L 304.9 59.7 L 307.2 51.1 L 308.8 51.1 L 311.1 59.6 L 313.4 51.1 L 314.6 51.1 L 311.8 61 L 310.2 61 L 307.9 52.5 L 305.7 61 L 304.1 61 Z M 320.4 55.4 L 315.3 55.4 L 315.3 54.2 L 320.4 54.2 L 320.4 55.4 Z M 323.2 52.2 L 321 52.2 L 321 51.1 L 323.2 51.1 L 323.2 48.1 L 324.4 48.1 L 324.4 51.1 L 326.6 51.1 L 326.6 52.2 L 324.4 52.2 L 324.4 61 L 323.2 61 L 323.2 52.2 Z M 327.1 55.9 C 327.1 54.9 327.2 54 327.6 53.2 C 328 52.5 328.5 51.9 329.2 51.5 C 329.9 51.1 330.6 50.9 331.5 50.9 C 332.4 50.9 333.2 51.1 333.8 51.5 C 334.5 51.9 335 52.5 335.4 53.2 C 335.8 54 335.9 54.9 335.9 55.9 C 335.9 55.9 335.9 56.2 335.9 56.2 C 335.9 57.2 335.8 58.1 335.4 58.9 C 335 59.6 334.5 60.2 333.8 60.6 C 333.2 61 332.4 61.2 331.5 61.2 C 330.6 61.2 329.9 61 329.2 60.6 C 328.5 60.2 328 59.6 327.6 58.9 C 327.2 58.1 327.1 57.2 327.1 56.2 C 327.1 56.2 327.1 55.9 327.1 55.9 Z M 328.3 56.2 C 328.3 57.5 328.6 58.4 329.2 59.1 C 329.7 59.9 330.5 60.2 331.5 60.2 C 332.5 60.2 333.3 59.9 333.8 59.1 C 334.4 58.4 334.7 57.5 334.7 56.2 C 334.7 56.2 334.7 55.9 334.7 55.9 C 334.7 54.7 334.4 53.7 333.8 52.9 C 333.2 52.2 332.5 51.9 331.5 51.9 C 330.5 51.9 329.8 52.2 329.2 52.9 C 328.6 53.7 328.3 54.7 328.3 55.9 C 328.3 55.9 328.3 56.2 328.3 56.2 Z M 339.1 61 L 337.4 61 L 337.4 58.9 L 339.1 58.9 L 339.1 61 Z " stroke="none" fill="#c7c8ca"/>
  </g>
  <g id="Polygon627158">
    <path d="M 6.5 25.2 L 2.5 25.2 L 2.5 2.4 L 6.5 2.4 L 6.5 12.3 L 16.2 2.4 L 21.3 2.4 L 10.2 13.5 L 21.8 25.2 L 16 25.2 L 6.5 15.2 L 6.5 25.2 Z M 27.5 6.4 L 23.6 6.4 L 23.6 2.3 L 27.5 2.3 L 27.5 6.4 Z M 27.5 25.2 L 23.6 25.2 L 23.6 8.9 L 27.5 8.9 L 27.5 25.2 Z M 30.1 20.6 C 30.1 19.4 30.4 18.4 31.1 17.5 C 31.7 16.8 32.5 16.3 33.5 15.9 C 34.5 15.5 35.7 15.3 37.1 15 C 37.1 15 40.5 14.5 40.5 14.5 C 40.3 12.4 39 11.3 36.6 11.3 C 35.6 11.3 34.7 11.5 33.8 12 C 32.9 12.5 32.2 13.2 31.6 14 C 31.6 14 31.6 10.3 31.6 10.3 C 33.1 9 35.1 8.4 37.4 8.4 C 39.5 8.4 41.2 9 42.5 10.1 C 43.8 11.2 44.4 12.9 44.4 15.2 C 44.43 15.18 44.4 25.2 44.4 25.2 L 41.2 25.2 C 41.2 25.2 40.83 23.34 40.8 23.3 C 40 24.1 39.2 24.7 38.3 25.1 C 37.4 25.5 36.4 25.7 35.3 25.7 C 33.7 25.7 32.4 25.2 31.5 24.3 C 30.5 23.4 30.1 22.2 30.1 20.6 C 30.1 20.6 30.1 20.6 30.1 20.6 Z M 33.9 20.5 C 33.9 21.1 34.1 21.6 34.5 22 C 34.9 22.4 35.4 22.6 36.1 22.6 C 37 22.6 37.9 22.3 38.8 21.7 C 39.6 21.1 40.2 20.4 40.6 19.5 C 40.62 19.5 40.6 17.2 40.6 17.2 C 40.6 17.2 38.67 17.55 38.7 17.6 C 37.3 17.8 36.3 18 35.8 18.2 C 35.2 18.5 34.8 18.7 34.5 19 C 34.1 19.4 33.9 19.9 33.9 20.5 C 33.9 20.5 33.9 20.5 33.9 20.5 Z M 59.5 25.2 L 55.4 25.2 L 55.4 2.4 L 59.5 2.4 L 59.5 11.8 L 71 11.8 L 71 2.4 L 75.1 2.4 L 75.1 25.2 L 71 25.2 L 71 15.1 L 59.5 15.1 L 59.5 25.2 Z M 77.8 16.8 C 77.8 15.2 78.2 13.8 78.9 12.5 C 79.6 11.2 80.6 10.2 81.9 9.5 C 83.1 8.8 84.5 8.4 86.1 8.4 C 87.6 8.4 89 8.8 90.3 9.5 C 91.5 10.2 92.5 11.2 93.2 12.5 C 93.9 13.8 94.3 15.2 94.3 16.8 C 94.3 16.8 94.3 17.3 94.3 17.3 C 94.3 18.9 93.9 20.3 93.2 21.6 C 92.5 22.9 91.5 23.9 90.3 24.6 C 89 25.3 87.6 25.7 86.1 25.7 C 84.5 25.7 83.1 25.3 81.9 24.6 C 80.6 23.9 79.6 22.9 78.9 21.6 C 78.2 20.3 77.8 18.9 77.8 17.3 C 77.8 17.3 77.8 16.8 77.8 16.8 Z M 81.9 17.3 C 81.9 18.8 82.2 20.1 83 21.2 C 83.7 22.2 84.7 22.7 86.1 22.7 C 87.4 22.7 88.4 22.2 89.2 21.2 C 89.9 20.1 90.3 18.8 90.3 17.3 C 90.3 17.3 90.3 16.8 90.3 16.8 C 90.3 15.2 89.9 13.9 89.2 12.9 C 88.4 11.9 87.4 11.4 86.1 11.4 C 84.7 11.4 83.7 11.9 83 12.9 C 82.2 13.9 81.9 15.2 81.9 16.8 C 81.9 16.8 81.9 17.3 81.9 17.3 Z M 99.5 25.3 L 94.7 8.9 L 98.6 8.9 L 101.8 20.7 L 105 8.9 L 109.6 8.9 L 112.9 20.8 L 116.1 8.9 L 119.5 8.9 L 114.8 25.2 L 110.5 25.2 L 107.2 12.8 L 103.9 25.2 L 99.5 25.3 Z M 130.5 11.8 L 127 11.8 L 127 8.9 L 130.5 8.9 L 130.5 3.9 L 134.4 3.9 L 134.4 8.9 L 138 8.9 L 138 11.8 L 134.4 11.8 L 134.4 25.2 L 130.5 25.2 L 130.5 11.8 Z M 138.6 16.8 C 138.6 15.2 139 13.8 139.7 12.5 C 140.4 11.2 141.4 10.2 142.6 9.5 C 143.9 8.8 145.3 8.4 146.8 8.4 C 148.4 8.4 149.8 8.8 151 9.5 C 152.3 10.2 153.3 11.2 154 12.5 C 154.7 13.8 155 15.2 155 16.8 C 155 16.8 155 17.3 155 17.3 C 155 18.9 154.7 20.3 154 21.6 C 153.3 22.9 152.3 23.9 151 24.6 C 149.8 25.3 148.4 25.7 146.8 25.7 C 145.3 25.7 143.9 25.3 142.6 24.6 C 141.4 23.9 140.4 22.9 139.7 21.6 C 139 20.3 138.6 18.9 138.6 17.3 C 138.6 17.3 138.6 16.8 138.6 16.8 Z M 142.6 17.3 C 142.6 18.8 143 20.1 143.7 21.2 C 144.5 22.2 145.5 22.7 146.8 22.7 C 148.1 22.7 149.2 22.2 149.9 21.2 C 150.6 20.1 151 18.8 151 17.3 C 151 17.3 151 16.8 151 16.8 C 151 15.2 150.6 13.9 149.9 12.9 C 149.2 11.9 148.1 11.4 146.8 11.4 C 145.5 11.4 144.5 11.9 143.7 12.9 C 143 13.9 142.6 15.2 142.6 16.8 C 142.6 16.8 142.6 17.3 142.6 17.3 Z " stroke="none" fill="#fff"/>
  </g>
</svg>