<?xml version="1.0" standalone="no"?>
<!DOCTYPE svg PUBLIC "-//W3C//DTD SVG 1.1//EN" "http://www.w3.org/Graphics/SVG/1.1/DTD/svg11.dtd">
<svg xmlns="http://www.w3.org/2000/svg" version="1.1" width="105px" height="56.5px" viewBox="0 -1 105 56.5" style="top:-1px">
  <desc>기타</desc>
  <defs/>
  <g id="Polygon628184">
    <path d="M 15.3 33.1 L 13 33.1 L 13 15.9 L 15.3 15.9 L 15.3 33.1 Z M 1.5 27.7 C 3.8 26.8 5.4 25.7 6.3 24.6 C 7.3 23.4 7.8 22 7.8 20.4 C 7.75 20.42 7.8 19.5 7.8 19.5 L 2.2 19.5 L 2.2 17.6 L 10.1 17.6 C 10.1 17.6 10.05 20.31 10.1 20.3 C 10.1 22.3 9.5 24 8.3 25.5 C 7.1 27 5.1 28.4 2.5 29.6 C 2.5 29.6 1.5 27.7 1.5 27.7 Z M 31.9 22 L 34.7 22 L 34.7 23.8 L 31.9 23.8 L 31.9 33.1 L 29.5 33.1 L 29.5 15.9 L 31.9 15.9 L 31.9 22 Z M 21.2 26.2 C 23.4 26.2 25.7 25.9 28.1 25.4 C 28.1 25.4 28.4 27.2 28.4 27.2 C 26.9 27.5 25.4 27.7 24.1 27.9 C 22.7 28 21.2 28.1 19.6 28.1 C 19.59 28.06 18.8 28.1 18.8 28.1 L 18.8 17.6 L 26.9 17.6 L 26.9 19.4 L 21.1 19.4 L 21.1 21.7 L 26.5 21.7 L 26.5 23.5 L 21.1 23.5 L 21.1 26.2 C 21.1 26.2 21.2 26.16 21.2 26.2 Z " stroke="none" fill="#fff"/>
  </g>
</svg>