<?xml version="1.0" standalone="no"?>
<!DOCTYPE svg PUBLIC "-//W3C//DTD SVG 1.1//EN" "http://www.w3.org/Graphics/SVG/1.1/DTD/svg11.dtd">
<svg xmlns="http://www.w3.org/2000/svg" version="1.1" width="141px" height="31.5px" viewBox="0 -1 141 31.5" style="top:-1px">
  <desc>스티어링 휠 그립 감지</desc>
  <defs/>
  <g id="Polygon627929">
    <path d="M 1.6 13 C 2.3 12.8 3 12.4 3.7 12 C 4.4 11.5 5 11 5.4 10.5 C 5.8 10 6.1 9.5 6.1 9.1 C 6.06 9.06 6.1 6.9 6.1 6.9 L 7.9 6.9 C 7.9 6.9 7.89 9.06 7.9 9.1 C 7.9 9.5 8.1 9.9 8.5 10.4 C 9 10.9 9.5 11.4 10.2 11.8 C 10.9 12.2 11.6 12.6 12.4 12.8 C 12.4 12.8 11.8 14.2 11.8 14.2 C 10.8 13.9 9.9 13.5 9.1 13 C 8.3 12.5 7.6 11.9 7 11.3 C 6.4 11.9 5.7 12.5 4.9 13.1 C 4 13.7 3.1 14.1 2.2 14.4 C 2.2 14.4 1.6 13 1.6 13 Z M 0.5 16.9 L 13.4 16.9 L 13.4 18.4 L 0.5 18.4 L 0.5 16.9 Z M 23.8 19.4 L 23.8 5.8 L 25.6 5.8 L 25.6 19.4 L 23.8 19.4 Z M 16.9 13.9 C 18.6 13.9 20.3 13.7 22.2 13.3 C 22.2 13.3 22.5 14.8 22.5 14.8 C 21.2 15 20.1 15.2 19.1 15.3 C 18 15.4 16.9 15.4 15.6 15.4 C 15.61 15.42 15 15.4 15 15.4 L 15 7.1 L 21.2 7.1 L 21.2 8.6 L 16.8 8.6 L 16.8 10.4 L 20.9 10.4 L 20.9 11.8 L 16.8 11.8 L 16.8 13.9 C 16.8 13.9 16.9 13.92 16.9 13.9 Z M 37.3 10.5 L 37.3 5.8 L 39.1 5.8 L 39.1 19.4 L 37.3 19.4 L 37.3 12 L 35.3 12 L 35.3 10.5 L 37.3 10.5 Z M 31.2 6.7 C 32 6.7 32.6 6.9 33.1 7.3 C 33.6 7.6 34 8.1 34.3 8.8 C 34.6 9.5 34.7 10.2 34.7 11.1 C 34.7 11.1 34.7 11.4 34.7 11.4 C 34.7 12.3 34.6 13.1 34.3 13.7 C 34 14.4 33.6 14.9 33.1 15.3 C 32.6 15.7 32 15.8 31.2 15.8 C 30.5 15.8 29.9 15.7 29.4 15.3 C 28.9 14.9 28.5 14.4 28.2 13.7 C 27.9 13.1 27.7 12.3 27.7 11.4 C 27.7 11.4 27.7 11.1 27.7 11.1 C 27.7 10.2 27.9 9.5 28.2 8.8 C 28.5 8.1 28.9 7.6 29.4 7.3 C 29.9 6.9 30.5 6.7 31.2 6.7 C 31.2 6.7 31.2 6.7 31.2 6.7 Z M 33 11.1 C 33 10.2 32.8 9.5 32.5 9 C 32.2 8.5 31.8 8.2 31.2 8.2 C 30.7 8.2 30.3 8.5 30 9 C 29.6 9.5 29.5 10.2 29.5 11.1 C 29.5 11.1 29.5 11.4 29.5 11.4 C 29.5 12.3 29.6 13.1 30 13.6 C 30.3 14.1 30.7 14.4 31.2 14.4 C 31.8 14.4 32.2 14.1 32.5 13.6 C 32.8 13.1 33 12.3 33 11.4 C 33 11.4 33 11.1 33 11.1 Z M 52.6 14.4 L 50.8 14.4 L 50.8 5.8 L 52.6 5.8 L 52.6 14.4 Z M 42 9.4 L 46 9.4 L 46 8.1 L 42 8.1 L 42 6.7 L 47.9 6.7 L 47.9 10.8 L 43.8 10.8 L 43.8 12.2 C 43.8 12.2 43.9 12.18 43.9 12.2 C 44.6 12.2 45.4 12.1 46.3 12 C 47.2 12 48 11.8 48.9 11.7 C 48.9 11.7 49.1 13 49.1 13 C 48 13.3 46.9 13.4 45.8 13.5 C 44.7 13.6 43.4 13.6 42 13.6 C 41.98 13.63 42 9.4 42 9.4 Z M 48.3 20 C 47.4 20 46.6 19.9 46 19.7 C 45.3 19.4 44.8 19.1 44.5 18.7 C 44.1 18.3 43.9 17.9 43.9 17.3 C 43.9 17.3 43.9 17.2 43.9 17.2 C 43.9 16.7 44.1 16.2 44.5 15.8 C 44.8 15.4 45.3 15.1 46 14.9 C 46.6 14.7 47.4 14.5 48.3 14.5 C 49.3 14.5 50.1 14.7 50.7 14.9 C 51.4 15.1 51.9 15.4 52.2 15.8 C 52.6 16.2 52.7 16.7 52.7 17.2 C 52.7 17.2 52.7 17.3 52.7 17.3 C 52.7 17.9 52.6 18.3 52.2 18.7 C 51.9 19.1 51.4 19.4 50.7 19.7 C 50.1 19.9 49.3 20 48.3 20 C 48.3 20 48.3 20 48.3 20 Z M 48.3 18.5 C 49.2 18.5 49.8 18.4 50.3 18.2 C 50.7 18 50.9 17.7 50.9 17.3 C 50.9 17.3 50.9 17.2 50.9 17.2 C 50.9 16.9 50.7 16.6 50.3 16.3 C 49.8 16.1 49.2 16 48.3 16 C 47.5 16 46.9 16.1 46.4 16.3 C 46 16.6 45.8 16.9 45.8 17.2 C 45.8 17.2 45.8 17.3 45.8 17.3 C 45.8 17.7 46 18 46.4 18.2 C 46.9 18.4 47.5 18.5 48.3 18.5 C 48.3 18.5 48.3 18.5 48.3 18.5 Z M 63.2 7.3 C 61.9 7.3 61 7.2 60.3 6.9 C 60.3 6.9 60.3 5.8 60.3 5.8 C 60.7 5.9 61.1 6 61.5 6 C 61.9 6.1 62.5 6.1 63.2 6.1 C 63.18 6.09 65 6.1 65 6.1 L 65 7.3 C 65 7.3 63.18 7.29 63.2 7.3 Z M 68 5.8 L 69.8 5.8 L 69.8 15 L 68 15 L 68 5.8 Z M 58.8 7.8 L 66.6 7.8 L 66.6 9 L 58.8 9 L 58.8 7.8 Z M 59.6 10.8 C 59.6 10.4 59.9 10 60.5 9.7 C 61 9.4 61.8 9.3 62.7 9.3 C 63.6 9.3 64.4 9.4 64.9 9.7 C 65.5 10 65.8 10.4 65.8 10.8 C 65.8 10.8 65.8 10.9 65.8 10.9 C 65.8 11.4 65.5 11.8 64.9 12.1 C 64.4 12.4 63.6 12.5 62.7 12.5 C 61.8 12.5 61 12.4 60.5 12.1 C 59.9 11.8 59.6 11.4 59.6 10.9 C 59.6 10.9 59.6 10.8 59.6 10.8 Z M 64.1 10.9 C 64.1 10.7 64 10.6 63.7 10.5 C 63.5 10.5 63.2 10.4 62.7 10.4 C 62.3 10.4 61.9 10.5 61.7 10.5 C 61.5 10.6 61.3 10.7 61.3 10.9 C 61.3 10.9 61.3 10.9 61.3 10.9 C 61.3 11.2 61.8 11.3 62.7 11.3 C 63.6 11.3 64.1 11.2 64.1 10.9 C 64.1 10.9 64.1 10.9 64.1 10.9 Z M 61.8 14.1 C 61.6 14.1 61.3 14.1 60.9 14.1 C 60.85 14.08 58.2 14.1 58.2 14.1 L 58.2 12.8 C 58.2 12.8 61.3 12.81 61.3 12.8 C 63.3 12.8 65.2 12.6 67 12.2 C 67 12.2 67.3 13.4 67.3 13.4 C 66 13.7 64.8 13.9 63.6 14 C 63.63 13.98 63.6 15.1 63.6 15.1 L 61.8 15.1 C 61.8 15.1 61.8 14.07 61.8 14.1 Z M 62.7 18.3 L 62.7 18.7 L 70.3 18.7 L 70.3 20 L 60.9 20 L 60.9 17.3 L 68 17.3 L 68 16.9 L 60.9 16.9 L 60.9 15.7 L 69.8 15.7 L 69.8 18.3 L 62.7 18.3 Z M 86.4 9.4 C 86.4 11.2 86.1 13.3 85.5 15.8 C 85.5 15.8 83.7 15.4 83.7 15.4 C 84.3 13.2 84.5 11.2 84.5 9.3 C 84.54 9.34 84.5 8.7 84.5 8.7 L 77.4 8.7 L 77.4 7.3 L 86.4 7.3 C 86.4 7.3 86.37 9.45 86.4 9.4 Z M 75.5 16.9 L 88.4 16.9 L 88.4 18.4 L 75.5 18.4 L 75.5 16.9 Z M 98.8 14 L 98.8 5.8 L 100.6 5.8 L 100.6 14 L 98.8 14 Z M 97.1 12.8 C 96.1 13 95 13.2 94 13.3 C 92.9 13.4 91.8 13.4 90.6 13.4 C 90.57 13.42 90 13.4 90 13.4 L 90 9.3 L 94 9.3 L 94 8.1 L 90 8.1 L 90 6.6 L 95.9 6.6 L 95.9 10.7 L 91.8 10.7 L 91.8 12 C 91.8 12 91.9 11.98 91.9 12 C 92.6 12 93.4 11.9 94.3 11.8 C 95.2 11.8 96 11.6 96.9 11.5 C 96.9 11.5 97.1 12.8 97.1 12.8 Z M 93.7 15.9 L 98.8 15.9 L 98.8 14.7 L 100.6 14.7 L 100.6 19.8 L 91.9 19.8 L 91.9 14.7 L 93.7 14.7 L 93.7 15.9 Z M 93.7 17.3 L 93.7 18.3 L 98.8 18.3 L 98.8 17.3 L 93.7 17.3 Z M 117.4 9.3 L 119.6 9.3 L 119.6 10.8 L 117.4 10.8 L 117.4 14.1 L 115.6 14.1 L 115.6 5.8 L 117.4 5.8 L 117.4 9.3 Z M 113.5 8.5 C 113.5 9.7 113 10.8 112 11.8 C 111 12.7 109.4 13.5 107.4 14.2 C 107.4 14.2 106.8 12.7 106.8 12.7 C 108.5 12.2 109.7 11.6 110.5 10.9 C 111.3 10.2 111.7 9.5 111.7 8.6 C 111.73 8.59 111.7 8.2 111.7 8.2 L 107.4 8.2 L 107.4 6.7 L 113.5 6.7 C 113.5 6.7 113.53 8.5 113.5 8.5 Z M 117.4 19.8 L 108.8 19.8 L 108.8 14.8 L 117.4 14.8 L 117.4 19.8 Z M 115.6 16.2 L 110.6 16.2 L 110.6 18.3 L 115.6 18.3 L 115.6 16.2 Z M 129.5 19.4 L 129.5 5.8 L 131.3 5.8 L 131.3 19.4 L 129.5 19.4 Z M 125.1 10.4 C 125.1 11 125.4 11.7 126 12.5 C 126.6 13.2 127.4 13.9 128.4 14.5 C 128.4 14.5 127.5 15.8 127.5 15.8 C 126.1 15 125 14 124.2 12.8 C 123.3 14.1 122.2 15.2 120.8 16.1 C 120.8 16.1 119.9 14.8 119.9 14.8 C 120.9 14.2 121.7 13.4 122.3 12.6 C 123 11.8 123.3 11.1 123.3 10.4 C 123.27 10.41 123.3 8.7 123.3 8.7 L 120.5 8.7 L 120.5 7.2 L 127.9 7.2 L 127.9 8.7 L 125.1 8.7 C 125.1 8.7 125.1 10.38 125.1 10.4 Z " stroke="none" fill="#fff"/>
  </g>
</svg>