<?xml version="1.0" standalone="no"?>
<!DOCTYPE svg PUBLIC "-//W3C//DTD SVG 1.1//EN" "http://www.w3.org/Graphics/SVG/1.1/DTD/svg11.dtd">
<svg xmlns="http://www.w3.org/2000/svg" version="1.1" width="141px" height="31.5px" viewBox="0 -1 141 31.5" style="top:-1px">
  <desc>주차 거리 경고</desc>
  <defs/>
  <g id="Polygon627980">
    <path d="M 1.8 11.2 C 2.6 11 3.3 10.7 3.9 10.4 C 4.6 10 5.1 9.7 5.5 9.3 C 5.9 8.9 6 8.5 6 8.2 C 6.05 8.19 2.7 8.2 2.7 8.2 L 2.7 6.7 L 11.3 6.7 L 11.3 8.2 C 11.3 8.2 7.9 8.19 7.9 8.2 C 7.9 8.5 8.1 8.9 8.5 9.2 C 8.8 9.6 9.3 9.9 10 10.3 C 10.6 10.6 11.3 10.8 12.1 11 C 12.1 11 11.6 12.4 11.6 12.4 C 10.6 12.2 9.8 11.9 9 11.5 C 8.2 11.1 7.5 10.6 7 10.1 C 6.4 10.6 5.8 11.1 5 11.6 C 4.2 12 3.3 12.3 2.4 12.6 C 2.4 12.6 1.8 11.2 1.8 11.2 Z M 0.5 13.4 L 13.4 13.4 L 13.4 14.9 L 7.9 14.9 L 7.9 19.6 L 6.1 19.6 L 6.1 14.9 L 0.5 14.9 L 0.5 13.4 Z M 25.1 11.1 L 27.4 11.1 L 27.4 12.5 L 25.1 12.5 L 25.1 19.4 L 23.3 19.4 L 23.3 5.8 L 25.1 5.8 L 25.1 11.1 Z M 18.9 7.8 C 18.2 7.8 17.6 7.8 17.2 7.7 C 16.7 7.7 16.2 7.6 15.9 7.4 C 15.9 7.4 15.9 6 15.9 6 C 16.2 6.1 16.6 6.2 17.1 6.3 C 17.5 6.3 18.1 6.3 18.9 6.3 C 18.87 6.33 20.7 6.3 20.7 6.3 L 20.7 7.8 C 20.7 7.8 18.87 7.8 18.9 7.8 Z M 19.2 10.5 C 19.2 11.2 19.5 11.9 20.1 12.6 C 20.7 13.3 21.6 14 22.6 14.7 C 22.6 14.7 21.7 16 21.7 16 C 20.3 15.1 19.2 14.1 18.3 12.9 C 17.5 14.2 16.3 15.3 14.9 16.2 C 14.9 16.2 14 14.9 14 14.9 C 15 14.3 15.8 13.6 16.4 12.8 C 17.1 11.9 17.4 11.2 17.4 10.5 C 17.41 10.51 17.4 10.2 17.4 10.2 L 14.6 10.2 L 14.6 8.7 L 22.1 8.7 L 22.1 10.2 L 19.2 10.2 C 19.2 10.2 19.24 10.48 19.2 10.5 Z M 41 10.8 L 41 5.8 L 42.8 5.8 L 42.8 19.4 L 41 19.4 L 41 12.3 L 38.2 12.3 L 38.2 10.8 L 41 10.8 Z M 32.1 8.6 L 32.1 7.2 L 38.1 7.2 C 38.1 7.2 38.14 9.3 38.1 9.3 C 38.1 10.9 37.7 12.2 36.8 13.4 C 35.8 14.6 34.4 15.6 32.3 16.6 C 32.3 16.6 31.6 15.1 31.6 15.1 C 32.7 14.6 33.7 14.1 34.4 13.5 C 35.1 12.9 35.6 12.3 35.9 11.6 C 36.2 11 36.3 10.2 36.3 9.4 C 36.33 9.39 36.3 8.6 36.3 8.6 L 32.1 8.6 Z M 56.3 19.4 L 54.5 19.4 L 54.5 5.8 L 56.3 5.8 L 56.3 19.4 Z M 45.7 10.5 L 49.9 10.5 L 49.9 8.6 L 45.7 8.6 L 45.7 7.1 L 51.8 7.1 L 51.8 12 L 47.6 12 L 47.6 14.1 C 47.6 14.1 47.64 14.14 47.6 14.1 C 49.3 14.1 51.2 13.9 53.1 13.5 C 53.1 13.5 53.4 15 53.4 15 C 52.1 15.2 51 15.4 49.9 15.5 C 48.8 15.6 47.7 15.6 46.4 15.6 C 46.36 15.63 45.7 15.6 45.7 15.6 L 45.7 10.5 Z M 68.7 11.1 L 71.8 11.1 L 71.8 9.5 L 69.4 9.5 L 69.4 8.1 L 71.8 8.1 L 71.8 5.8 L 73.6 5.8 L 73.6 14.4 L 71.8 14.4 L 71.8 12.5 L 68.7 12.5 L 68.7 11.1 Z M 69 8.7 C 69 11.2 67 13.1 63.1 14.5 C 63.1 14.5 62.5 13 62.5 13 C 64.1 12.5 65.3 11.9 66 11.2 C 66.8 10.4 67.2 9.7 67.2 8.8 C 67.15 8.77 67.2 8.3 67.2 8.3 L 63 8.3 L 63 6.8 L 69 6.8 C 69 6.8 68.95 8.68 69 8.7 Z M 69.3 14.4 C 70.3 14.4 71 14.5 71.7 14.7 C 72.4 15 72.9 15.3 73.2 15.7 C 73.6 16.1 73.7 16.6 73.7 17.1 C 73.7 17.1 73.7 17.3 73.7 17.3 C 73.7 17.8 73.6 18.3 73.2 18.7 C 72.9 19.1 72.4 19.4 71.7 19.6 C 71.1 19.9 70.3 20 69.3 20 C 68.4 20 67.6 19.9 67 19.6 C 66.3 19.4 65.8 19.1 65.5 18.7 C 65.1 18.3 64.9 17.8 64.9 17.3 C 64.9 17.3 64.9 17.1 64.9 17.1 C 64.9 16.6 65.1 16.1 65.5 15.7 C 65.8 15.3 66.3 15 67 14.7 C 67.6 14.5 68.4 14.4 69.3 14.4 C 69.3 14.4 69.3 14.4 69.3 14.4 Z M 71.9 17.1 C 71.9 16.8 71.7 16.5 71.3 16.2 C 70.8 16 70.2 15.9 69.3 15.9 C 68.5 15.9 67.9 16 67.4 16.2 C 67 16.5 66.8 16.8 66.8 17.1 C 66.8 17.1 66.8 17.2 66.8 17.2 C 66.8 17.6 67 17.9 67.4 18.2 C 67.9 18.4 68.5 18.5 69.3 18.5 C 70.2 18.5 70.8 18.4 71.3 18.2 C 71.7 17.9 71.9 17.6 71.9 17.2 C 71.9 17.2 71.9 17.1 71.9 17.1 Z M 84.5 8.6 L 77.5 8.6 L 77.5 7.1 L 86.3 7.1 C 86.3 7.1 86.34 9.27 86.3 9.3 C 86.3 11.1 86.1 13 85.6 14.8 C 85.6 14.8 83.8 14.4 83.8 14.4 C 84.3 12.9 84.5 11.1 84.5 9.2 C 84.51 9.18 84.5 8.6 84.5 8.6 Z M 81.9 11.8 L 81.9 16.9 L 88.4 16.9 L 88.4 18.4 L 75.5 18.4 L 75.5 16.9 L 80 16.9 L 80 11.8 L 81.9 11.8 Z " stroke="none" fill="#fff"/>
  </g>
</svg>