<?xml version="1.0" standalone="no"?>
<!DOCTYPE svg PUBLIC "-//W3C//DTD SVG 1.1//EN" "http://www.w3.org/Graphics/SVG/1.1/DTD/svg11.dtd">
<svg xmlns="http://www.w3.org/2000/svg" version="1.1" width="141px" height="31.5px" viewBox="0 -1 141 31.5" style="top:-1px">
  <desc>전조등</desc>
  <defs/>
  <g id="Polygon627620">
    <path d="M 7.5 10.9 L 7.5 9.4 L 10.3 9.4 L 10.3 5.8 L 12.1 5.8 L 12.1 16.1 L 10.3 16.1 L 10.3 10.9 L 7.5 10.9 Z M 7.8 13.9 C 6.4 13.2 5.4 12.3 4.6 11.2 C 3.8 12.4 2.8 13.4 1.5 14.1 C 1.5 14.1 0.6 12.8 0.6 12.8 C 1.5 12.3 2.3 11.7 2.9 11 C 3.4 10.2 3.7 9.5 3.7 8.8 C 3.73 8.83 3.7 8.3 3.7 8.3 L 1.3 8.3 L 1.3 6.8 L 8 6.8 L 8 8.3 L 5.5 8.3 C 5.5 8.3 5.55 8.8 5.5 8.8 C 5.5 9.5 5.8 10.1 6.4 10.8 C 6.9 11.4 7.7 12 8.6 12.6 C 8.6 12.6 7.8 13.9 7.8 13.9 Z M 5.3 15 L 5.3 18.2 L 12.6 18.2 L 12.6 19.6 L 3.5 19.6 L 3.5 15 L 5.3 15 Z M 15.2 12.7 C 16 12.4 16.7 12 17.4 11.6 C 18 11.2 18.6 10.7 18.9 10.2 C 19.3 9.8 19.5 9.3 19.5 8.9 C 19.53 8.94 19.5 8.4 19.5 8.4 L 16.2 8.4 L 16.2 6.9 L 24.8 6.9 L 24.8 8.4 L 21.4 8.4 C 21.4 8.4 21.39 8.94 21.4 8.9 C 21.4 9.3 21.6 9.8 22 10.2 C 22.4 10.6 22.9 11.1 23.5 11.5 C 24.2 11.9 24.9 12.2 25.8 12.5 C 25.8 12.5 25.2 13.9 25.2 13.9 C 24.2 13.6 23.3 13.2 22.5 12.7 C 21.7 12.2 21 11.6 20.5 11 C 20 11.6 19.3 12.2 18.5 12.7 C 17.7 13.3 16.8 13.8 15.8 14.1 C 15.8 14.1 15.2 12.7 15.2 12.7 Z M 21.4 13.6 L 21.4 16.9 L 26.9 16.9 L 26.9 18.4 L 14 18.4 L 14 16.9 L 19.6 16.9 L 19.6 13.6 L 21.4 13.6 Z M 31.4 9.9 L 38.7 9.9 L 38.7 11.4 L 29.6 11.4 L 29.6 6.5 L 38.4 6.5 L 38.4 8 L 31.4 8 L 31.4 9.9 Z M 27.5 13.9 L 27.5 12.4 L 40.4 12.4 L 40.4 13.9 L 27.5 13.9 Z M 34 14.7 C 34.9 14.7 35.7 14.8 36.3 15.1 C 37 15.3 37.5 15.6 37.8 16 C 38.2 16.4 38.3 16.8 38.3 17.3 C 38.3 17.3 38.3 17.5 38.3 17.5 C 38.3 18 38.2 18.5 37.8 18.9 C 37.5 19.2 37 19.5 36.3 19.8 C 35.7 20 34.9 20.1 34 20.1 C 33.1 20.1 32.3 20 31.6 19.8 C 31 19.5 30.5 19.2 30.1 18.9 C 29.8 18.5 29.6 18 29.6 17.5 C 29.6 17.5 29.6 17.3 29.6 17.3 C 29.6 16.8 29.8 16.4 30.1 16 C 30.5 15.6 31 15.3 31.6 15.1 C 32.3 14.8 33.1 14.7 34 14.7 C 34 14.7 34 14.7 34 14.7 Z M 36.5 17.4 C 36.5 17 36.3 16.7 35.9 16.5 C 35.4 16.3 34.8 16.2 34 16.2 C 33.2 16.2 32.5 16.3 32.1 16.5 C 31.6 16.7 31.4 17 31.4 17.4 C 31.4 17.4 31.4 17.5 31.4 17.5 C 31.4 17.8 31.6 18.1 32.1 18.3 C 32.5 18.5 33.2 18.6 34 18.6 C 34.8 18.6 35.4 18.5 35.9 18.3 C 36.3 18.1 36.5 17.8 36.5 17.5 C 36.5 17.5 36.5 17.4 36.5 17.4 Z " stroke="none" fill="#fff"/>
  </g>
</svg>