<?xml version="1.0" standalone="no"?>
<!DOCTYPE svg PUBLIC "-//W3C//DTD SVG 1.1//EN" "http://www.w3.org/Graphics/SVG/1.1/DTD/svg11.dtd">
<svg xmlns="http://www.w3.org/2000/svg" version="1.1" width="141px" height="31.5px" viewBox="0 -1 141 31.5" style="top:-1px">
  <desc>하이빔 보조</desc>
  <defs/>
  <g id="Polygon628082">
    <path d="M 11.6 11.2 L 13.9 11.2 L 13.9 12.7 L 11.6 12.7 L 11.6 19.4 L 9.8 19.4 L 9.8 5.8 L 11.6 5.8 L 11.6 11.2 Z M 5.4 7.8 C 4.7 7.8 4.1 7.8 3.7 7.7 C 3.2 7.7 2.7 7.6 2.4 7.4 C 2.4 7.4 2.4 6 2.4 6 C 2.7 6.1 3.1 6.2 3.6 6.3 C 4 6.3 4.6 6.3 5.4 6.3 C 5.37 6.33 7.2 6.3 7.2 6.3 L 7.2 7.8 C 7.2 7.8 5.37 7.8 5.4 7.8 Z M 9.1 10.1 L 0.8 10.1 L 0.8 8.6 L 9.1 8.6 L 9.1 10.1 Z M 4.9 10.6 C 5.5 10.6 6.1 10.8 6.6 11 C 7.1 11.2 7.4 11.6 7.7 12 C 8 12.4 8.1 12.8 8.1 13.3 C 8.1 13.3 8.1 13.5 8.1 13.5 C 8.1 14 8 14.5 7.7 14.9 C 7.4 15.3 7.1 15.6 6.6 15.9 C 6.1 16.1 5.5 16.2 4.9 16.2 C 4.3 16.2 3.8 16.1 3.3 15.9 C 2.8 15.6 2.4 15.3 2.2 14.9 C 1.9 14.5 1.7 14 1.7 13.5 C 1.7 13.5 1.7 13.3 1.7 13.3 C 1.7 12.8 1.9 12.4 2.2 12 C 2.4 11.6 2.8 11.2 3.3 11 C 3.8 10.8 4.3 10.6 4.9 10.6 C 4.9 10.6 4.9 10.6 4.9 10.6 Z M 6.4 13.4 C 6.4 13 6.3 12.7 6 12.4 C 5.7 12.2 5.4 12.1 4.9 12.1 C 4.5 12.1 4.1 12.2 3.9 12.4 C 3.6 12.7 3.5 13 3.5 13.4 C 3.5 13.4 3.5 13.5 3.5 13.5 C 3.5 13.9 3.6 14.2 3.9 14.4 C 4.1 14.7 4.5 14.8 4.9 14.8 C 5.4 14.8 5.7 14.7 6 14.4 C 6.3 14.2 6.4 13.9 6.4 13.5 C 6.4 13.5 6.4 13.4 6.4 13.4 Z M 25.6 19.4 L 23.8 19.4 L 23.8 5.8 L 25.6 5.8 L 25.6 19.4 Z M 18.3 15.9 C 17.5 15.9 16.9 15.7 16.3 15.3 C 15.8 14.9 15.3 14.4 15 13.8 C 14.7 13.1 14.6 12.3 14.6 11.4 C 14.6 11.4 14.6 11.1 14.6 11.1 C 14.6 10.3 14.7 9.5 15 8.8 C 15.3 8.1 15.8 7.6 16.3 7.3 C 16.9 6.9 17.5 6.7 18.3 6.7 C 19 6.7 19.7 6.9 20.2 7.3 C 20.8 7.6 21.2 8.1 21.5 8.8 C 21.8 9.5 22 10.3 22 11.1 C 22 11.1 22 11.4 22 11.4 C 22 12.3 21.8 13.1 21.5 13.8 C 21.2 14.4 20.8 14.9 20.2 15.3 C 19.7 15.7 19 15.9 18.3 15.9 C 18.3 15.9 18.3 15.9 18.3 15.9 Z M 18.3 14.4 C 18.9 14.4 19.4 14.1 19.7 13.6 C 20 13.1 20.2 12.3 20.2 11.4 C 20.2 11.4 20.2 11.1 20.2 11.1 C 20.2 10.2 20 9.5 19.7 9 C 19.4 8.4 18.9 8.2 18.3 8.2 C 17.7 8.2 17.2 8.4 16.8 9 C 16.5 9.5 16.3 10.2 16.3 11.1 C 16.3 11.1 16.3 11.4 16.3 11.4 C 16.3 12.3 16.5 13.1 16.8 13.6 C 17.2 14.1 17.7 14.4 18.3 14.4 C 18.3 14.4 18.3 14.4 18.3 14.4 Z M 37.3 14 L 37.3 5.8 L 39.1 5.8 L 39.1 14 L 37.3 14 Z M 32.8 6.6 L 34.6 6.6 L 34.6 13.2 L 28.5 13.2 L 28.5 6.6 L 30.3 6.6 L 30.3 8.5 L 32.8 8.5 L 32.8 6.6 Z M 30.3 9.9 L 30.3 11.8 L 32.8 11.8 L 32.8 9.9 L 30.3 9.9 Z M 39.1 19.8 L 30.5 19.8 L 30.5 14.8 L 39.1 14.8 L 39.1 19.8 Z M 37.3 16.2 L 32.3 16.2 L 32.3 18.3 L 37.3 18.3 L 37.3 16.2 Z M 53.8 6.6 L 55.6 6.6 L 55.6 13.6 L 46.8 13.6 L 46.8 6.6 L 48.6 6.6 L 48.6 8.8 L 53.8 8.8 L 53.8 6.6 Z M 48.6 10.2 L 48.6 12.1 L 53.8 12.1 L 53.8 10.2 L 48.6 10.2 Z M 52.2 14.2 L 52.2 16.9 L 57.7 16.9 L 57.7 18.4 L 44.8 18.4 L 44.8 16.9 L 50.3 16.9 L 50.3 14.2 L 52.2 14.2 Z M 59.4 12.7 C 60.2 12.4 60.9 12 61.6 11.6 C 62.3 11.2 62.8 10.7 63.2 10.2 C 63.6 9.8 63.8 9.3 63.8 8.9 C 63.78 8.94 63.8 8.4 63.8 8.4 L 60.4 8.4 L 60.4 6.9 L 69 6.9 L 69 8.4 L 65.6 8.4 C 65.6 8.4 65.64 8.94 65.6 8.9 C 65.6 9.3 65.8 9.8 66.2 10.2 C 66.6 10.6 67.1 11.1 67.8 11.5 C 68.5 11.9 69.2 12.2 70 12.5 C 70 12.5 69.4 13.9 69.4 13.9 C 68.4 13.6 67.5 13.2 66.7 12.7 C 65.9 12.2 65.3 11.6 64.7 11 C 64.2 11.6 63.5 12.2 62.7 12.7 C 61.9 13.3 61 13.8 60 14.1 C 60 14.1 59.4 12.7 59.4 12.7 Z M 65.6 13.6 L 65.6 16.9 L 71.2 16.9 L 71.2 18.4 L 58.3 18.4 L 58.3 16.9 L 63.8 16.9 L 63.8 13.6 L 65.6 13.6 Z " stroke="none" fill="#fff"/>
  </g>
</svg>