<?xml version="1.0" standalone="no"?>
<!DOCTYPE svg PUBLIC "-//W3C//DTD SVG 1.1//EN" "http://www.w3.org/Graphics/SVG/1.1/DTD/svg11.dtd">
<svg xmlns="http://www.w3.org/2000/svg" version="1.1" width="141px" height="31.5px" viewBox="0 -1 141 31.5" style="top:-1px">
  <desc>기아 디지털 키 2</desc>
  <defs/>
  <g id="Polygon627314">
    <path d="M 12.1 19.4 L 10.3 19.4 L 10.3 5.8 L 12.1 5.8 L 12.1 19.4 Z M 1.2 15.1 C 3 14.4 4.2 13.6 5 12.6 C 5.7 11.7 6.1 10.6 6.1 9.4 C 6.12 9.39 6.1 8.6 6.1 8.6 L 1.8 8.6 L 1.8 7.2 L 7.9 7.2 C 7.9 7.2 7.93 9.3 7.9 9.3 C 7.9 10.9 7.5 12.2 6.5 13.4 C 5.6 14.6 4 15.7 1.9 16.6 C 1.9 16.6 1.2 15.1 1.2 15.1 Z M 25.1 10.6 L 27.4 10.6 L 27.4 12.1 L 25.1 12.1 L 25.1 19.4 L 23.3 19.4 L 23.3 5.8 L 25.1 5.8 L 25.1 10.6 Z M 18.1 6.7 C 18.9 6.7 19.5 6.9 20.1 7.3 C 20.6 7.6 21.1 8.1 21.4 8.8 C 21.7 9.5 21.8 10.3 21.8 11.1 C 21.8 11.1 21.8 11.4 21.8 11.4 C 21.8 12.3 21.7 13.1 21.4 13.8 C 21.1 14.4 20.6 14.9 20.1 15.3 C 19.5 15.7 18.9 15.9 18.1 15.9 C 17.4 15.9 16.7 15.7 16.2 15.3 C 15.6 14.9 15.2 14.4 14.9 13.8 C 14.6 13.1 14.4 12.3 14.4 11.4 C 14.4 11.4 14.4 11.1 14.4 11.1 C 14.4 10.3 14.6 9.5 14.9 8.8 C 15.2 8.1 15.6 7.6 16.2 7.3 C 16.7 6.9 17.4 6.7 18.1 6.7 C 18.1 6.7 18.1 6.7 18.1 6.7 Z M 20.1 11.1 C 20.1 10.2 19.9 9.5 19.5 9 C 19.2 8.4 18.7 8.2 18.1 8.2 C 17.5 8.2 17 8.4 16.7 9 C 16.4 9.5 16.2 10.2 16.2 11.1 C 16.2 11.1 16.2 11.4 16.2 11.4 C 16.2 12.3 16.4 13.1 16.7 13.6 C 17 14.1 17.5 14.4 18.1 14.4 C 18.7 14.4 19.2 14.1 19.5 13.6 C 19.9 13.1 20.1 12.3 20.1 11.4 C 20.1 11.4 20.1 11.1 20.1 11.1 Z M 41 19.4 L 41 5.8 L 42.8 5.8 L 42.8 19.4 L 41 19.4 Z M 34 13.9 C 35.8 13.9 37.6 13.7 39.5 13.3 C 39.5 13.3 39.8 14.7 39.8 14.7 C 38.5 15 37.4 15.2 36.3 15.3 C 35.3 15.4 34.1 15.4 32.8 15.4 C 32.79 15.42 32.2 15.4 32.2 15.4 L 32.2 7.2 L 38.5 7.2 L 38.5 8.6 L 34 8.6 L 34 13.9 C 34 13.9 34.05 13.93 34 13.9 Z M 54.5 19.4 L 54.5 5.8 L 56.3 5.8 L 56.3 19.4 L 54.5 19.4 Z M 50.1 10.4 C 50.1 11 50.4 11.7 51 12.5 C 51.6 13.2 52.4 13.9 53.4 14.5 C 53.4 14.5 52.5 15.8 52.5 15.8 C 51.1 15 50 14 49.2 12.8 C 48.3 14.1 47.2 15.2 45.8 16.1 C 45.8 16.1 44.9 14.8 44.9 14.8 C 45.9 14.2 46.7 13.4 47.3 12.6 C 48 11.8 48.3 11.1 48.3 10.4 C 48.27 10.41 48.3 8.7 48.3 8.7 L 45.5 8.7 L 45.5 7.2 L 52.9 7.2 L 52.9 8.7 L 50.1 8.7 C 50.1 8.7 50.1 10.38 50.1 10.4 Z M 69.8 13.6 L 68 13.6 L 68 10.3 L 65.6 10.3 L 65.6 8.8 L 68 8.8 L 68 5.8 L 69.8 5.8 L 69.8 13.6 Z M 66.5 12.6 C 65.3 12.8 64.3 13 63.3 13 C 62.3 13.1 61.2 13.2 59.9 13.2 C 59.92 13.17 59.1 13.2 59.1 13.2 L 59.1 6.5 L 65.2 6.5 L 65.2 7.9 L 60.9 7.9 L 60.9 9 L 64.9 9 L 64.9 10.5 L 60.9 10.5 L 60.9 11.7 C 60.9 11.7 61 11.7 61 11.7 C 62.8 11.7 64.5 11.5 66.2 11.1 C 66.2 11.1 66.5 12.6 66.5 12.6 Z M 63 17.8 L 63 18.6 L 70.3 18.6 L 70.3 20 L 61.2 20 L 61.2 16.4 L 68 16.4 L 68 15.7 L 61.2 15.7 L 61.2 14.2 L 69.8 14.2 L 69.8 17.8 L 63 17.8 Z M 85.3 19.4 L 85.3 5.8 L 87.1 5.8 L 87.1 19.4 L 85.3 19.4 Z M 76.6 8.6 L 76.6 7.2 L 82.7 7.2 C 82.7 7.2 82.74 9.3 82.7 9.3 C 82.7 10.9 82.3 12.3 81.3 13.5 C 80.4 14.7 78.8 15.8 76.7 16.8 C 76.7 16.8 75.9 15.3 75.9 15.3 C 77.2 14.8 78.1 14.2 78.9 13.6 C 79.6 13 80.1 12.4 80.5 11.6 C 79.8 11.7 79.1 11.8 78.2 11.8 C 78.24 11.79 75.9 11.8 75.9 11.8 L 75.9 10.3 C 75.9 10.3 78.24 10.32 78.2 10.3 C 79.4 10.3 80.3 10.3 80.9 10.2 C 80.9 9.9 80.9 9.7 80.9 9.4 C 80.92 9.39 80.9 8.6 80.9 8.6 L 76.6 8.6 Z M 93.2 18.1 L 93.2 16.7 C 93.2 16.7 96.88 12.97 96.9 13 C 97.4 12.5 97.8 12 98 11.6 C 98.2 11.2 98.3 10.8 98.3 10.3 C 98.3 9.7 98.1 9.3 97.8 8.9 C 97.4 8.6 97 8.4 96.4 8.4 C 95.8 8.4 95.3 8.5 94.8 8.8 C 94.4 9.1 94 9.5 93.6 10 C 93.6 10 93.6 7.8 93.6 7.8 C 94 7.5 94.4 7.2 94.9 7 C 95.4 6.8 96 6.7 96.6 6.7 C 97.4 6.7 98.1 6.9 98.7 7.2 C 99.2 7.5 99.7 7.9 100 8.4 C 100.3 9 100.4 9.6 100.4 10.2 C 100.4 11 100.2 11.7 99.9 12.3 C 99.5 12.9 99 13.5 98.3 14.2 C 98.28 14.25 96.1 16.5 96.1 16.5 L 100.7 16.5 L 100.7 18.1 L 93.2 18.1 Z " stroke="none" fill="#fff"/>
  </g>
</svg>