<?xml version="1.0" standalone="no"?>
<!DOCTYPE svg PUBLIC "-//W3C//DTD SVG 1.1//EN" "http://www.w3.org/Graphics/SVG/1.1/DTD/svg11.dtd">
<svg xmlns="http://www.w3.org/2000/svg" version="1.1" width="105px" height="122.5px" viewBox="0 -1 105 122.5" style="top:-1px">
  <desc>첨단 운전자 주행 보조</desc>
  <defs/>
  <g id="Polygon627774">
    <path d="M 2.3 68.7 C 3.3 68.4 4.2 68.1 5 67.7 C 5.8 67.2 6.5 66.8 6.9 66.3 C 7.4 65.8 7.7 65.3 7.7 64.9 C 7.66 64.9 3.4 64.9 3.4 64.9 L 3.4 63.1 L 14.3 63.1 L 14.3 64.9 C 14.3 64.9 10.01 64.9 10 64.9 C 10 65.3 10.2 65.8 10.7 66.2 C 11.2 66.7 11.8 67.1 12.6 67.5 C 13.4 67.9 14.4 68.2 15.4 68.5 C 15.4 68.5 14.7 70.3 14.7 70.3 C 13.5 70 12.4 69.5 11.4 69 C 10.4 68.5 9.5 68 8.8 67.3 C 8.1 68 7.3 68.6 6.3 69.2 C 5.3 69.7 4.2 70.2 3 70.5 C 3 70.5 2.3 68.7 2.3 68.7 Z M 0.7 71.6 L 17 71.6 L 17 73.4 L 10 73.4 L 10 79.4 L 7.7 79.4 L 7.7 73.4 L 0.7 73.4 L 0.7 71.6 Z M 31 69.2 L 29.4 69.2 L 29.4 72.9 L 27.2 72.9 L 27.2 62.1 L 29.4 62.1 L 29.4 67.3 L 31 67.3 L 31 61.9 L 33.3 61.9 L 33.3 73.7 L 31 73.7 L 31 69.2 Z M 22.6 64.6 C 21.4 64.6 20.3 64.4 19.5 64.1 C 19.5 64.1 19.5 62.4 19.5 62.4 C 20.4 62.7 21.4 62.8 22.6 62.8 C 22.65 62.81 25 62.8 25 62.8 L 25 64.6 C 25 64.6 22.65 64.58 22.6 64.6 Z M 18.1 65.2 L 26.5 65.2 L 26.5 66.9 L 18.1 66.9 L 18.1 65.2 Z M 25.8 70.4 C 25.8 71 25.6 71.5 25.3 71.9 C 25 72.3 24.6 72.7 24.1 72.9 C 23.6 73.2 23 73.3 22.3 73.3 C 21.6 73.3 21.1 73.2 20.5 72.9 C 20 72.7 19.6 72.3 19.3 71.9 C 19 71.5 18.8 71 18.8 70.4 C 18.8 70.4 18.8 70.3 18.8 70.3 C 18.8 69.8 19 69.3 19.3 68.8 C 19.6 68.4 20 68.1 20.5 67.8 C 21.1 67.6 21.6 67.4 22.3 67.4 C 23 67.4 23.6 67.6 24.1 67.8 C 24.6 68.1 25 68.4 25.3 68.8 C 25.6 69.3 25.8 69.8 25.8 70.3 C 25.8 70.3 25.8 70.4 25.8 70.4 Z M 20.9 70.4 C 20.9 70.8 21.1 71.1 21.3 71.3 C 21.6 71.5 21.9 71.6 22.3 71.6 C 22.7 71.6 23 71.5 23.3 71.3 C 23.6 71.1 23.7 70.8 23.7 70.4 C 23.7 70.4 23.7 70.3 23.7 70.3 C 23.7 70 23.6 69.7 23.3 69.5 C 23 69.3 22.7 69.2 22.3 69.2 C 21.9 69.2 21.6 69.3 21.3 69.5 C 21.1 69.7 20.9 70 20.9 70.3 C 20.9 70.3 20.9 70.4 20.9 70.4 Z M 27.7 73.7 C 29.6 73.7 31 74 32 74.5 C 33 75 33.5 75.8 33.5 76.7 C 33.5 76.7 33.5 76.9 33.5 76.9 C 33.5 77.8 33 78.5 32 79.1 C 31 79.6 29.6 79.9 27.7 79.9 C 25.9 79.9 24.4 79.6 23.4 79.1 C 22.4 78.5 21.9 77.8 21.9 76.9 C 21.9 76.9 21.9 76.7 21.9 76.7 C 21.9 75.8 22.4 75 23.4 74.5 C 24.4 74 25.9 73.7 27.7 73.7 C 27.7 73.7 27.7 73.7 27.7 73.7 Z M 31.2 76.7 C 31.2 76.4 30.9 76.1 30.3 75.8 C 29.7 75.6 28.9 75.5 27.7 75.5 C 26.5 75.5 25.7 75.6 25.1 75.8 C 24.5 76.1 24.2 76.4 24.2 76.7 C 24.2 76.7 24.2 76.8 24.2 76.8 C 24.2 77.2 24.5 77.5 25.1 77.7 C 25.7 78 26.5 78.1 27.7 78.1 C 28.9 78.1 29.7 78 30.3 77.7 C 30.9 77.5 31.2 77.2 31.2 76.8 C 31.2 76.8 31.2 76.7 31.2 76.7 Z M 51.1 62.9 L 53.4 62.9 L 53.4 71.7 L 42.2 71.7 L 42.2 62.9 L 44.5 62.9 L 44.5 65.6 L 51.1 65.6 L 51.1 62.9 Z M 44.5 67.5 L 44.5 69.8 L 51.1 69.8 L 51.1 67.5 L 44.5 67.5 Z M 49 72.5 L 49 76 L 56 76 L 56 77.9 L 39.6 77.9 L 39.6 76 L 46.6 76 L 46.6 72.5 L 49 72.5 Z M 58.2 70.6 C 59.2 70.3 60.1 69.8 60.9 69.2 C 61.8 68.7 62.5 68.1 62.9 67.5 C 63.4 66.9 63.7 66.4 63.7 65.9 C 63.69 65.85 63.7 65.2 63.7 65.2 L 59.5 65.2 L 59.5 63.3 L 70.3 63.3 L 70.3 65.2 L 66 65.2 C 66 65.2 66.04 65.85 66 65.9 C 66 66.4 66.3 66.9 66.8 67.5 C 67.3 68 67.9 68.6 68.8 69.1 C 69.6 69.6 70.5 70 71.6 70.4 C 71.6 70.4 70.8 72.2 70.8 72.2 C 69.6 71.7 68.4 71.2 67.4 70.6 C 66.4 70 65.6 69.3 64.9 68.5 C 64.2 69.3 63.4 70 62.3 70.7 C 61.3 71.4 60.2 72 58.9 72.4 C 58.9 72.4 58.2 70.6 58.2 70.6 Z M 66 71.8 L 66 76 L 73.1 76 L 73.1 77.8 L 56.7 77.8 L 56.7 76 L 63.7 76 L 63.7 71.8 L 66 71.8 Z " stroke="none" fill="#fff"/>
  </g>
  <g id="Polygon627773">
    <path d="M 6.8 38.1 C 6 38.1 5.3 38.1 4.7 38 C 4.1 37.9 3.5 37.8 3.1 37.6 C 3.1 37.6 3.1 35.9 3.1 35.9 C 3.5 36 4 36.1 4.6 36.2 C 5.1 36.3 5.8 36.3 6.8 36.3 C 6.76 36.3 9.1 36.3 9.1 36.3 L 9.1 38.1 C 9.1 38.1 6.76 38.08 6.8 38.1 Z M 13 41.4 L 13 35.9 L 15.3 35.9 L 15.3 46.5 L 13 46.5 L 13 43.3 L 10 43.3 L 10 41.4 L 13 41.4 Z M 6.2 43.3 C 5.6 44 5 44.7 4.3 45.2 C 3.5 45.8 2.7 46.2 1.8 46.7 C 1.8 46.7 0.8 44.9 0.8 44.9 C 1.6 44.6 2.3 44.2 2.9 43.7 C 3.6 43.2 4.1 42.8 4.4 42.3 C 4.8 41.8 5 41.3 5 40.9 C 4.98 40.9 5 40.9 5 40.9 L 1.5 40.9 L 1.5 39.1 L 10.7 39.1 L 10.7 40.9 C 10.7 40.9 7.3 40.86 7.3 40.9 C 7.3 41.5 7.7 42.1 8.5 42.8 C 9.3 43.4 10.2 44 11.4 44.4 C 11.4 44.4 10.5 46.2 10.5 46.2 C 8.7 45.5 7.2 44.5 6.2 43.3 C 6.2 43.3 6.2 43.3 6.2 43.3 Z M 15.3 53.6 L 4.4 53.6 L 4.4 47.5 L 15.3 47.5 L 15.3 53.6 Z M 13 49.3 L 6.7 49.3 L 6.7 51.7 L 13 51.7 L 13 49.3 Z M 31.8 35.9 L 31.8 40.8 L 34.7 40.8 L 34.7 42.6 L 31.8 42.6 L 31.8 48.5 L 29.5 48.5 L 29.5 35.9 L 31.8 35.9 Z M 28.2 44.9 C 26.7 45.2 25.3 45.5 24.1 45.6 C 22.8 45.7 21.3 45.8 19.7 45.8 C 19.66 45.76 18.8 45.8 18.8 45.8 L 18.8 37.2 L 26.6 37.2 L 26.6 39 L 21.1 39 L 21.1 44 C 21.1 44 21.18 43.97 21.2 44 C 23.3 44 25.5 43.7 27.9 43.2 C 27.9 43.2 28.2 44.9 28.2 44.9 Z M 20.9 47.4 L 23.2 47.4 L 23.2 51.5 L 32.5 51.5 L 32.5 53.4 L 20.9 53.4 L 20.9 47.4 Z M 47.8 43.5 C 46.7 43.5 45.8 43.4 45 43.1 C 44.2 42.8 43.5 42.4 43.1 41.8 C 42.6 41.3 42.4 40.7 42.4 40 C 42.4 40 42.4 39.9 42.4 39.9 C 42.4 39.2 42.6 38.6 43.1 38 C 43.5 37.5 44.2 37.1 45 36.8 C 45.8 36.5 46.8 36.3 47.8 36.3 C 48.9 36.3 49.8 36.5 50.6 36.8 C 51.4 37.1 52.1 37.5 52.5 38 C 53 38.6 53.2 39.2 53.2 39.9 C 53.2 39.9 53.2 40 53.2 40 C 53.2 40.7 53 41.3 52.5 41.8 C 52.1 42.4 51.4 42.8 50.6 43.1 C 49.8 43.4 48.9 43.5 47.8 43.5 C 47.8 43.5 47.8 43.5 47.8 43.5 Z M 44.6 40 C 44.6 40.5 44.9 40.9 45.5 41.3 C 46 41.6 46.8 41.8 47.8 41.8 C 48.8 41.8 49.6 41.6 50.1 41.3 C 50.7 40.9 50.9 40.5 50.9 40 C 50.9 40 50.9 39.9 50.9 39.9 C 50.9 39.4 50.7 38.9 50.1 38.6 C 49.6 38.3 48.8 38.1 47.8 38.1 C 46.8 38.1 46 38.3 45.5 38.6 C 44.9 38.9 44.6 39.4 44.6 39.9 C 44.6 39.9 44.6 40 44.6 40 Z M 39.6 46.5 L 39.6 44.6 L 56 44.6 L 56 46.5 L 48.9 46.5 L 48.9 50 L 46.6 50 L 46.6 46.5 L 39.6 46.5 Z M 42.3 48 L 44.6 48 L 44.6 51.5 L 53.7 51.5 L 53.7 53.4 L 42.3 53.4 L 42.3 48 Z M 65.6 42.3 L 65.6 40.4 L 69 40.4 L 69 35.9 L 71.4 35.9 L 71.4 48.9 L 69 48.9 L 69 42.3 L 65.6 42.3 Z M 65.9 46.1 C 64.2 45.2 62.9 44.1 61.9 42.7 C 60.9 44.3 59.6 45.5 58 46.4 C 58 46.4 56.8 44.8 56.8 44.8 C 58 44.1 59 43.3 59.7 42.4 C 60.4 41.5 60.8 40.6 60.8 39.7 C 60.78 39.72 60.8 39 60.8 39 L 57.6 39 L 57.6 37.1 L 66.2 37.1 L 66.2 39 L 63.1 39 C 63.1 39 63.08 39.68 63.1 39.7 C 63.1 40.5 63.4 41.4 64.1 42.2 C 64.8 43 65.8 43.8 67 44.4 C 67 44.4 65.9 46.1 65.9 46.1 Z M 62.8 47.6 L 62.8 51.5 L 72.1 51.5 L 72.1 53.4 L 60.4 53.4 L 60.4 47.6 L 62.8 47.6 Z M 87.9 42 L 90.7 42 L 90.7 43.8 L 87.9 43.8 L 87.9 53.1 L 85.6 53.1 L 85.6 35.9 L 87.9 35.9 L 87.9 42 Z M 80.4 41.7 C 80.4 42.5 80.8 43.4 81.5 44.4 C 82.3 45.3 83.3 46.2 84.6 46.9 C 84.6 46.9 83.4 48.6 83.4 48.6 C 81.6 47.5 80.2 46.2 79.2 44.8 C 78.1 46.4 76.7 47.8 75 48.9 C 75 48.9 73.8 47.3 73.8 47.3 C 75 46.5 76.1 45.6 76.9 44.6 C 77.7 43.5 78.1 42.6 78.1 41.7 C 78.05 41.73 78.1 39.5 78.1 39.5 L 74.5 39.5 L 74.5 37.7 L 83.9 37.7 L 83.9 39.5 L 80.4 39.5 C 80.4 39.5 80.37 41.69 80.4 41.7 Z " stroke="none" fill="#fff"/>
  </g>
</svg>