<?xml version="1.0" standalone="no"?>
<!DOCTYPE svg PUBLIC "-//W3C//DTD SVG 1.1//EN" "http://www.w3.org/Graphics/SVG/1.1/DTD/svg11.dtd">
<svg xmlns="http://www.w3.org/2000/svg" version="1.1" width="141px" height="31.5px" viewBox="0 -1 141 31.5" style="top:-1px">
  <desc>후방 모니터</desc>
  <defs/>
  <g id="Polygon628133">
    <path d="M 7.4 7.6 C 6.1 7.6 5.1 7.5 4.5 7.3 C 4.5 7.3 4.5 5.9 4.5 5.9 C 4.9 6 5.3 6.1 5.7 6.2 C 6.1 6.2 6.7 6.2 7.4 6.2 C 7.42 6.24 9.4 6.2 9.4 6.2 L 9.4 7.6 C 9.4 7.6 7.42 7.65 7.4 7.6 Z M 2.2 8.2 L 11.8 8.2 L 11.8 9.6 L 2.2 9.6 L 2.2 8.2 Z M 3.4 12.1 C 3.4 11.7 3.6 11.3 3.9 11 C 4.2 10.6 4.6 10.4 5.1 10.2 C 5.7 10 6.3 9.9 7 9.9 C 7.7 9.9 8.3 10 8.8 10.2 C 9.4 10.4 9.8 10.6 10.1 11 C 10.4 11.3 10.5 11.7 10.5 12.1 C 10.5 12.1 10.5 12.2 10.5 12.2 C 10.5 12.7 10.4 13.1 10.1 13.4 C 9.8 13.7 9.4 14 8.8 14.2 C 8.3 14.4 7.7 14.4 7 14.4 C 6.3 14.4 5.7 14.4 5.1 14.2 C 4.6 14 4.2 13.7 3.9 13.4 C 3.6 13.1 3.4 12.7 3.4 12.2 C 3.4 12.2 3.4 12.1 3.4 12.1 Z M 8.7 12.2 C 8.7 11.9 8.6 11.7 8.3 11.5 C 8 11.4 7.6 11.3 7 11.3 C 6.5 11.3 6 11.4 5.7 11.5 C 5.4 11.7 5.2 11.9 5.2 12.2 C 5.2 12.2 5.2 12.2 5.2 12.2 C 5.2 12.5 5.4 12.7 5.7 12.8 C 6 13 6.4 13.1 7 13.1 C 7.5 13.1 7.9 13 8.3 12.8 C 8.6 12.7 8.7 12.5 8.7 12.2 C 8.7 12.2 8.7 12.2 8.7 12.2 Z M 0.5 15 L 13.4 15 L 13.4 16.4 L 7.9 16.4 L 7.9 19.8 L 6.1 19.8 L 6.1 16.4 L 0.5 16.4 L 0.5 15 Z M 25.1 5.8 L 25.1 9.3 L 27.4 9.3 L 27.4 10.8 L 25.1 10.8 L 25.1 14.2 L 23.3 14.2 L 23.3 5.8 L 25.1 5.8 Z M 19.1 6.6 L 20.9 6.6 L 20.9 13.3 L 14.8 13.3 L 14.8 6.6 L 16.6 6.6 L 16.6 8.6 L 19.1 8.6 L 19.1 6.6 Z M 16.6 10 L 16.6 11.9 L 19.1 11.9 L 19.1 10 L 16.6 10 Z M 20.9 14.5 C 21.8 14.5 22.6 14.6 23.3 14.8 C 23.9 15 24.4 15.3 24.8 15.8 C 25.1 16.2 25.3 16.6 25.3 17.2 C 25.3 17.2 25.3 17.3 25.3 17.3 C 25.3 17.8 25.1 18.3 24.8 18.7 C 24.4 19.1 23.9 19.4 23.3 19.7 C 22.6 19.9 21.8 20 20.9 20 C 20 20 19.2 19.9 18.5 19.7 C 17.9 19.4 17.4 19.1 17 18.7 C 16.7 18.3 16.5 17.8 16.5 17.3 C 16.5 17.3 16.5 17.2 16.5 17.2 C 16.5 16.6 16.7 16.2 17 15.8 C 17.4 15.3 17.9 15 18.5 14.8 C 19.2 14.6 20 14.5 20.9 14.5 C 20.9 14.5 20.9 14.5 20.9 14.5 Z M 23.5 17.2 C 23.5 16.8 23.3 16.5 22.8 16.3 C 22.4 16.1 21.7 15.9 20.9 15.9 C 20.1 15.9 19.4 16.1 19 16.3 C 18.5 16.5 18.3 16.8 18.3 17.2 C 18.3 17.2 18.3 17.3 18.3 17.3 C 18.3 17.6 18.5 17.9 19 18.2 C 19.4 18.4 20.1 18.5 20.9 18.5 C 21.7 18.5 22.4 18.4 22.8 18.2 C 23.3 17.9 23.5 17.6 23.5 17.3 C 23.5 17.3 23.5 17.2 23.5 17.2 Z M 33.3 6.9 L 42.2 6.9 L 42.2 13.3 L 33.3 13.3 L 33.3 6.9 Z M 35.1 11.9 L 40.4 11.9 L 40.4 8.4 L 35.1 8.4 L 35.1 11.9 Z M 38.6 14 L 38.6 16.9 L 44.2 16.9 L 44.2 18.4 L 31.3 18.4 L 31.3 16.9 L 36.8 16.9 L 36.8 14 L 38.6 14 Z M 54.5 19.4 L 54.5 5.8 L 56.3 5.8 L 56.3 19.4 L 54.5 19.4 Z M 47.6 14 C 49.4 14 51.3 13.8 53.2 13.3 C 53.2 13.3 53.5 14.8 53.5 14.8 C 52.2 15.1 51.1 15.2 50 15.3 C 48.9 15.4 47.7 15.5 46.4 15.5 C 46.38 15.49 45.7 15.5 45.7 15.5 L 45.7 7.1 L 47.5 7.1 L 47.5 14 C 47.5 14 47.62 14.01 47.6 14 Z M 68 10.2 L 68 5.8 L 69.8 5.8 L 69.8 19.4 L 68 19.4 L 68 11.7 L 65.7 11.7 L 65.7 10.2 L 68 10.2 Z M 61 13.9 C 62.7 13.9 64.4 13.7 66.2 13.3 C 66.2 13.3 66.5 14.8 66.5 14.8 C 65.3 15 64.2 15.2 63.1 15.3 C 62.1 15.4 61 15.4 59.7 15.4 C 59.71 15.42 59.1 15.4 59.1 15.4 L 59.1 7.1 L 65.2 7.1 L 65.2 8.6 L 60.9 8.6 L 60.9 10.4 L 64.9 10.4 L 64.9 11.8 L 60.9 11.8 L 60.9 13.9 C 60.9 13.9 61 13.92 61 13.9 Z " stroke="none" fill="#fff"/>
  </g>
</svg>