<?xml version="1.0" standalone="no"?>
<!DOCTYPE svg PUBLIC "-//W3C//DTD SVG 1.1//EN" "http://www.w3.org/Graphics/SVG/1.1/DTD/svg11.dtd">
<svg xmlns="http://www.w3.org/2000/svg" version="1.1" width="141px" height="31.5px" viewBox="0 -1 141 31.5" style="top:-1px">
  <desc>전자식 변속 레버</desc>
  <defs/>
  <g id="Polygon627467">
    <path d="M 7.5 10.9 L 7.5 9.4 L 10.3 9.4 L 10.3 5.8 L 12.1 5.8 L 12.1 16.1 L 10.3 16.1 L 10.3 10.9 L 7.5 10.9 Z M 7.8 13.9 C 6.4 13.2 5.4 12.3 4.6 11.2 C 3.8 12.4 2.8 13.4 1.5 14.1 C 1.5 14.1 0.6 12.8 0.6 12.8 C 1.5 12.3 2.3 11.7 2.9 11 C 3.4 10.2 3.7 9.5 3.7 8.8 C 3.73 8.83 3.7 8.3 3.7 8.3 L 1.3 8.3 L 1.3 6.8 L 8 6.8 L 8 8.3 L 5.5 8.3 C 5.5 8.3 5.55 8.8 5.5 8.8 C 5.5 9.5 5.8 10.1 6.4 10.8 C 6.9 11.4 7.7 12 8.6 12.6 C 8.6 12.6 7.8 13.9 7.8 13.9 Z M 5.3 15 L 5.3 18.2 L 12.6 18.2 L 12.6 19.6 L 3.5 19.6 L 3.5 15 L 5.3 15 Z M 25.1 10.6 L 27.4 10.6 L 27.4 12.1 L 25.1 12.1 L 25.1 19.4 L 23.3 19.4 L 23.3 5.8 L 25.1 5.8 L 25.1 10.6 Z M 19.2 10.4 C 19.2 11.1 19.5 11.8 20.1 12.5 C 20.7 13.2 21.5 13.9 22.5 14.5 C 22.5 14.5 21.6 15.8 21.6 15.8 C 20.2 15 19.1 14 18.3 12.8 C 17.4 14.1 16.3 15.2 14.9 16.1 C 14.9 16.1 14 14.8 14 14.8 C 15 14.2 15.8 13.5 16.4 12.6 C 17.1 11.8 17.4 11.1 17.4 10.4 C 17.37 10.42 17.4 8.7 17.4 8.7 L 14.6 8.7 L 14.6 7.2 L 22 7.2 L 22 8.7 L 19.2 8.7 C 19.2 8.7 19.2 10.39 19.2 10.4 Z M 37.3 14.2 L 37.3 5.8 L 39.1 5.8 L 39.1 14.2 L 37.3 14.2 Z M 31.9 10.9 C 31.1 12.1 30 13.1 28.6 13.9 C 28.6 13.9 27.7 12.5 27.7 12.5 C 28.7 12 29.5 11.3 30.1 10.6 C 30.7 9.9 31 9.2 31 8.6 C 31.02 8.61 31 6.5 31 6.5 L 32.8 6.5 C 32.8 6.5 32.82 8.58 32.8 8.6 C 32.8 9.2 33.1 9.8 33.7 10.4 C 34.3 11.1 35.1 11.6 36.1 12.1 C 36.1 12.1 35.3 13.5 35.3 13.5 C 33.9 12.7 32.7 11.9 31.9 10.9 C 31.9 10.9 31.9 10.9 31.9 10.9 Z M 37.3 16.4 L 30.1 16.4 L 30.1 14.9 L 39.1 14.9 L 39.1 19.9 L 37.3 19.9 L 37.3 16.4 Z M 56.3 16.1 L 54.5 16.1 L 54.5 12.6 L 52.1 12.6 L 52.1 11.1 L 54.5 11.1 L 54.5 9.4 L 52.1 9.4 L 52.1 7.9 L 54.5 7.9 L 54.5 5.8 L 56.3 5.8 L 56.3 16.1 Z M 49.7 6.7 L 51.5 6.7 L 51.5 13.5 L 45.6 13.5 L 45.6 6.7 L 47.4 6.7 L 47.4 8.8 L 49.7 8.8 L 49.7 6.7 Z M 47.4 10.2 L 47.4 12.1 L 49.7 12.1 L 49.7 10.2 L 47.4 10.2 Z M 49.5 15 L 49.5 18.2 L 56.9 18.2 L 56.9 19.6 L 47.7 19.6 L 47.7 15 L 49.5 15 Z M 64.7 9 C 64.2 9.6 63.5 10.1 62.7 10.6 C 61.9 11 61.1 11.4 60.1 11.7 C 60.1 11.7 59.5 10.3 59.5 10.3 C 60.3 10.1 61 9.8 61.6 9.4 C 62.3 9.1 62.8 8.7 63.2 8.3 C 63.6 7.9 63.8 7.5 63.8 7.1 C 63.81 7.14 63.8 6.1 63.8 6.1 L 65.6 6.1 C 65.6 6.1 65.64 7.14 65.6 7.1 C 65.6 7.5 65.8 7.8 66.2 8.2 C 66.6 8.6 67.1 8.9 67.8 9.3 C 68.4 9.6 69.1 9.9 69.9 10.1 C 69.9 10.1 69.3 11.5 69.3 11.5 C 68.4 11.2 67.5 10.8 66.7 10.4 C 65.9 10 65.2 9.5 64.7 9 C 64.7 9 64.7 9 64.7 9 Z M 65.6 10.9 L 65.6 12.6 L 71.2 12.6 L 71.2 14.1 L 58.3 14.1 L 58.3 12.6 L 63.8 12.6 L 63.8 10.9 L 65.6 10.9 Z M 67.1 16.8 L 60 16.8 L 60 15.3 L 68.9 15.3 L 68.9 19.9 L 67.1 19.9 L 67.1 16.8 Z M 86 19.4 L 86 5.8 L 87.8 5.8 L 87.8 19.4 L 86 19.4 Z M 81.7 10.4 L 83.2 10.4 L 83.2 6 L 84.9 6 L 84.9 18.9 L 83.2 18.9 L 83.2 11.9 L 81.7 11.9 L 81.7 10.4 Z M 78.2 13.9 C 78.7 13.9 79.3 13.9 80 13.8 C 80.7 13.7 81.4 13.6 82.1 13.5 C 82.1 13.5 82.3 14.9 82.3 14.9 C 81.3 15.1 80.4 15.2 79.5 15.3 C 78.6 15.4 77.5 15.4 76.3 15.4 C 76.26 15.4 76.3 10.4 76.3 10.4 L 79.3 10.4 L 79.3 8.6 L 76.3 8.6 L 76.3 7.1 L 81.1 7.1 L 81.1 11.9 L 78 11.9 L 78 13.9 C 78 13.9 78.24 13.92 78.2 13.9 Z M 98.8 10.5 L 98.8 5.8 L 100.6 5.8 L 100.6 19.4 L 98.8 19.4 L 98.8 12 L 96.6 12 L 96.6 10.5 L 98.8 10.5 Z M 91.6 9.9 L 94.2 9.9 L 94.2 7 L 96 7 L 96 15.4 L 89.8 15.4 L 89.8 7 L 91.6 7 L 91.6 9.9 Z M 91.6 11.4 L 91.6 13.9 L 94.2 13.9 L 94.2 11.4 L 91.6 11.4 Z " stroke="none" fill="#fff"/>
  </g>
</svg>