<?xml version="1.0" standalone="no"?>
<!DOCTYPE svg PUBLIC "-//W3C//DTD SVG 1.1//EN" "http://www.w3.org/Graphics/SVG/1.1/DTD/svg11.dtd">
<svg xmlns="http://www.w3.org/2000/svg" version="1.1" width="632px" height="19.3px" viewBox="0 -4 632 19.3" style="top:-4px">
  <desc>※ 상기 영상들은 당사 차량에 적용된 주요 기능들의 이해를 돕기 위해 제작된 것으로, 세부 기능 및 작동 방식이 실제 차량과 상이할 수 있습니다.</desc>
  <defs/>
  <g id="Polygon628388">
    <path d="M 5.3 1.7 C 5.3 1.9 5.2 2.1 5 2.2 C 4.9 2.3 4.7 2.4 4.6 2.4 C 4.4 2.4 4.2 2.3 4.1 2.2 C 3.9 2.1 3.9 1.9 3.9 1.7 C 3.9 1.5 3.9 1.4 4.1 1.2 C 4.2 1.1 4.4 1 4.5 1 C 4.7 1 4.9 1.1 5 1.2 C 5.2 1.4 5.2 1.5 5.2 1.7 C 5.2 1.7 5.3 1.7 5.3 1.7 Z M 5 4.7 L 8.3 7.9 L 7.8 8.3 L 4.6 5.1 L 1.4 8.3 L 1 7.9 L 4.2 4.7 L 1 1.5 L 1.4 1 L 4.6 4.3 L 7.8 1 L 8.2 1.5 L 5 4.7 Z M 2.3 4.7 C 2.3 4.9 2.2 5 2.1 5.2 C 1.9 5.3 1.8 5.4 1.6 5.4 C 1.4 5.4 1.2 5.3 1.1 5.2 C 1 5 0.9 4.9 0.9 4.7 C 0.9 4.5 1 4.4 1.1 4.2 C 1.2 4.1 1.4 4 1.6 4 C 1.8 4 1.9 4.1 2.1 4.2 C 2.2 4.4 2.3 4.5 2.3 4.7 C 2.3 4.7 2.3 4.7 2.3 4.7 Z M 8.4 4.7 C 8.4 4.9 8.3 5 8.2 5.2 C 8.1 5.3 7.9 5.4 7.7 5.4 C 7.5 5.4 7.4 5.3 7.2 5.2 C 7.1 5 7 4.9 7 4.7 C 7 4.5 7.1 4.3 7.2 4.2 C 7.4 4.1 7.5 4 7.7 4 C 7.9 4 8.1 4.1 8.2 4.2 C 8.3 4.4 8.4 4.5 8.4 4.7 C 8.4 4.7 8.4 4.7 8.4 4.7 Z M 5.3 7.8 C 5.3 8 5.2 8.1 5 8.3 C 4.9 8.4 4.7 8.5 4.6 8.5 C 4.4 8.5 4.2 8.4 4.1 8.3 C 3.9 8.1 3.9 8 3.9 7.8 C 3.9 7.6 3.9 7.4 4.1 7.3 C 4.2 7.2 4.4 7.1 4.5 7.1 C 4.7 7.1 4.9 7.2 5 7.3 C 5.2 7.4 5.3 7.6 5.3 7.8 C 5.3 7.8 5.3 7.8 5.3 7.8 Z M 19.6 0.3 L 19.6 2.8 L 21.2 2.8 L 21.2 3.3 L 19.6 3.3 L 19.6 5.9 L 18.9 5.9 L 18.9 0.3 L 19.6 0.3 Z M 15.2 3.4 C 15 3.8 14.7 4.2 14.3 4.6 C 13.9 5 13.4 5.3 13 5.6 C 13 5.6 12.6 5.1 12.6 5.1 C 13.3 4.7 13.8 4.3 14.3 3.7 C 14.7 3.2 14.9 2.7 14.9 2.2 C 14.9 2.25 14.9 0.8 14.9 0.8 L 15.6 0.8 C 15.6 0.8 15.56 2.23 15.6 2.2 C 15.6 2.7 15.8 3.2 16.2 3.6 C 16.6 4.1 17.2 4.5 17.8 4.8 C 17.8 4.8 17.5 5.4 17.5 5.4 C 16.5 4.8 15.8 4.2 15.2 3.4 C 15.2 3.4 15.2 3.4 15.2 3.4 Z M 16.9 6.1 C 17.8 6.1 18.5 6.3 19 6.6 C 19.4 6.9 19.7 7.3 19.7 7.8 C 19.7 7.8 19.7 7.9 19.7 7.9 C 19.7 8.5 19.4 8.9 19 9.2 C 18.5 9.5 17.8 9.6 16.9 9.6 C 16.1 9.6 15.4 9.5 14.9 9.2 C 14.5 8.9 14.2 8.5 14.2 7.9 C 14.2 7.9 14.2 7.8 14.2 7.8 C 14.2 7.3 14.5 6.9 14.9 6.6 C 15.4 6.3 16.1 6.1 16.9 6.1 C 16.9 6.1 16.9 6.1 16.9 6.1 Z M 19 7.9 C 19 7.5 18.8 7.2 18.5 7 C 18.1 6.8 17.6 6.7 16.9 6.7 C 16.3 6.7 15.8 6.8 15.4 7 C 15 7.2 14.9 7.5 14.9 7.9 C 14.9 7.9 14.9 7.9 14.9 7.9 C 14.9 8.3 15 8.6 15.4 8.8 C 15.8 9 16.3 9.1 16.9 9.1 C 17.6 9.1 18.1 9 18.5 8.8 C 18.8 8.6 19 8.3 19 7.9 C 19 7.9 19 7.9 19 7.9 Z M 29.2 9.3 L 28.5 9.3 L 28.5 0.3 L 29.2 0.3 L 29.2 9.3 Z M 22.3 6.6 C 23.5 6.1 24.4 5.5 25 4.8 C 25.5 4.1 25.8 3.3 25.8 2.4 C 25.8 2.41 25.8 1.8 25.8 1.8 L 22.6 1.8 L 22.6 1.2 L 26.5 1.2 C 26.5 1.2 26.46 2.35 26.5 2.3 C 26.5 3.4 26.1 4.3 25.5 5.1 C 24.9 5.8 23.9 6.5 22.6 7.1 C 22.6 7.1 22.3 6.6 22.3 6.6 Z M 41.3 6 L 40.6 6 L 40.6 4.3 L 38.9 4.3 L 38.9 3.8 L 40.6 3.8 L 40.6 2.3 L 38.9 2.3 L 38.9 1.8 L 40.6 1.8 L 40.6 0.3 L 41.3 0.3 L 41.3 6 Z M 38.5 3.1 C 38.5 3.5 38.4 3.9 38.2 4.2 C 38 4.5 37.7 4.8 37.4 5 C 37.1 5.2 36.7 5.3 36.3 5.3 C 35.9 5.3 35.6 5.2 35.2 5 C 34.9 4.8 34.6 4.5 34.5 4.2 C 34.3 3.9 34.2 3.5 34.2 3.1 C 34.2 3.1 34.2 2.9 34.2 2.9 C 34.2 2.5 34.3 2.2 34.5 1.9 C 34.6 1.5 34.9 1.3 35.2 1.1 C 35.6 0.9 35.9 0.8 36.3 0.8 C 36.7 0.8 37.1 0.9 37.4 1.1 C 37.7 1.3 38 1.5 38.2 1.9 C 38.4 2.2 38.5 2.5 38.5 2.9 C 38.5 2.9 38.5 3.1 38.5 3.1 Z M 34.8 3.1 C 34.8 3.6 35 4 35.3 4.3 C 35.5 4.6 35.9 4.7 36.3 4.7 C 36.8 4.7 37.1 4.6 37.4 4.3 C 37.7 4 37.8 3.6 37.8 3.1 C 37.8 3.1 37.8 2.9 37.8 2.9 C 37.8 2.5 37.7 2.1 37.4 1.8 C 37.1 1.5 36.8 1.4 36.3 1.4 C 35.9 1.4 35.5 1.5 35.3 1.8 C 35 2.1 34.8 2.5 34.8 2.9 C 34.8 2.9 34.8 3.1 34.8 3.1 Z M 38.6 6 C 39.5 6 40.2 6.2 40.7 6.5 C 41.1 6.8 41.4 7.2 41.4 7.8 C 41.4 7.8 41.4 7.9 41.4 7.9 C 41.4 8.4 41.1 8.9 40.7 9.2 C 40.2 9.5 39.5 9.6 38.6 9.6 C 37.8 9.6 37.1 9.5 36.6 9.2 C 36.2 8.9 35.9 8.4 35.9 7.9 C 35.9 7.9 35.9 7.8 35.9 7.8 C 35.9 7.2 36.2 6.8 36.6 6.5 C 37.1 6.2 37.8 6 38.6 6 C 38.6 6 38.6 6 38.6 6 Z M 40.7 7.8 C 40.7 7.4 40.5 7.1 40.2 6.9 C 39.8 6.7 39.3 6.6 38.6 6.6 C 38 6.6 37.5 6.7 37.1 6.9 C 36.7 7.1 36.6 7.4 36.6 7.8 C 36.6 7.8 36.6 7.9 36.6 7.9 C 36.6 8.3 36.7 8.6 37.1 8.8 C 37.5 9 38 9.1 38.6 9.1 C 39.3 9.1 39.8 9 40.2 8.8 C 40.5 8.6 40.7 8.3 40.7 7.9 C 40.7 7.9 40.7 7.8 40.7 7.8 Z M 50.3 0.3 L 50.3 2.8 L 51.9 2.8 L 51.9 3.3 L 50.3 3.3 L 50.3 5.9 L 49.6 5.9 L 49.6 0.3 L 50.3 0.3 Z M 45.9 3.4 C 45.7 3.8 45.4 4.2 45 4.6 C 44.6 5 44.1 5.3 43.7 5.6 C 43.7 5.6 43.3 5.1 43.3 5.1 C 44 4.7 44.5 4.3 45 3.7 C 45.4 3.2 45.6 2.7 45.6 2.2 C 45.6 2.25 45.6 0.8 45.6 0.8 L 46.3 0.8 C 46.3 0.8 46.26 2.23 46.3 2.2 C 46.3 2.7 46.5 3.2 46.9 3.6 C 47.3 4.1 47.9 4.5 48.5 4.8 C 48.5 4.8 48.2 5.4 48.2 5.4 C 47.2 4.8 46.5 4.2 45.9 3.4 C 45.9 3.4 45.9 3.4 45.9 3.4 Z M 47.6 6.1 C 48.5 6.1 49.2 6.3 49.7 6.6 C 50.1 6.9 50.4 7.3 50.4 7.8 C 50.4 7.8 50.4 7.9 50.4 7.9 C 50.4 8.5 50.1 8.9 49.7 9.2 C 49.2 9.5 48.5 9.6 47.6 9.6 C 46.8 9.6 46.1 9.5 45.6 9.2 C 45.2 8.9 44.9 8.5 44.9 7.9 C 44.9 7.9 44.9 7.8 44.9 7.8 C 44.9 7.3 45.2 6.9 45.6 6.6 C 46.1 6.3 46.8 6.1 47.6 6.1 C 47.6 6.1 47.6 6.1 47.6 6.1 Z M 49.7 7.9 C 49.7 7.5 49.5 7.2 49.2 7 C 48.8 6.8 48.3 6.7 47.6 6.7 C 47 6.7 46.5 6.8 46.1 7 C 45.7 7.2 45.6 7.5 45.6 7.9 C 45.6 7.9 45.6 7.9 45.6 7.9 C 45.6 8.3 45.7 8.6 46.1 8.8 C 46.5 9 47 9.1 47.6 9.1 C 48.3 9.1 48.8 9 49.2 8.8 C 49.5 8.6 49.7 8.3 49.7 7.9 C 49.7 7.9 49.7 7.9 49.7 7.9 Z M 54.6 2.9 L 59.7 2.9 L 59.7 3.5 L 54 3.5 L 54 0.7 L 59.5 0.7 L 59.5 1.2 L 54.6 1.2 L 54.6 2.9 Z M 52.4 5 L 52.4 4.5 L 61 4.5 L 61 5 L 52.4 5 Z M 59.5 8.1 L 54.7 8.1 L 54.7 9.1 L 59.8 9.1 L 59.8 9.6 L 54 9.6 L 54 7.5 L 58.8 7.5 L 58.8 6.5 L 54 6.5 L 54 6 L 59.5 6 L 59.5 8.1 Z M 66.1 4.2 C 65.5 4.2 65 4.1 64.6 4 C 64.2 3.8 63.9 3.6 63.7 3.4 C 63.5 3.1 63.4 2.8 63.4 2.4 C 63.4 2.4 63.4 2.3 63.4 2.3 C 63.4 2 63.5 1.7 63.7 1.4 C 63.9 1.2 64.2 1 64.6 0.8 C 65 0.7 65.5 0.6 66.1 0.6 C 66.6 0.6 67.1 0.7 67.5 0.8 C 67.9 1 68.2 1.2 68.4 1.4 C 68.6 1.7 68.7 2 68.7 2.3 C 68.7 2.3 68.7 2.4 68.7 2.4 C 68.7 2.8 68.6 3.1 68.4 3.4 C 68.2 3.6 67.9 3.8 67.5 4 C 67.1 4.1 66.6 4.2 66.1 4.2 C 66.1 4.2 66.1 4.2 66.1 4.2 Z M 66 3.7 C 66.7 3.7 67.2 3.6 67.5 3.3 C 67.9 3.1 68.1 2.8 68.1 2.4 C 68.1 2.4 68.1 2.4 68.1 2.4 C 68.1 2 67.9 1.7 67.5 1.5 C 67.2 1.2 66.7 1.1 66 1.1 C 65.4 1.1 64.9 1.2 64.6 1.5 C 64.2 1.7 64 2 64 2.4 C 64 2.4 64 2.4 64 2.4 C 64 2.8 64.2 3.1 64.6 3.3 C 64.9 3.6 65.4 3.7 66 3.7 C 66 3.7 66 3.7 66 3.7 Z M 61.7 5.2 L 70.3 5.2 L 70.3 5.7 L 61.7 5.7 L 61.7 5.2 Z M 63.3 6.7 L 63.9 6.7 L 63.9 8.8 L 69 8.8 L 69 9.4 L 63.3 9.4 L 63.3 6.7 Z M 81 0.3 L 81 2.8 L 82.6 2.8 L 82.6 3.3 L 81 3.3 L 81 5.9 L 80.3 5.9 L 80.3 0.3 L 81 0.3 Z M 79.4 4.8 C 78.6 4.9 77.8 5 77.1 5.1 C 76.3 5.2 75.5 5.2 74.6 5.2 C 74.57 5.2 74.6 0.9 74.6 0.9 L 78.4 0.9 L 78.4 1.5 L 75.2 1.5 L 75.2 4.6 C 75.2 4.6 75.54 4.64 75.5 4.6 C 76 4.6 76.6 4.6 77.3 4.5 C 78 4.5 78.6 4.4 79.2 4.2 C 79.2 4.2 79.4 4.8 79.4 4.8 Z M 78.3 6.1 C 79.2 6.1 79.9 6.3 80.4 6.6 C 80.8 6.9 81.1 7.3 81.1 7.8 C 81.1 7.8 81.1 7.9 81.1 7.9 C 81.1 8.5 80.8 8.9 80.4 9.2 C 79.9 9.5 79.2 9.6 78.3 9.6 C 77.5 9.6 76.8 9.5 76.3 9.2 C 75.9 8.9 75.6 8.5 75.6 7.9 C 75.6 7.9 75.6 7.8 75.6 7.8 C 75.6 7.3 75.9 6.9 76.3 6.6 C 76.8 6.3 77.5 6.1 78.3 6.1 C 78.3 6.1 78.3 6.1 78.3 6.1 Z M 80.4 7.9 C 80.4 7.5 80.2 7.2 79.9 7 C 79.5 6.8 79 6.7 78.3 6.7 C 77.7 6.7 77.2 6.8 76.8 7 C 76.4 7.2 76.3 7.5 76.3 7.9 C 76.3 7.9 76.3 7.9 76.3 7.9 C 76.3 8.3 76.4 8.6 76.8 8.8 C 77.2 9 77.7 9.1 78.3 9.1 C 79 9.1 79.5 9 79.9 8.8 C 80.2 8.6 80.4 8.3 80.4 7.9 C 80.4 7.9 80.4 7.9 80.4 7.9 Z M 90.3 3.6 L 91.9 3.6 L 91.9 4.2 L 90.3 4.2 L 90.3 9.3 L 89.6 9.3 L 89.6 0.3 L 90.3 0.3 L 90.3 3.6 Z M 86.3 3.3 C 86.3 3.8 86.5 4.3 87 4.9 C 87.4 5.4 88 5.9 88.6 6.3 C 88.6 6.3 88.3 6.9 88.3 6.9 C 87.3 6.2 86.5 5.4 86 4.5 C 85.7 5 85.4 5.5 85 5.9 C 84.6 6.4 84.1 6.7 83.7 7 C 83.7 7 83.3 6.5 83.3 6.5 C 83.7 6.3 84.1 5.9 84.5 5.6 C 84.9 5.2 85.1 4.8 85.3 4.4 C 85.6 4 85.7 3.7 85.7 3.4 C 85.66 3.37 85.7 1.1 85.7 1.1 L 86.3 1.1 C 86.3 1.1 86.32 3.35 86.3 3.3 Z M 102.4 3.9 L 104 3.9 L 104 4.5 L 102.4 4.5 L 102.4 9.3 L 101.7 9.3 L 101.7 0.3 L 102.4 0.3 L 102.4 3.9 Z M 99.6 1.3 C 99.6 1.3 98.43 1.29 98.4 1.3 C 98 1.3 97.7 1.3 97.4 1.2 C 97.1 1.2 96.9 1.2 96.7 1.1 C 96.7 1.1 96.7 0.6 96.7 0.6 C 97.1 0.7 97.6 0.7 98.4 0.7 C 98.43 0.74 99.6 0.7 99.6 0.7 L 99.6 1.3 Z M 98.4 3.5 C 98.4 4 98.7 4.5 99.1 5 C 99.5 5.5 100.1 6 100.8 6.4 C 100.8 6.4 100.4 6.9 100.4 6.9 C 99.4 6.3 98.6 5.5 98.1 4.6 C 97.9 5.1 97.6 5.6 97.1 6 C 96.7 6.4 96.3 6.8 95.8 7.1 C 95.8 7.1 95.4 6.6 95.4 6.6 C 95.9 6.3 96.3 6 96.6 5.6 C 97 5.3 97.3 4.9 97.5 4.5 C 97.7 4.2 97.8 3.8 97.8 3.5 C 97.79 3.52 97.8 2.7 97.8 2.7 L 95.8 2.7 L 95.8 2.2 L 100.5 2.2 L 100.5 2.7 L 98.4 2.7 C 98.4 2.7 98.45 3.5 98.4 3.5 Z M 113.3 1.8 L 113.3 2.4 L 111.7 2.4 L 111.7 3.9 L 113.3 3.9 L 113.3 4.5 L 111.7 4.5 L 111.7 6 L 111 6 L 111 0.3 L 111.7 0.3 L 111.7 1.8 L 113.3 1.8 Z M 110.1 4.9 C 109.3 5.1 108.5 5.2 107.7 5.2 C 107 5.3 106.1 5.3 105.2 5.3 C 105.22 5.35 105.2 2.8 105.2 2.8 L 108.3 2.8 L 108.3 1.5 L 105.2 1.5 L 105.2 1 L 109 1 L 109 3.4 L 105.9 3.4 L 105.9 4.8 C 105.9 4.8 106.21 4.79 106.2 4.8 C 106.7 4.8 107.3 4.8 108 4.7 C 108.7 4.6 109.4 4.5 110 4.4 C 110 4.4 110.1 4.9 110.1 4.9 Z M 109 6.2 C 109.9 6.2 110.6 6.3 111.1 6.6 C 111.5 6.9 111.8 7.3 111.8 7.9 C 111.8 7.9 111.8 8 111.8 8 C 111.8 8.5 111.5 8.9 111.1 9.2 C 110.6 9.5 109.9 9.6 109 9.6 C 108.2 9.6 107.5 9.5 107 9.2 C 106.6 8.9 106.3 8.5 106.3 8 C 106.3 8 106.3 7.9 106.3 7.9 C 106.3 7.3 106.6 6.9 107 6.6 C 107.5 6.3 108.2 6.2 109 6.2 C 109 6.2 109 6.2 109 6.2 Z M 111.1 7.9 C 111.1 7.5 110.9 7.2 110.6 7 C 110.2 6.8 109.7 6.7 109 6.7 C 108.4 6.7 107.9 6.8 107.5 7 C 107.1 7.2 107 7.5 107 7.9 C 107 7.9 107 7.9 107 7.9 C 107 8.3 107.1 8.6 107.5 8.8 C 107.9 9 108.4 9.1 109 9.1 C 109.7 9.1 110.2 9 110.6 8.8 C 111 8.6 111.1 8.3 111.1 7.9 C 111.1 7.9 111.1 7.9 111.1 7.9 Z M 121.1 9.3 L 121.1 0.3 L 121.7 0.3 L 121.7 9.3 L 121.1 9.3 Z M 119.2 3.6 L 119.2 0.4 L 119.8 0.4 L 119.8 9 L 119.2 9 L 119.2 4.1 C 119.2 4.1 118 4.12 118 4.1 C 118 4.9 117.8 5.5 117.5 6 C 117.1 6.5 116.7 6.7 116.1 6.7 C 115.5 6.7 115.1 6.5 114.7 6 C 114.4 5.5 114.2 4.8 114.2 3.9 C 114.2 3.9 114.2 3.7 114.2 3.7 C 114.2 2.9 114.4 2.2 114.7 1.7 C 115.1 1.2 115.5 1 116.1 1 C 116.7 1 117.1 1.2 117.5 1.7 C 117.8 2.1 118 2.8 118 3.6 C 118 3.56 119.2 3.6 119.2 3.6 Z M 117.3 3.7 C 117.3 3 117.2 2.5 117 2.1 C 116.8 1.7 116.5 1.5 116.1 1.5 C 115.7 1.5 115.4 1.7 115.2 2.1 C 115 2.5 114.9 3 114.9 3.7 C 114.9 3.7 114.9 3.9 114.9 3.9 C 114.9 4.6 115 5.2 115.2 5.6 C 115.4 5.9 115.7 6.1 116.1 6.1 C 116.5 6.1 116.8 5.9 117 5.6 C 117.2 5.2 117.3 4.6 117.3 3.9 C 117.3 3.9 117.3 3.7 117.3 3.7 Z M 132.7 2.6 L 132.7 0.3 L 133.4 0.3 L 133.4 5.8 L 132.7 5.8 L 132.7 3.2 L 130.7 3.2 L 130.7 2.6 L 132.7 2.6 Z M 130.9 5.4 C 129.9 4.9 129.2 4.2 128.7 3.4 C 128.5 3.8 128.1 4.2 127.8 4.6 C 127.4 5 127 5.3 126.5 5.6 C 126.5 5.6 126.2 5.1 126.2 5.1 C 126.8 4.7 127.4 4.3 127.8 3.7 C 128.2 3.2 128.4 2.7 128.4 2.2 C 128.37 2.22 128.4 1.5 128.4 1.5 L 126.5 1.5 L 126.5 1 L 130.8 1 L 130.8 1.5 L 129 1.5 C 129 1.5 129.03 2.2 129 2.2 C 129 2.7 129.2 3.2 129.6 3.6 C 130 4.1 130.5 4.5 131.2 4.9 C 131.2 4.9 130.9 5.4 130.9 5.4 Z M 132.7 6.9 L 127.9 6.9 L 127.9 6.4 L 133.4 6.4 L 133.4 9.6 L 132.7 9.6 L 132.7 6.9 Z M 141.3 5 L 143.8 5 L 143.8 5.5 L 135.2 5.5 L 135.2 5 L 137.8 5 C 137.8 5 137.76 3.64 137.8 3.6 C 137.5 3.5 137.3 3.3 137.1 3.1 C 136.9 2.9 136.9 2.6 136.9 2.3 C 136.9 2.3 136.9 2.2 136.9 2.2 C 136.9 1.9 137 1.6 137.2 1.3 C 137.4 1.1 137.7 0.9 138.1 0.7 C 138.5 0.6 139 0.5 139.6 0.5 C 140.1 0.5 140.6 0.6 141 0.7 C 141.4 0.9 141.7 1.1 141.9 1.3 C 142.1 1.6 142.2 1.9 142.2 2.2 C 142.2 2.2 142.2 2.3 142.2 2.3 C 142.2 2.6 142.2 2.9 142 3.1 C 141.8 3.3 141.6 3.5 141.3 3.7 C 141.32 3.66 141.3 5 141.3 5 Z M 137.5 2.3 C 137.5 2.7 137.7 3 138.1 3.2 C 138.4 3.4 138.9 3.5 139.5 3.5 C 140.2 3.5 140.7 3.4 141 3.2 C 141.4 3 141.6 2.7 141.6 2.3 C 141.6 2.3 141.6 2.2 141.6 2.2 C 141.6 1.9 141.4 1.6 141 1.4 C 140.7 1.2 140.2 1.1 139.5 1.1 C 138.9 1.1 138.4 1.2 138.1 1.4 C 137.7 1.6 137.5 1.9 137.5 2.2 C 137.5 2.2 137.5 2.3 137.5 2.3 Z M 138.4 5 L 140.7 5 C 140.7 5 140.66 3.89 140.7 3.9 C 140.3 4 140 4 139.6 4 C 139.1 4 138.7 4 138.4 3.9 C 138.42 3.88 138.4 5 138.4 5 Z M 139.5 6.1 C 140.4 6.1 141.1 6.3 141.6 6.6 C 142 6.9 142.3 7.3 142.3 7.8 C 142.3 7.8 142.3 7.9 142.3 7.9 C 142.3 8.5 142 8.9 141.6 9.2 C 141.1 9.5 140.4 9.6 139.5 9.6 C 138.7 9.6 138 9.5 137.5 9.2 C 137.1 8.9 136.8 8.5 136.8 7.9 C 136.8 7.9 136.8 7.8 136.8 7.8 C 136.8 7.3 137.1 6.9 137.5 6.6 C 138 6.3 138.7 6.1 139.5 6.1 C 139.5 6.1 139.5 6.1 139.5 6.1 Z M 141.6 7.9 C 141.6 7.5 141.4 7.2 141.1 7 C 140.7 6.8 140.2 6.7 139.5 6.7 C 138.9 6.7 138.4 6.8 138 7 C 137.6 7.2 137.5 7.5 137.5 7.9 C 137.5 7.9 137.5 7.9 137.5 7.9 C 137.5 8.3 137.6 8.6 138 8.8 C 138.4 9 138.9 9.1 139.5 9.1 C 140.2 9.1 140.7 9 141.1 8.8 C 141.4 8.6 141.6 8.3 141.6 7.9 C 141.6 7.9 141.6 7.9 141.6 7.9 Z M 151.3 0.3 L 152 0.3 L 152 7.6 L 151.3 7.6 L 151.3 0.3 Z M 150.6 5.6 C 149.9 5.8 149.2 5.9 148.5 6 C 147.8 6 147.1 6.1 146.3 6.1 C 146.32 6.07 144.5 6.1 144.5 6.1 L 144.5 5.5 C 144.5 5.5 146.62 5.51 146.6 5.5 C 146.9 5.5 147.1 5.5 147.3 5.5 C 147.26 5.5 147.3 4.1 147.3 4.1 L 145.4 4.1 L 145.4 1 L 149.8 1 L 149.8 1.6 L 146 1.6 L 146 3.6 L 150 3.6 L 150 4.1 L 147.9 4.1 C 147.9 4.1 147.92 5.47 147.9 5.5 C 148.8 5.4 149.6 5.3 150.5 5.1 C 150.5 5.1 150.6 5.6 150.6 5.6 Z M 147.2 6.8 L 147.2 8.9 L 152.3 8.9 L 152.3 9.5 L 146.6 9.5 L 146.6 6.8 L 147.2 6.8 Z M 157.7 4.1 C 158.2 4 158.7 3.8 159.1 3.5 C 159.6 3.3 159.9 3 160.2 2.8 C 160.5 2.5 160.6 2.2 160.6 1.9 C 160.61 1.94 160.6 1.4 160.6 1.4 L 158.2 1.4 L 158.2 0.9 L 163.7 0.9 L 163.7 1.4 L 161.3 1.4 C 161.3 1.4 161.29 1.94 161.3 1.9 C 161.3 2.2 161.4 2.5 161.7 2.7 C 161.9 3 162.3 3.2 162.7 3.4 C 163.2 3.7 163.6 3.8 164.1 4 C 164.1 4 164 4.5 164 4.5 C 163.3 4.4 162.8 4.1 162.2 3.9 C 161.7 3.6 161.3 3.2 160.9 2.9 C 160.6 3.3 160.2 3.6 159.6 3.9 C 159.1 4.2 158.5 4.5 157.9 4.6 C 157.9 4.6 157.7 4.1 157.7 4.1 Z M 156.6 5.6 L 165.2 5.6 L 165.2 6.1 L 161.3 6.1 L 161.3 9.4 L 160.6 9.4 L 160.6 6.1 L 156.6 6.1 L 156.6 5.6 Z M 170.2 5.3 C 169.6 5.3 169.1 5.2 168.7 5.1 C 168.2 4.9 167.9 4.6 167.6 4.3 C 167.4 4 167.3 3.6 167.3 3.2 C 167.3 3.2 167.3 3.1 167.3 3.1 C 167.3 2.6 167.4 2.3 167.6 1.9 C 167.9 1.6 168.2 1.4 168.7 1.2 C 169.1 1 169.6 0.9 170.2 0.9 C 170.9 0.9 171.4 1 171.8 1.2 C 172.3 1.4 172.6 1.6 172.8 1.9 C 173.1 2.3 173.2 2.6 173.2 3.1 C 173.2 3.1 173.2 3.2 173.2 3.2 C 173.2 3.6 173.1 4 172.8 4.3 C 172.6 4.6 172.3 4.9 171.8 5.1 C 171.4 5.2 170.9 5.3 170.2 5.3 C 170.2 5.3 170.2 5.3 170.2 5.3 Z M 168 3.1 C 168 3.6 168.2 4 168.6 4.3 C 168.9 4.6 169.5 4.8 170.2 4.8 C 171 4.8 171.6 4.6 171.9 4.3 C 172.3 4 172.5 3.6 172.5 3.1 C 172.5 3.1 172.5 3.1 172.5 3.1 C 172.5 2.6 172.3 2.2 171.9 1.9 C 171.6 1.6 171 1.5 170.2 1.5 C 169.5 1.5 168.9 1.6 168.6 1.9 C 168.2 2.2 168 2.6 168 3.1 C 168 3.1 168 3.1 168 3.1 Z M 172.1 5.6 L 172.1 7.9 L 174.5 7.9 L 174.5 8.5 L 165.9 8.5 L 165.9 7.9 L 168.4 7.9 L 168.4 5.6 L 169.1 5.6 L 169.1 7.9 L 171.4 7.9 L 171.4 5.6 L 172.1 5.6 Z M 185.5 9.3 L 184.8 9.3 L 184.8 0.3 L 185.5 0.3 L 185.5 9.3 Z M 178.6 6.6 C 179.8 6.1 180.7 5.5 181.3 4.8 C 181.8 4.1 182.1 3.3 182.1 2.4 C 182.1 2.41 182.1 1.8 182.1 1.8 L 178.9 1.8 L 178.9 1.2 L 182.8 1.2 C 182.8 1.2 182.76 2.35 182.8 2.3 C 182.8 3.4 182.4 4.3 181.8 5.1 C 181.2 5.8 180.2 6.5 178.9 7.1 C 178.9 7.1 178.6 6.6 178.6 6.6 Z M 194.6 3.2 L 194.6 3.8 L 188.9 3.8 L 188.9 0.6 L 189.5 0.6 L 189.5 3.2 L 194.6 3.2 Z M 187.3 4.9 L 195.9 4.9 L 195.9 5.5 L 187.3 5.5 L 187.3 4.9 Z M 191.6 9.6 C 190.8 9.6 190.1 9.5 189.6 9.2 C 189.2 8.9 188.9 8.5 188.9 8 C 188.9 8 188.9 7.9 188.9 7.9 C 188.9 7.4 189.2 7 189.6 6.7 C 190.1 6.4 190.8 6.3 191.6 6.3 C 192.5 6.3 193.2 6.4 193.7 6.7 C 194.1 7 194.4 7.4 194.4 7.9 C 194.4 7.9 194.4 8 194.4 8 C 194.4 8.5 194.1 8.9 193.7 9.2 C 193.2 9.5 192.5 9.6 191.6 9.6 C 191.6 9.6 191.6 9.6 191.6 9.6 Z M 191.6 9.1 C 192.3 9.1 192.8 9 193.2 8.8 C 193.6 8.6 193.7 8.3 193.7 8 C 193.7 8 193.7 7.9 193.7 7.9 C 193.7 7.6 193.5 7.3 193.2 7.1 C 192.8 6.9 192.3 6.8 191.6 6.8 C 191 6.8 190.5 6.9 190.1 7.1 C 189.7 7.3 189.6 7.6 189.6 7.9 C 189.6 7.9 189.6 8 189.6 8 C 189.6 8.3 189.7 8.6 190.1 8.8 C 190.5 9 191 9.1 191.6 9.1 C 191.6 9.1 191.6 9.1 191.6 9.1 Z M 198.8 2.9 L 203.9 2.9 L 203.9 3.5 L 198.2 3.5 L 198.2 0.7 L 203.7 0.7 L 203.7 1.2 L 198.8 1.2 L 198.8 2.9 Z M 196.6 5 L 196.6 4.5 L 205.2 4.5 L 205.2 5 L 196.6 5 Z M 203.7 8.1 L 198.9 8.1 L 198.9 9.1 L 204 9.1 L 204 9.6 L 198.2 9.6 L 198.2 7.5 L 203 7.5 L 203 6.5 L 198.2 6.5 L 198.2 6 L 203.7 6 L 203.7 8.1 Z M 213.4 9.3 L 212.7 9.3 L 212.7 0.3 L 213.4 0.3 L 213.4 9.3 Z M 209 5.4 C 208.5 5.4 208.2 5.3 207.8 5.1 C 207.5 4.9 207.2 4.7 207 4.4 C 206.8 4.1 206.7 3.7 206.7 3.3 C 206.7 3.3 206.7 3.1 206.7 3.1 C 206.7 2.7 206.8 2.4 207 2 C 207.2 1.7 207.5 1.5 207.8 1.3 C 208.2 1.1 208.5 1 209 1 C 209.4 1 209.8 1.1 210.1 1.3 C 210.5 1.5 210.7 1.7 210.9 2 C 211.1 2.4 211.2 2.7 211.2 3.1 C 211.2 3.1 211.2 3.3 211.2 3.3 C 211.2 3.7 211.1 4.1 210.9 4.4 C 210.7 4.7 210.5 4.9 210.1 5.1 C 209.8 5.3 209.4 5.4 209 5.4 C 209 5.4 209 5.4 209 5.4 Z M 209 4.8 C 209.4 4.8 209.8 4.7 210.1 4.4 C 210.4 4.1 210.6 3.8 210.6 3.3 C 210.6 3.3 210.6 3.1 210.6 3.1 C 210.6 2.8 210.5 2.5 210.4 2.3 C 210.2 2.1 210 1.9 209.8 1.8 C 209.5 1.6 209.3 1.6 209 1.6 C 208.5 1.6 208.1 1.7 207.8 2 C 207.5 2.3 207.3 2.7 207.3 3.1 C 207.3 3.1 207.3 3.3 207.3 3.3 C 207.3 3.8 207.5 4.1 207.8 4.4 C 208.1 4.7 208.5 4.8 209 4.8 C 209 4.8 209 4.8 209 4.8 Z M 205.9 7.6 L 205.9 7.1 C 205.9 7.1 208.02 7.09 208 7.1 C 209.4 7.1 210.7 7 211.9 6.7 C 211.9 6.7 212 7.2 212 7.2 C 211.3 7.4 210.6 7.5 209.9 7.5 C 209.2 7.6 208.5 7.6 207.7 7.6 C 207.72 7.65 205.9 7.6 205.9 7.6 Z M 225.5 9.3 L 224.8 9.3 L 224.8 0.3 L 225.5 0.3 L 225.5 9.3 Z M 220.9 6.8 C 220.4 6.8 220 6.7 219.6 6.5 C 219.3 6.3 219 5.9 218.8 5.5 C 218.6 5.1 218.5 4.6 218.5 4 C 218.5 4 218.5 3.8 218.5 3.8 C 218.5 3.2 218.6 2.7 218.8 2.3 C 219 1.9 219.3 1.5 219.6 1.3 C 220 1.1 220.4 1 220.9 1 C 221.4 1 221.8 1.1 222.1 1.3 C 222.5 1.5 222.7 1.9 222.9 2.3 C 223.1 2.7 223.2 3.2 223.2 3.8 C 223.2 3.8 223.2 4 223.2 4 C 223.2 4.6 223.1 5.1 222.9 5.5 C 222.7 5.9 222.5 6.3 222.1 6.5 C 221.8 6.7 221.4 6.8 220.9 6.8 C 220.9 6.8 220.9 6.8 220.9 6.8 Z M 220.9 6.3 C 221.4 6.3 221.8 6.1 222.1 5.7 C 222.4 5.3 222.6 4.7 222.6 4 C 222.6 4 222.6 3.8 222.6 3.8 C 222.6 3.1 222.4 2.5 222.1 2.1 C 221.8 1.7 221.4 1.5 220.9 1.5 C 220.3 1.5 219.9 1.7 219.6 2.1 C 219.3 2.5 219.2 3.1 219.2 3.8 C 219.2 3.8 219.2 4 219.2 4 C 219.2 4.7 219.3 5.3 219.6 5.7 C 219.9 6.1 220.3 6.3 220.9 6.3 C 220.9 6.3 220.9 6.3 220.9 6.3 Z M 234.6 4.1 L 234.6 0.3 L 235.2 0.3 L 235.2 9.3 L 234.6 9.3 L 234.6 4.7 L 233.2 4.7 L 233.2 9 L 232.6 9 L 232.6 0.4 L 233.2 0.4 L 233.2 4.1 L 234.6 4.1 Z M 231.1 1.4 C 231.1 1.4 230.1 1.44 230.1 1.4 C 229.4 1.4 228.9 1.4 228.5 1.3 C 228.5 1.3 228.5 0.7 228.5 0.7 C 228.9 0.8 229.4 0.9 230.1 0.9 C 230.1 0.89 231.1 0.9 231.1 0.9 L 231.1 1.4 Z M 232 2.7 L 227.6 2.7 L 227.6 2.2 L 232 2.2 L 232 2.7 Z M 229.8 3.4 C 230.1 3.4 230.4 3.5 230.7 3.6 C 230.9 3.8 231.1 4 231.3 4.2 C 231.4 4.5 231.5 4.8 231.5 5.1 C 231.5 5.1 231.5 5.2 231.5 5.2 C 231.5 5.6 231.4 5.9 231.3 6.1 C 231.1 6.4 230.9 6.6 230.7 6.7 C 230.4 6.9 230.1 7 229.8 7 C 229.5 7 229.2 6.9 228.9 6.7 C 228.6 6.6 228.4 6.4 228.3 6.1 C 228.1 5.9 228.1 5.6 228.1 5.2 C 228.1 5.2 228.1 5.1 228.1 5.1 C 228.1 4.8 228.1 4.5 228.3 4.2 C 228.4 4 228.6 3.8 228.9 3.6 C 229.2 3.5 229.5 3.4 229.8 3.4 C 229.8 3.4 229.8 3.4 229.8 3.4 Z M 230.9 5.1 C 230.9 4.8 230.8 4.5 230.6 4.3 C 230.4 4 230.1 3.9 229.8 3.9 C 229.5 3.9 229.2 4 229 4.3 C 228.8 4.5 228.7 4.8 228.7 5.1 C 228.7 5.1 228.7 5.2 228.7 5.2 C 228.7 5.6 228.8 5.9 229 6.1 C 229.2 6.3 229.5 6.4 229.8 6.4 C 230.1 6.4 230.4 6.3 230.6 6.1 C 230.8 5.9 230.9 5.6 230.9 5.2 C 230.9 5.2 230.9 5.1 230.9 5.1 Z M 238.2 2 L 243 2 L 243 1.2 L 238.2 1.2 L 238.2 0.7 L 243.7 0.7 L 243.7 2.6 L 238.9 2.6 L 238.9 3.5 L 243.9 3.5 L 243.9 4 L 238.2 4 L 238.2 2 Z M 236.6 4.8 L 245.2 4.8 L 245.2 5.4 L 236.6 5.4 L 236.6 4.8 Z M 238.2 6.2 L 243.7 6.2 L 243.7 8.2 L 238.9 8.2 L 238.9 9.1 L 244 9.1 L 244 9.6 L 238.2 9.6 L 238.2 7.6 L 243 7.6 L 243 6.7 L 238.2 6.7 L 238.2 6.2 Z M 253.4 3.8 L 253.4 4.9 L 257.3 4.9 L 257.3 5.5 L 248.7 5.5 L 248.7 4.9 L 252.7 4.9 L 252.7 3.8 L 250.3 3.8 L 250.3 0.7 L 255.8 0.7 L 255.8 1.3 L 250.9 1.3 L 250.9 3.2 L 256 3.2 L 256 3.8 L 253.4 3.8 Z M 250.9 7.4 L 255.1 7.4 L 255.1 6.3 L 255.8 6.3 L 255.8 9.5 L 250.3 9.5 L 250.3 6.3 L 250.9 6.3 L 250.9 7.4 Z M 250.9 7.9 L 250.9 9 L 255.1 9 L 255.1 7.9 L 250.9 7.9 Z M 265.5 9.3 L 264.8 9.3 L 264.8 0.3 L 265.5 0.3 L 265.5 9.3 Z M 258.6 6.6 C 259.8 6.1 260.7 5.5 261.3 4.8 C 261.8 4.1 262.1 3.3 262.1 2.4 C 262.1 2.41 262.1 1.8 262.1 1.8 L 258.9 1.8 L 258.9 1.2 L 262.8 1.2 C 262.8 1.2 262.76 2.35 262.8 2.3 C 262.8 3.4 262.4 4.3 261.8 5.1 C 261.2 5.8 260.2 6.5 258.9 7.1 C 258.9 7.1 258.6 6.6 258.6 6.6 Z M 276.9 9.3 L 276.9 0.3 L 277.6 0.3 L 277.6 9.3 L 276.9 9.3 Z M 273.1 4.5 C 272.7 4.5 272.3 4.4 272 4.3 C 271.6 4.2 271.4 4 271.2 3.7 C 271 3.4 270.9 3.2 270.9 2.8 C 270.9 2.8 270.9 2.7 270.9 2.7 C 270.9 2.4 271 2.1 271.2 1.8 C 271.4 1.6 271.6 1.4 272 1.2 C 272.3 1.1 272.7 1 273.1 1 C 273.5 1 273.9 1.1 274.3 1.2 C 274.6 1.4 274.9 1.6 275 1.8 C 275.2 2.1 275.3 2.4 275.3 2.7 C 275.3 2.7 275.3 2.8 275.3 2.8 C 275.3 3.2 275.2 3.4 275 3.7 C 274.9 4 274.6 4.2 274.3 4.3 C 273.9 4.4 273.5 4.5 273.1 4.5 C 273.1 4.5 273.1 4.5 273.1 4.5 Z M 271.5 2.8 C 271.5 3.2 271.7 3.4 272 3.7 C 272.3 3.9 272.6 4 273.1 4 C 273.6 4 274 3.9 274.2 3.7 C 274.5 3.4 274.7 3.2 274.7 2.8 C 274.7 2.8 274.7 2.7 274.7 2.7 C 274.7 2.4 274.5 2.1 274.2 1.9 C 274 1.7 273.6 1.5 273.1 1.5 C 272.6 1.5 272.3 1.7 272 1.9 C 271.7 2.1 271.5 2.4 271.5 2.7 C 271.5 2.7 271.5 2.8 271.5 2.8 Z M 276.3 5.6 C 275.4 5.8 274.5 5.9 273.5 5.9 C 273.53 5.94 273.5 9.1 273.5 9.1 L 272.9 9.1 C 272.9 9.1 272.87 5.97 272.9 6 C 272.7 6 272.4 6 272 6 C 271.97 5.99 270.1 6 270.1 6 L 270.1 5.4 C 270.1 5.4 272.27 5.43 272.3 5.4 C 273.6 5.4 274.9 5.3 276.2 5 C 276.2 5 276.3 5.6 276.3 5.6 Z M 286.7 4.1 L 286.7 0.3 L 287.3 0.3 L 287.3 9.3 L 286.7 9.3 L 286.7 4.7 L 285.3 4.7 L 285.3 9 L 284.7 9 L 284.7 0.4 L 285.3 0.4 L 285.3 4.1 L 286.7 4.1 Z M 283.2 1.4 C 283.2 1.4 282.2 1.44 282.2 1.4 C 281.5 1.4 281 1.4 280.6 1.3 C 280.6 1.3 280.6 0.7 280.6 0.7 C 281 0.8 281.5 0.9 282.2 0.9 C 282.2 0.89 283.2 0.9 283.2 0.9 L 283.2 1.4 Z M 284.1 2.7 L 279.7 2.7 L 279.7 2.2 L 284.1 2.2 L 284.1 2.7 Z M 281.9 3.4 C 282.2 3.4 282.5 3.5 282.8 3.6 C 283 3.8 283.2 4 283.4 4.2 C 283.5 4.5 283.6 4.8 283.6 5.1 C 283.6 5.1 283.6 5.2 283.6 5.2 C 283.6 5.6 283.5 5.9 283.4 6.1 C 283.2 6.4 283 6.6 282.8 6.7 C 282.5 6.9 282.2 7 281.9 7 C 281.6 7 281.3 6.9 281 6.7 C 280.7 6.6 280.5 6.4 280.4 6.1 C 280.2 5.9 280.2 5.6 280.2 5.2 C 280.2 5.2 280.2 5.1 280.2 5.1 C 280.2 4.8 280.2 4.5 280.4 4.2 C 280.5 4 280.7 3.8 281 3.6 C 281.3 3.5 281.6 3.4 281.9 3.4 C 281.9 3.4 281.9 3.4 281.9 3.4 Z M 283 5.1 C 283 4.8 282.9 4.5 282.7 4.3 C 282.5 4 282.2 3.9 281.9 3.9 C 281.6 3.9 281.3 4 281.1 4.3 C 280.9 4.5 280.8 4.8 280.8 5.1 C 280.8 5.1 280.8 5.2 280.8 5.2 C 280.8 5.6 280.9 5.9 281.1 6.1 C 281.3 6.3 281.6 6.4 281.9 6.4 C 282.2 6.4 282.5 6.3 282.7 6.1 C 282.9 5.9 283 5.6 283 5.2 C 283 5.2 283 5.1 283 5.1 Z M 298.8 9.3 L 298.8 0.3 L 299.4 0.3 L 299.4 9.3 L 298.8 9.3 Z M 295.3 3.4 L 296.9 3.4 L 296.9 0.4 L 297.5 0.4 L 297.5 9 L 296.9 9 L 296.9 4 L 295.3 4 L 295.3 3.4 Z M 294.3 3.4 C 294.3 3.9 294.5 4.4 294.8 4.9 C 295.2 5.4 295.7 5.9 296.3 6.3 C 296.3 6.3 296 6.8 296 6.8 C 295.1 6.2 294.4 5.5 294 4.6 C 293.6 5.6 292.9 6.3 292 7 C 292 7 291.6 6.5 291.6 6.5 C 292.2 6.1 292.7 5.6 293.1 5 C 293.5 4.5 293.7 3.9 293.7 3.4 C 293.66 3.42 293.7 1.8 293.7 1.8 L 292.1 1.8 L 292.1 1.2 L 295.9 1.2 L 295.9 1.8 L 294.3 1.8 C 294.3 1.8 294.32 3.4 294.3 3.4 Z M 308 2.8 L 309.6 2.8 L 309.6 3.3 L 308 3.3 L 308 5.8 L 307.3 5.8 L 307.3 0.3 L 308 0.3 L 308 2.8 Z M 303.6 3.4 C 303.4 3.8 303 4.2 302.7 4.6 C 302.3 5 301.9 5.3 301.4 5.6 C 301.4 5.6 301 5 301 5 C 301.7 4.7 302.2 4.2 302.7 3.7 C 303.1 3.2 303.3 2.7 303.3 2.2 C 303.3 2.21 303.3 1.5 303.3 1.5 L 301.4 1.5 L 301.4 1 L 305.9 1 L 305.9 1.5 L 304 1.5 C 304 1.5 303.96 2.19 304 2.2 C 304 2.7 304.2 3.1 304.6 3.6 C 305 4.1 305.5 4.5 306.2 4.9 C 306.2 4.9 305.9 5.4 305.9 5.4 C 304.9 4.9 304.1 4.2 303.6 3.4 C 303.6 3.4 303.6 3.4 303.6 3.4 Z M 307.3 6.9 L 302.5 6.9 L 302.5 6.4 L 308 6.4 L 308 9.6 L 307.3 9.6 L 307.3 6.9 Z M 316.9 0.3 L 317.6 0.3 L 317.6 7.6 L 316.9 7.6 L 316.9 0.3 Z M 316.2 5.6 C 315.5 5.8 314.7 5.9 314.1 6 C 313.4 6 312.7 6.1 311.9 6.1 C 311.92 6.07 310.1 6.1 310.1 6.1 L 310.1 5.5 C 310.1 5.5 312.22 5.51 312.2 5.5 C 312.5 5.5 312.7 5.5 312.9 5.5 C 312.86 5.5 312.9 4.1 312.9 4.1 L 311 4.1 L 311 1 L 315.4 1 L 315.4 1.6 L 311.6 1.6 L 311.6 3.6 L 315.6 3.6 L 315.6 4.1 L 313.5 4.1 C 313.5 4.1 313.52 5.47 313.5 5.5 C 314.4 5.4 315.2 5.3 316.1 5.1 C 316.1 5.1 316.2 5.6 316.2 5.6 Z M 312.8 6.8 L 312.8 8.9 L 317.9 8.9 L 317.9 9.5 L 312.2 9.5 L 312.2 6.8 L 312.8 6.8 Z M 329.7 6.7 L 329 6.7 L 329 3.7 L 326.9 3.7 L 326.9 3.1 L 329 3.1 L 329 0.3 L 329.7 0.3 L 329.7 6.7 Z M 326.7 1.9 C 326.7 2.8 326.4 3.6 325.7 4.3 C 325.1 4.9 324.1 5.5 322.8 5.9 C 322.8 5.9 322.6 5.3 322.6 5.3 C 324.9 4.6 326.1 3.5 326.1 2 C 326.1 1.96 326.1 1.6 326.1 1.6 L 323 1.6 L 323 1 L 326.7 1 C 326.7 1 326.75 1.9 326.7 1.9 Z M 327.4 6.8 C 327.4 7.1 327.6 7.4 327.9 7.8 C 328.2 8.1 328.6 8.3 329.1 8.6 C 329.5 8.8 330 9 330.5 9 C 330.5 9 330.3 9.6 330.3 9.6 C 329.7 9.4 329.1 9.2 328.5 8.9 C 327.9 8.6 327.5 8.3 327.1 7.8 C 326.7 8.3 326.2 8.6 325.7 8.9 C 325.1 9.3 324.5 9.5 323.9 9.6 C 323.9 9.6 323.7 9.1 323.7 9.1 C 324.2 9 324.7 8.8 325.1 8.6 C 325.6 8.3 326 8.1 326.3 7.8 C 326.6 7.4 326.8 7.1 326.8 6.8 C 326.76 6.84 326.8 6 326.8 6 L 327.4 6 C 327.4 6 327.42 6.84 327.4 6.8 Z M 335.8 5.7 C 335.2 5.7 334.7 5.6 334.3 5.4 C 333.8 5.2 333.5 4.9 333.2 4.5 C 333 4.2 332.9 3.8 332.9 3.4 C 332.9 3.4 332.9 3.3 332.9 3.3 C 332.9 2.8 333 2.4 333.2 2.1 C 333.5 1.7 333.8 1.5 334.3 1.3 C 334.7 1.1 335.2 1 335.8 1 C 336.5 1 337 1.1 337.4 1.3 C 337.9 1.5 338.2 1.7 338.4 2.1 C 338.7 2.4 338.8 2.8 338.8 3.3 C 338.8 3.3 338.8 3.4 338.8 3.4 C 338.8 3.8 338.7 4.2 338.4 4.5 C 338.2 4.9 337.9 5.2 337.4 5.4 C 337 5.6 336.5 5.7 335.8 5.7 C 335.8 5.7 335.8 5.7 335.8 5.7 Z M 335.8 5.1 C 336.6 5.1 337.1 4.9 337.5 4.6 C 337.9 4.3 338.1 3.9 338.1 3.3 C 338.1 3.3 338.1 3.3 338.1 3.3 C 338.1 2.8 337.9 2.3 337.5 2 C 337.1 1.7 336.6 1.5 335.8 1.5 C 335.1 1.5 334.6 1.7 334.2 2 C 333.8 2.3 333.6 2.8 333.6 3.3 C 333.6 3.3 333.6 3.3 333.6 3.3 C 333.6 3.9 333.8 4.3 334.2 4.6 C 334.6 4.9 335.1 5.1 335.8 5.1 C 335.8 5.1 335.8 5.1 335.8 5.1 Z M 331.5 7.9 L 340.1 7.9 L 340.1 8.5 L 331.5 8.5 L 331.5 7.9 Z M 345.5 5.9 L 345.5 7.9 L 349.4 7.9 L 349.4 8.5 L 340.8 8.5 L 340.8 7.9 L 344.8 7.9 L 344.8 5.9 L 342.3 5.9 L 342.3 3.1 L 347.3 3.1 L 347.3 1.5 L 342.3 1.5 L 342.3 0.9 L 347.9 0.9 L 347.9 3.7 L 343 3.7 L 343 5.4 L 348.2 5.4 L 348.2 5.9 L 345.5 5.9 Z M 350.8 9.4 L 350.2 9.4 L 350.6 7.1 L 351.6 7.1 L 350.8 9.4 Z M 362.5 9.3 L 362.5 0.3 L 363.2 0.3 L 363.2 9.3 L 362.5 9.3 Z M 358.9 3.4 L 360.7 3.4 L 360.7 0.4 L 361.3 0.4 L 361.3 9 L 360.7 9 L 360.7 4 L 358.9 4 L 358.9 3.4 Z M 358 3.3 C 358 3.8 358.2 4.3 358.5 4.9 C 358.8 5.4 359.3 5.9 359.9 6.3 C 359.9 6.3 359.5 6.8 359.5 6.8 C 358.7 6.2 358 5.4 357.7 4.6 C 357.3 5.4 356.7 6.3 355.8 7 C 355.8 7 355.4 6.6 355.4 6.6 C 356 6.1 356.4 5.6 356.8 5 C 357.2 4.3 357.3 3.8 357.3 3.3 C 357.33 3.29 357.3 1.1 357.3 1.1 L 358 1.1 C 358 1.1 357.99 3.27 358 3.3 Z M 371.1 0.7 L 371.7 0.7 L 371.7 4.5 L 366.1 4.5 L 366.1 0.7 L 366.8 0.7 L 366.8 2 L 371.1 2 L 371.1 0.7 Z M 366.8 2.6 L 366.8 3.9 L 371.1 3.9 L 371.1 2.6 L 366.8 2.6 Z M 364.6 5.7 L 373.2 5.7 L 373.2 6.2 L 369.2 6.2 L 369.2 9.4 L 368.6 9.4 L 368.6 6.2 L 364.6 6.2 L 364.6 5.7 Z M 384.1 9.3 L 383.5 9.3 L 383.5 0.3 L 384.1 0.3 L 384.1 9.3 Z M 377.3 6.6 C 378.5 6.1 379.4 5.5 379.9 4.8 C 380.5 4.1 380.8 3.3 380.8 2.4 C 380.77 2.41 380.8 1.8 380.8 1.8 L 377.6 1.8 L 377.6 1.2 L 381.4 1.2 C 381.4 1.2 381.43 2.35 381.4 2.3 C 381.4 3.4 381.1 4.3 380.5 5.1 C 379.9 5.8 378.9 6.5 377.6 7.1 C 377.6 7.1 377.3 6.6 377.3 6.6 Z M 393.3 3.2 L 393.3 3.8 L 387.6 3.8 L 387.6 0.6 L 388.2 0.6 L 388.2 3.2 L 393.3 3.2 Z M 386 4.9 L 394.6 4.9 L 394.6 5.5 L 386 5.5 L 386 4.9 Z M 390.3 9.6 C 389.5 9.6 388.8 9.5 388.3 9.2 C 387.8 8.9 387.6 8.5 387.6 8 C 387.6 8 387.6 7.9 387.6 7.9 C 387.6 7.4 387.8 7 388.3 6.7 C 388.8 6.4 389.5 6.3 390.3 6.3 C 391.2 6.3 391.8 6.4 392.3 6.7 C 392.8 7 393 7.4 393 7.9 C 393 7.9 393 8 393 8 C 393 8.5 392.8 8.9 392.3 9.2 C 391.8 9.5 391.2 9.6 390.3 9.6 C 390.3 9.6 390.3 9.6 390.3 9.6 Z M 390.3 9.1 C 391 9.1 391.5 9 391.9 8.8 C 392.2 8.6 392.4 8.3 392.4 8 C 392.4 8 392.4 7.9 392.4 7.9 C 392.4 7.6 392.2 7.3 391.9 7.1 C 391.5 6.9 391 6.8 390.3 6.8 C 389.7 6.8 389.1 6.9 388.8 7.1 C 388.4 7.3 388.2 7.6 388.2 7.9 C 388.2 7.9 388.2 8 388.2 8 C 388.2 8.3 388.4 8.6 388.8 8.8 C 389.1 9 389.6 9.1 390.3 9.1 C 390.3 9.1 390.3 9.1 390.3 9.1 Z M 404.9 0.3 L 405.5 0.3 L 405.5 5.5 L 404.9 5.5 L 404.9 0.3 Z M 398.9 0.9 L 402.7 0.9 L 402.7 4.8 L 398.9 4.8 L 398.9 0.9 Z M 399.5 4.2 L 402.1 4.2 L 402.1 1.4 L 399.5 1.4 L 399.5 4.2 Z M 401.5 5.4 C 401.7 5.5 402 5.5 402.2 5.5 C 402.5 5.5 402.9 5.6 403.3 5.6 C 403.27 5.56 404.4 5.6 404.4 5.6 L 404.4 6.1 C 404.4 6.1 403.27 6.12 403.3 6.1 C 402.9 6.1 402.5 6.1 402.3 6.1 C 402 6.1 401.7 6 401.5 6 C 401.5 6 401.5 5.4 401.5 5.4 Z M 406.1 9.7 C 405.5 9.6 404.9 9.4 404.4 9.1 C 403.9 8.9 403.4 8.6 403 8.2 C 402.6 8.6 402.2 8.9 401.6 9.1 C 401.1 9.4 400.5 9.6 399.9 9.7 C 399.9 9.7 399.7 9.2 399.7 9.2 C 400.2 9.1 400.7 9 401.1 8.8 C 401.6 8.6 402 8.4 402.2 8.1 C 402.5 7.9 402.7 7.7 402.7 7.5 C 402.68 7.47 402.7 7.4 402.7 7.4 L 400.2 7.4 L 400.2 6.8 L 405.8 6.8 L 405.8 7.4 L 403.3 7.4 C 403.3 7.4 403.34 7.47 403.3 7.5 C 403.3 7.7 403.5 7.9 403.8 8.1 C 404.1 8.4 404.5 8.6 404.9 8.8 C 405.4 9 405.9 9.1 406.3 9.1 C 406.3 9.1 406.1 9.7 406.1 9.7 Z M 417.3 2.8 L 419 2.8 L 419 3.3 L 417.3 3.3 L 417.3 5.8 L 416.7 5.8 L 416.7 0.3 L 417.3 0.3 L 417.3 2.8 Z M 413 3.4 C 412.7 3.8 412.4 4.2 412 4.6 C 411.6 5 411.2 5.3 410.8 5.6 C 410.8 5.6 410.4 5 410.4 5 C 411.1 4.7 411.6 4.2 412 3.7 C 412.5 3.2 412.7 2.7 412.7 2.2 C 412.67 2.21 412.7 1.5 412.7 1.5 L 410.8 1.5 L 410.8 1 L 415.2 1 L 415.2 1.5 L 413.3 1.5 C 413.3 1.5 413.33 2.19 413.3 2.2 C 413.3 2.7 413.5 3.1 413.9 3.6 C 414.4 4.1 414.9 4.5 415.6 4.9 C 415.6 4.9 415.2 5.4 415.2 5.4 C 414.3 4.9 413.5 4.2 413 3.4 C 413 3.4 413 3.4 413 3.4 Z M 416.7 6.9 L 411.9 6.9 L 411.9 6.4 L 417.3 6.4 L 417.3 9.6 L 416.7 9.6 L 416.7 6.9 Z M 424.1 3.8 L 424.1 4.9 L 428.1 4.9 L 428.1 5.4 L 419.5 5.4 L 419.5 4.9 L 423.5 4.9 L 423.5 3.8 L 421.1 3.8 L 421.1 0.8 L 426.6 0.8 L 426.6 1.3 L 421.7 1.3 L 421.7 3.2 L 426.8 3.2 L 426.8 3.8 L 424.1 3.8 Z M 423.8 6.2 C 424.7 6.2 425.3 6.3 425.8 6.6 C 426.3 6.9 426.5 7.3 426.5 7.9 C 426.5 7.9 426.5 8 426.5 8 C 426.5 8.5 426.3 8.9 425.8 9.2 C 425.3 9.5 424.7 9.6 423.8 9.6 C 423 9.6 422.3 9.5 421.8 9.2 C 421.3 8.9 421.1 8.5 421.1 8 C 421.1 8 421.1 7.9 421.1 7.9 C 421.1 7.3 421.3 6.9 421.8 6.6 C 422.3 6.3 423 6.2 423.8 6.2 C 423.8 6.2 423.8 6.2 423.8 6.2 Z M 425.9 7.9 C 425.9 7.5 425.7 7.2 425.4 7 C 425 6.8 424.5 6.7 423.8 6.7 C 423.2 6.7 422.6 6.8 422.3 7 C 421.9 7.2 421.7 7.5 421.7 7.9 C 421.7 7.9 421.7 7.9 421.7 7.9 C 421.7 8.3 421.9 8.6 422.3 8.8 C 422.6 9 423.1 9.1 423.8 9.1 C 424.5 9.1 425 9 425.4 8.8 C 425.7 8.6 425.9 8.3 425.9 7.9 C 425.9 7.9 425.9 7.9 425.9 7.9 Z M 438.7 0.3 L 438.7 2.8 L 440.4 2.8 L 440.4 3.3 L 438.7 3.3 L 438.7 6 L 438.1 6 L 438.1 0.3 L 438.7 0.3 Z M 435.4 0.8 L 436.1 0.8 L 436.1 5.2 L 432.3 5.2 L 432.3 0.8 L 432.9 0.8 L 432.9 2.6 L 435.4 2.6 L 435.4 0.8 Z M 432.9 3.1 L 432.9 4.7 L 435.4 4.7 L 435.4 3.1 L 432.9 3.1 Z M 436.1 6.1 C 437 6.1 437.6 6.3 438.1 6.6 C 438.6 6.9 438.8 7.3 438.8 7.8 C 438.8 7.8 438.8 7.9 438.8 7.9 C 438.8 8.5 438.6 8.9 438.1 9.2 C 437.6 9.5 437 9.6 436.1 9.6 C 435.3 9.6 434.6 9.5 434.1 9.2 C 433.6 8.9 433.4 8.5 433.4 7.9 C 433.4 7.9 433.4 7.8 433.4 7.8 C 433.4 7.3 433.6 6.9 434.1 6.6 C 434.6 6.3 435.3 6.1 436.1 6.1 C 436.1 6.1 436.1 6.1 436.1 6.1 Z M 438.2 7.9 C 438.2 7.5 438 7.2 437.7 7 C 437.3 6.8 436.8 6.7 436.1 6.7 C 435.5 6.7 434.9 6.8 434.6 7 C 434.2 7.2 434 7.5 434 7.9 C 434 7.9 434 7.9 434 7.9 C 434 8.3 434.2 8.6 434.6 8.8 C 434.9 9 435.5 9.1 436.1 9.1 C 436.8 9.1 437.3 9 437.7 8.8 C 438 8.6 438.2 8.3 438.2 7.9 C 438.2 7.9 438.2 7.9 438.2 7.9 Z M 447.7 5.8 L 447.7 0.3 L 448.3 0.3 L 448.3 5.8 L 447.7 5.8 Z M 443.9 3.4 C 443.6 3.8 443.3 4.2 442.9 4.6 C 442.5 5 442 5.3 441.5 5.6 C 441.5 5.6 441.2 5.1 441.2 5.1 C 441.9 4.7 442.4 4.3 442.9 3.8 C 443.3 3.3 443.5 2.8 443.5 2.3 C 443.52 2.26 443.5 0.8 443.5 0.8 L 444.2 0.8 C 444.2 0.8 444.18 2.24 444.2 2.2 C 444.2 2.7 444.4 3.2 444.8 3.6 C 445.2 4.1 445.8 4.5 446.5 4.8 C 446.5 4.8 446.2 5.4 446.2 5.4 C 445.2 4.8 444.4 4.2 443.9 3.4 C 443.9 3.4 443.9 3.4 443.9 3.4 Z M 447.7 6.9 L 442.9 6.9 L 442.9 6.4 L 448.3 6.4 L 448.3 9.6 L 447.7 9.6 L 447.7 6.9 Z M 457.6 9.3 L 457 9.3 L 457 0.3 L 457.6 0.3 L 457.6 9.3 Z M 453 6.8 C 452.6 6.8 452.2 6.7 451.8 6.5 C 451.5 6.3 451.2 5.9 451 5.5 C 450.8 5.1 450.7 4.6 450.7 4 C 450.7 4 450.7 3.8 450.7 3.8 C 450.7 3.2 450.8 2.7 451 2.3 C 451.2 1.9 451.5 1.5 451.8 1.3 C 452.2 1.1 452.6 1 453 1 C 453.5 1 453.9 1.1 454.3 1.3 C 454.6 1.5 454.9 1.9 455.1 2.3 C 455.3 2.7 455.4 3.2 455.4 3.8 C 455.4 3.8 455.4 4 455.4 4 C 455.4 4.6 455.3 5.1 455.1 5.5 C 454.9 5.9 454.6 6.3 454.3 6.5 C 453.9 6.7 453.5 6.8 453 6.8 C 453 6.8 453 6.8 453 6.8 Z M 453 6.3 C 453.6 6.3 454 6.1 454.3 5.7 C 454.6 5.3 454.7 4.7 454.7 4 C 454.7 4 454.7 3.8 454.7 3.8 C 454.7 3.1 454.6 2.5 454.3 2.1 C 454 1.7 453.6 1.5 453 1.5 C 452.5 1.5 452.1 1.7 451.8 2.1 C 451.5 2.5 451.4 3.1 451.4 3.8 C 451.4 3.8 451.4 4 451.4 4 C 451.4 4.7 451.5 5.3 451.8 5.7 C 452.1 6.1 452.5 6.3 453 6.3 C 453 6.3 453 6.3 453 6.3 Z M 469.1 0.3 L 469.7 0.3 L 469.7 5.4 L 469.1 5.4 L 469.1 0.3 Z M 465.3 3.2 C 465 3.6 464.7 4 464.3 4.3 C 463.9 4.7 463.4 5 462.9 5.3 C 462.9 5.3 462.6 4.8 462.6 4.8 C 463.3 4.4 463.8 4 464.3 3.5 C 464.7 3 464.9 2.5 464.9 2 C 464.92 2 464.9 0.6 464.9 0.6 L 465.6 0.6 C 465.6 0.6 465.58 1.98 465.6 2 C 465.6 2.5 465.8 2.9 466.2 3.3 C 466.6 3.8 467.2 4.2 467.9 4.5 C 467.9 4.5 467.6 5 467.6 5 C 466.5 4.5 465.8 3.9 465.3 3.2 C 465.3 3.2 465.3 3.2 465.3 3.2 Z M 465.1 8 L 465.1 9.1 L 470 9.1 L 470 9.7 L 464.5 9.7 L 464.5 7.5 L 469.1 7.5 L 469.1 6.5 L 464.5 6.5 L 464.5 5.9 L 469.7 5.9 L 469.7 8 L 465.1 8 Z M 478.8 9.3 L 478.8 0.3 L 479.5 0.3 L 479.5 9.3 L 478.8 9.3 Z M 475.4 3.4 L 477 3.4 L 477 0.4 L 477.6 0.4 L 477.6 9 L 477 9 L 477 4 L 475.4 4 L 475.4 3.4 Z M 474.4 3.4 C 474.4 3.9 474.6 4.4 474.9 4.9 C 475.3 5.4 475.8 5.9 476.4 6.3 C 476.4 6.3 476.1 6.8 476.1 6.8 C 475.1 6.2 474.4 5.5 474.1 4.6 C 473.6 5.6 473 6.3 472 7 C 472 7 471.7 6.5 471.7 6.5 C 472.3 6.1 472.8 5.6 473.2 5 C 473.5 4.5 473.7 3.9 473.7 3.4 C 473.73 3.42 473.7 1.8 473.7 1.8 L 472.1 1.8 L 472.1 1.2 L 476 1.2 L 476 1.8 L 474.4 1.8 C 474.4 1.8 474.39 3.4 474.4 3.4 Z M 490.8 3.9 L 492.5 3.9 L 492.5 4.5 L 490.8 4.5 L 490.8 9.3 L 490.2 9.3 L 490.2 0.3 L 490.8 0.3 L 490.8 3.9 Z M 488.1 1.3 C 488.1 1.3 486.9 1.29 486.9 1.3 C 486.5 1.3 486.2 1.3 485.9 1.2 C 485.6 1.2 485.3 1.2 485.1 1.1 C 485.1 1.1 485.1 0.6 485.1 0.6 C 485.5 0.7 486.1 0.7 486.9 0.7 C 486.9 0.74 488.1 0.7 488.1 0.7 L 488.1 1.3 Z M 486.9 3.5 C 486.9 4 487.1 4.5 487.6 5 C 488 5.5 488.6 6 489.2 6.4 C 489.2 6.4 488.9 6.9 488.9 6.9 C 487.9 6.3 487.1 5.5 486.6 4.6 C 486.3 5.1 486 5.6 485.6 6 C 485.2 6.4 484.8 6.8 484.3 7.1 C 484.3 7.1 483.9 6.6 483.9 6.6 C 484.3 6.3 484.7 6 485.1 5.6 C 485.5 5.3 485.7 4.9 485.9 4.5 C 486.2 4.2 486.3 3.8 486.3 3.5 C 486.26 3.52 486.3 2.7 486.3 2.7 L 484.2 2.7 L 484.2 2.2 L 488.9 2.2 L 488.9 2.7 L 486.9 2.7 C 486.9 2.7 486.92 3.5 486.9 3.5 Z M 501.8 1.8 L 501.8 2.4 L 500.1 2.4 L 500.1 3.9 L 501.8 3.9 L 501.8 4.5 L 500.1 4.5 L 500.1 6 L 499.5 6 L 499.5 0.3 L 500.1 0.3 L 500.1 1.8 L 501.8 1.8 Z M 498.6 4.9 C 497.8 5.1 497 5.2 496.2 5.2 C 495.5 5.3 494.6 5.3 493.7 5.3 C 493.69 5.35 493.7 2.8 493.7 2.8 L 496.8 2.8 L 496.8 1.5 L 493.7 1.5 L 493.7 1 L 497.4 1 L 497.4 3.4 L 494.3 3.4 L 494.3 4.8 C 494.3 4.8 494.68 4.79 494.7 4.8 C 495.2 4.8 495.8 4.8 496.5 4.7 C 497.2 4.6 497.8 4.5 498.5 4.4 C 498.5 4.4 498.6 4.9 498.6 4.9 Z M 497.5 6.2 C 498.4 6.2 499 6.3 499.5 6.6 C 500 6.9 500.2 7.3 500.2 7.9 C 500.2 7.9 500.2 8 500.2 8 C 500.2 8.5 500 8.9 499.5 9.2 C 499 9.5 498.4 9.6 497.5 9.6 C 496.7 9.6 496 9.5 495.5 9.2 C 495 8.9 494.8 8.5 494.8 8 C 494.8 8 494.8 7.9 494.8 7.9 C 494.8 7.3 495 6.9 495.5 6.6 C 496 6.3 496.7 6.2 497.5 6.2 C 497.5 6.2 497.5 6.2 497.5 6.2 Z M 499.6 7.9 C 499.6 7.5 499.4 7.2 499.1 7 C 498.7 6.8 498.2 6.7 497.5 6.7 C 496.8 6.7 496.3 6.8 496 7 C 495.6 7.2 495.4 7.5 495.4 7.9 C 495.4 7.9 495.4 7.9 495.4 7.9 C 495.4 8.3 495.6 8.6 496 8.8 C 496.3 9 496.8 9.1 497.5 9.1 C 498.2 9.1 498.7 9 499.1 8.8 C 499.4 8.6 499.6 8.3 499.6 7.9 C 499.6 7.9 499.6 7.9 499.6 7.9 Z M 509.4 4.3 L 511.1 4.3 L 511.1 4.9 L 509.4 4.9 L 509.4 9.3 L 508.8 9.3 L 508.8 0.3 L 509.4 0.3 L 509.4 4.3 Z M 506.7 1.9 L 503 1.9 L 503 1.3 L 507.3 1.3 C 507.3 1.3 507.35 2.65 507.3 2.6 C 507.3 3 507.3 3.5 507.2 4 C 507.2 4.6 507.1 5.1 506.9 5.6 C 506.9 5.6 506.3 5.4 506.3 5.4 C 506.6 4.6 506.7 3.6 506.7 2.6 C 506.69 2.59 506.7 1.9 506.7 1.9 Z M 505.1 7.3 C 506.2 7.2 507.2 7.1 508.1 6.9 C 508.1 6.9 508.2 7.4 508.2 7.4 C 507.5 7.6 506.8 7.7 506.1 7.7 C 505.5 7.8 504.8 7.8 504 7.8 C 503.99 7.85 502.3 7.8 502.3 7.8 L 502.3 7.3 L 504.3 7.3 L 504.4 7.3 L 504.4 4 L 505.1 4 C 505.1 4 505.08 7.27 505.1 7.3 Z M 521.5 0.3 L 521.5 2.8 L 523.2 2.8 L 523.2 3.3 L 521.5 3.3 L 521.5 5.9 L 520.9 5.9 L 520.9 0.3 L 521.5 0.3 Z M 517.2 3.4 C 517 3.8 516.7 4.2 516.3 4.6 C 515.9 5 515.4 5.3 514.9 5.6 C 514.9 5.6 514.6 5.1 514.6 5.1 C 515.3 4.7 515.8 4.3 516.2 3.7 C 516.7 3.2 516.9 2.7 516.9 2.2 C 516.87 2.25 516.9 0.8 516.9 0.8 L 517.5 0.8 C 517.5 0.8 517.53 2.23 517.5 2.2 C 517.5 2.7 517.7 3.2 518.2 3.6 C 518.6 4.1 519.1 4.5 519.8 4.8 C 519.8 4.8 519.5 5.4 519.5 5.4 C 518.5 4.8 517.7 4.2 517.2 3.4 C 517.2 3.4 517.2 3.4 517.2 3.4 Z M 518.9 6.1 C 519.8 6.1 520.4 6.3 520.9 6.6 C 521.4 6.9 521.6 7.3 521.6 7.8 C 521.6 7.8 521.6 7.9 521.6 7.9 C 521.6 8.5 521.4 8.9 520.9 9.2 C 520.4 9.5 519.8 9.6 518.9 9.6 C 518.1 9.6 517.4 9.5 516.9 9.2 C 516.4 8.9 516.2 8.5 516.2 7.9 C 516.2 7.9 516.2 7.8 516.2 7.8 C 516.2 7.3 516.4 6.9 516.9 6.6 C 517.4 6.3 518.1 6.1 518.9 6.1 C 518.9 6.1 518.9 6.1 518.9 6.1 Z M 521 7.9 C 521 7.5 520.8 7.2 520.5 7 C 520.1 6.8 519.6 6.7 518.9 6.7 C 518.2 6.7 517.7 6.8 517.4 7 C 517 7.2 516.8 7.5 516.8 7.9 C 516.8 7.9 516.8 7.9 516.8 7.9 C 516.8 8.3 517 8.6 517.4 8.8 C 517.7 9 518.2 9.1 518.9 9.1 C 519.6 9.1 520.1 9 520.5 8.8 C 520.8 8.6 521 8.3 521 7.9 C 521 7.9 521 7.9 521 7.9 Z M 531.1 9.3 L 530.5 9.3 L 530.5 0.3 L 531.1 0.3 L 531.1 9.3 Z M 526.5 6.8 C 526.1 6.8 525.7 6.7 525.3 6.5 C 525 6.3 524.7 5.9 524.5 5.5 C 524.3 5.1 524.2 4.6 524.2 4 C 524.2 4 524.2 3.8 524.2 3.8 C 524.2 3.2 524.3 2.7 524.5 2.3 C 524.7 1.9 525 1.5 525.3 1.3 C 525.7 1.1 526.1 1 526.5 1 C 527 1 527.4 1.1 527.8 1.3 C 528.1 1.5 528.4 1.9 528.6 2.3 C 528.8 2.7 528.9 3.2 528.9 3.8 C 528.9 3.8 528.9 4 528.9 4 C 528.9 4.6 528.8 5.1 528.6 5.5 C 528.4 5.9 528.1 6.3 527.8 6.5 C 527.4 6.7 527 6.8 526.5 6.8 C 526.5 6.8 526.5 6.8 526.5 6.8 Z M 526.5 6.3 C 527.1 6.3 527.5 6.1 527.8 5.7 C 528.1 5.3 528.2 4.7 528.2 4 C 528.2 4 528.2 3.8 528.2 3.8 C 528.2 3.1 528.1 2.5 527.8 2.1 C 527.5 1.7 527.1 1.5 526.5 1.5 C 526 1.5 525.6 1.7 525.3 2.1 C 525 2.5 524.9 3.1 524.9 3.8 C 524.9 3.8 524.9 4 524.9 4 C 524.9 4.7 525 5.3 525.3 5.7 C 525.6 6.1 526 6.3 526.5 6.3 C 526.5 6.3 526.5 6.3 526.5 6.3 Z M 540.1 0.3 L 540.1 3.2 L 541.8 3.2 L 541.8 3.7 L 540.1 3.7 L 540.1 5.7 L 539.5 5.7 L 539.5 0.3 L 540.1 0.3 Z M 537.2 1.1 C 537.2 1.1 536.14 1.08 536.1 1.1 C 535.4 1.1 534.8 1 534.4 0.9 C 534.4 0.9 534.4 0.4 534.4 0.4 C 534.8 0.5 535.4 0.5 536.1 0.5 C 536.14 0.54 537.2 0.5 537.2 0.5 L 537.2 1.1 Z M 533.4 1.7 L 538.3 1.7 L 538.3 2.2 L 533.4 2.2 L 533.4 1.7 Z M 537.7 4.2 C 537.7 4.4 537.6 4.6 537.5 4.9 C 537.3 5.1 537.1 5.2 536.8 5.4 C 536.5 5.5 536.2 5.5 535.8 5.5 C 535.5 5.5 535.1 5.5 534.8 5.4 C 534.6 5.2 534.3 5.1 534.2 4.9 C 534 4.6 534 4.4 534 4.2 C 534 4.2 534 4.1 534 4.1 C 534 3.8 534 3.6 534.2 3.4 C 534.3 3.2 534.6 3 534.8 2.9 C 535.1 2.8 535.5 2.7 535.8 2.7 C 536.2 2.7 536.5 2.8 536.8 2.9 C 537.1 3 537.3 3.2 537.5 3.4 C 537.6 3.6 537.7 3.8 537.7 4.1 C 537.7 4.1 537.7 4.2 537.7 4.2 Z M 534.6 4.1 C 534.6 4.4 534.7 4.6 534.9 4.8 C 535.1 4.9 535.4 5 535.8 5 C 536.2 5 536.5 4.9 536.8 4.8 C 537 4.6 537.1 4.4 537.1 4.1 C 537.1 4.1 537.1 4.1 537.1 4.1 C 537.1 3.8 537 3.6 536.8 3.5 C 536.5 3.3 536.2 3.2 535.8 3.2 C 535.4 3.2 535.1 3.3 534.9 3.5 C 534.7 3.6 534.6 3.8 534.6 4.1 C 534.6 4.1 534.6 4.1 534.6 4.1 Z M 540.1 8.2 L 535.5 8.2 L 535.5 9.1 L 540.4 9.1 L 540.4 9.7 L 534.9 9.7 L 534.9 7.6 L 539.5 7.6 L 539.5 6.7 L 534.9 6.7 L 534.9 6.2 L 540.1 6.2 L 540.1 8.2 Z M 549.4 2.7 C 549.1 3.1 548.7 3.4 548.1 3.8 C 547.6 4.1 547 4.4 546.4 4.6 C 546.4 4.6 546.1 4 546.1 4 C 546.6 3.9 547.1 3.7 547.6 3.4 C 548 3.2 548.4 2.9 548.7 2.6 C 548.9 2.3 549.1 2 549.1 1.7 C 549.08 1.71 549.1 0.7 549.1 0.7 L 549.8 0.7 C 549.8 0.7 549.76 1.71 549.8 1.7 C 549.8 2 549.9 2.2 550.2 2.5 C 550.4 2.8 550.8 3.1 551.2 3.3 C 551.7 3.6 552.2 3.8 552.7 3.9 C 552.7 3.9 552.5 4.4 552.5 4.4 C 551.8 4.3 551.2 4 550.7 3.7 C 550.2 3.4 549.7 3 549.4 2.7 C 549.4 2.7 549.4 2.7 549.4 2.7 Z M 545.1 5.6 L 553.7 5.6 L 553.7 6.1 L 549.7 6.1 L 549.7 9.4 L 549.1 9.4 L 549.1 6.1 L 545.1 6.1 L 545.1 5.6 Z M 564 0.3 L 564.6 0.3 L 564.6 5.6 L 564 5.6 L 564 0.3 Z M 562.1 3.1 C 562.1 3.5 562 3.8 561.8 4.1 C 561.6 4.5 561.3 4.7 561 4.9 C 560.7 5.1 560.3 5.2 559.9 5.2 C 559.5 5.2 559.1 5.1 558.8 4.9 C 558.4 4.7 558.2 4.5 558 4.1 C 557.8 3.8 557.7 3.5 557.7 3.1 C 557.7 3.1 557.7 2.9 557.7 2.9 C 557.7 2.5 557.8 2.1 558 1.8 C 558.2 1.5 558.4 1.3 558.8 1.1 C 559.1 0.9 559.5 0.8 559.9 0.8 C 560.3 0.8 560.7 0.9 561 1.1 C 561.3 1.3 561.6 1.5 561.8 1.8 C 562 2.1 562.1 2.5 562.1 2.9 C 562.1 2.9 562.1 3.1 562.1 3.1 Z M 558.4 3.1 C 558.4 3.5 558.5 3.9 558.8 4.2 C 559.1 4.5 559.4 4.6 559.9 4.6 C 560.3 4.6 560.7 4.5 561 4.2 C 561.3 3.9 561.4 3.5 561.4 3.1 C 561.4 3.1 561.4 2.9 561.4 2.9 C 561.4 2.4 561.3 2.1 561 1.8 C 560.7 1.5 560.3 1.4 559.9 1.4 C 559.4 1.4 559.1 1.5 558.8 1.8 C 558.5 2.1 558.4 2.5 558.4 2.9 C 558.4 2.9 558.4 3.1 558.4 3.1 Z M 564 7 C 564 7.4 564.1 7.8 564.4 8.2 C 564.7 8.5 565.1 8.9 565.6 9.1 C 565.6 9.1 565.3 9.6 565.3 9.6 C 564.5 9.2 564 8.7 563.6 8.1 C 563.5 8.4 563.3 8.7 563 9 C 562.7 9.2 562.4 9.4 562 9.6 C 561.6 9.5 561.3 9.2 561 9 C 560.7 8.7 560.5 8.4 560.4 8.1 C 560.2 8.4 560 8.7 559.7 9 C 559.4 9.2 559.1 9.5 558.7 9.7 C 558.7 9.7 558.4 9.2 558.4 9.2 C 558.9 9 559.3 8.6 559.6 8.2 C 559.9 7.8 560 7.4 560 7 C 560.04 7.02 560 6.1 560 6.1 L 560.7 6.1 C 560.7 6.1 560.68 7 560.7 7 C 560.7 7.3 560.8 7.7 561 8.1 C 561.3 8.4 561.6 8.7 562 9 C 562.4 8.7 562.7 8.4 563 8.1 C 563.2 7.7 563.3 7.4 563.3 7 C 563.33 7.02 563.3 6.1 563.3 6.1 L 564 6.1 C 564 6.1 563.97 7 564 7 Z M 570.8 2.2 C 570.5 2.6 570.1 3 569.5 3.3 C 569 3.7 568.4 3.9 567.8 4.1 C 567.8 4.1 567.6 3.6 567.6 3.6 C 568.1 3.4 568.6 3.2 569 3 C 569.4 2.7 569.8 2.4 570.1 2.1 C 570.3 1.8 570.5 1.6 570.5 1.3 C 570.48 1.31 570.5 0.4 570.5 0.4 L 571.2 0.4 C 571.2 0.4 571.16 1.31 571.2 1.3 C 571.2 1.6 571.3 1.8 571.6 2.1 C 571.8 2.4 572.2 2.6 572.6 2.9 C 573.1 3.1 573.5 3.3 574.1 3.4 C 574.1 3.4 573.8 4 573.8 4 C 573.2 3.8 572.6 3.5 572.1 3.2 C 571.6 2.9 571.1 2.6 570.8 2.2 C 570.8 2.2 570.8 2.2 570.8 2.2 Z M 566.5 5.5 L 566.5 4.9 L 575.1 4.9 L 575.1 5.5 L 566.5 5.5 Z M 568.7 7.4 L 572.9 7.4 L 572.9 6.3 L 573.6 6.3 L 573.6 9.5 L 568.1 9.5 L 568.1 6.3 L 568.7 6.3 L 568.7 7.4 Z M 568.7 7.9 L 568.7 9 L 572.9 9 L 572.9 7.9 L 568.7 7.9 Z M 582.6 0.3 L 583.2 0.3 L 583.2 9.3 L 582.6 9.3 L 582.6 0.3 Z M 577.6 6 C 578.2 6 578.8 6 579.5 5.9 C 580.2 5.9 580.9 5.7 581.5 5.6 C 581.5 5.6 581.6 6.1 581.6 6.1 C 580.8 6.3 580 6.4 579.2 6.5 C 578.5 6.6 577.6 6.6 576.6 6.6 C 576.64 6.6 576.6 1.2 576.6 1.2 L 577.3 1.2 L 577.3 6 C 577.3 6 577.65 6.04 577.6 6 Z M 592.3 3.6 L 593.9 3.6 L 593.9 4.2 L 592.3 4.2 L 592.3 9.3 L 591.6 9.3 L 591.6 0.3 L 592.3 0.3 L 592.3 3.6 Z M 586.8 6 C 587.3 6 587.9 6 588.6 5.9 C 589.3 5.8 590 5.7 590.6 5.6 C 590.6 5.6 590.7 6.1 590.7 6.1 C 589.9 6.3 589.1 6.4 588.4 6.4 C 587.6 6.5 586.8 6.5 585.8 6.5 C 585.84 6.55 585.8 1.2 585.8 1.2 L 589.8 1.2 L 589.8 1.8 L 586.5 1.8 L 586.5 6 C 586.5 6 586.83 5.99 586.8 6 Z M 595.7 8.3 L 594.7 8.3 L 594.7 7.1 L 595.7 7.1 L 595.7 8.3 Z " stroke="none" fill="#858689"/>
  </g>
</svg>