<?xml version="1.0" standalone="no"?>
<!DOCTYPE svg PUBLIC "-//W3C//DTD SVG 1.1//EN" "http://www.w3.org/Graphics/SVG/1.1/DTD/svg11.dtd">
<svg xmlns="http://www.w3.org/2000/svg" version="1.1" width="105px" height="188.5px" viewBox="0 -1 105 188.5" style="top:-1px">
  <desc>편의</desc>
  <defs/>
  <g id="Polygon627212">
    <path d="M 11 91.9 C 9.3 92.2 7.7 92.4 6.3 92.5 C 4.9 92.6 3.1 92.6 0.9 92.6 C 0.89 92.63 0.9 90.8 0.9 90.8 L 2.8 90.8 L 2.5 86 L 4.7 85.9 C 4.7 85.9 5 90.75 5 90.8 C 5.4 90.7 5.9 90.7 6.6 90.7 C 6.63 90.66 7 85.9 7 85.9 L 9.2 86 C 9.2 86 8.85 90.41 8.9 90.4 C 9.3 90.3 9.8 90.3 10.3 90.2 C 10.32 90.18 10.3 90.2 10.3 90.2 L 10.3 88.4 L 13 88.4 L 13 87.1 L 10.3 87.1 L 10.3 85.3 L 13 85.3 L 13 81.9 L 15.3 81.9 L 15.3 94.9 L 13 94.9 L 13 90.2 L 10.7 90.2 C 10.7 90.2 11.04 91.87 11 91.9 Z M 1.3 83.3 L 10.3 83.3 L 10.3 85.1 L 1.3 85.1 L 1.3 83.3 Z M 6.4 93.8 L 6.4 97.5 L 16 97.5 L 16 99.4 L 4.1 99.4 L 4.1 93.8 L 6.4 93.8 Z M 32.4 99.1 L 30.1 99.1 L 30.1 81.9 L 32.4 81.9 L 32.4 99.1 Z M 23.4 91.8 C 22.5 91.8 21.8 91.7 21.1 91.3 C 20.4 90.9 19.8 90.4 19.4 89.8 C 19 89.2 18.8 88.5 18.8 87.7 C 18.8 87.7 18.8 87.3 18.8 87.3 C 18.8 86.5 19 85.8 19.4 85.2 C 19.8 84.6 20.4 84.1 21.1 83.7 C 21.8 83.3 22.5 83.1 23.4 83.1 C 24.2 83.1 25 83.3 25.7 83.7 C 26.4 84.1 27 84.6 27.4 85.2 C 27.7 85.8 27.9 86.5 27.9 87.3 C 27.9 87.3 27.9 87.7 27.9 87.7 C 27.9 88.5 27.7 89.2 27.4 89.8 C 27 90.4 26.4 90.9 25.7 91.3 C 25 91.7 24.2 91.8 23.4 91.8 C 23.4 91.8 23.4 91.8 23.4 91.8 Z M 23.4 90 C 24.1 90 24.7 89.8 25.1 89.3 C 25.6 88.9 25.8 88.3 25.8 87.7 C 25.8 87.7 25.8 87.3 25.8 87.3 C 25.8 86.7 25.6 86.1 25.1 85.7 C 24.7 85.2 24.1 85 23.4 85 C 22.7 85 22.1 85.2 21.6 85.7 C 21.2 86.1 20.9 86.7 20.9 87.3 C 20.9 87.3 20.9 87.7 20.9 87.7 C 20.9 88.3 21.2 88.9 21.6 89.3 C 22.1 89.8 22.7 90 23.4 90 C 23.4 90 23.4 90 23.4 90 Z M 17.6 96.3 L 17.6 94.5 C 17.6 94.5 21.7 94.48 21.7 94.5 C 24.3 94.5 26.7 94.2 29 93.7 C 29 93.7 29.4 95.5 29.4 95.5 C 27.9 95.8 26.6 96 25.3 96.1 C 24 96.3 22.6 96.3 21.1 96.3 C 21.13 96.32 17.6 96.3 17.6 96.3 Z " stroke="none" fill="#fff"/>
  </g>
</svg>