<?xml version="1.0" standalone="no"?>
<!DOCTYPE svg PUBLIC "-//W3C//DTD SVG 1.1//EN" "http://www.w3.org/Graphics/SVG/1.1/DTD/svg11.dtd">
<svg xmlns="http://www.w3.org/2000/svg" version="1.1" width="141px" height="31.5px" viewBox="0 -1 141 31.5" style="top:-1px">
  <desc>전자식 차일드락</desc>
  <defs/>
  <g id="Polygon627518">
    <path d="M 7.5 10.9 L 7.5 9.4 L 10.3 9.4 L 10.3 5.8 L 12.1 5.8 L 12.1 16.1 L 10.3 16.1 L 10.3 10.9 L 7.5 10.9 Z M 7.8 13.9 C 6.4 13.2 5.4 12.3 4.6 11.2 C 3.8 12.4 2.8 13.4 1.5 14.1 C 1.5 14.1 0.6 12.8 0.6 12.8 C 1.5 12.3 2.3 11.7 2.9 11 C 3.4 10.2 3.7 9.5 3.7 8.8 C 3.73 8.83 3.7 8.3 3.7 8.3 L 1.3 8.3 L 1.3 6.8 L 8 6.8 L 8 8.3 L 5.5 8.3 C 5.5 8.3 5.55 8.8 5.5 8.8 C 5.5 9.5 5.8 10.1 6.4 10.8 C 6.9 11.4 7.7 12 8.6 12.6 C 8.6 12.6 7.8 13.9 7.8 13.9 Z M 5.3 15 L 5.3 18.2 L 12.6 18.2 L 12.6 19.6 L 3.5 19.6 L 3.5 15 L 5.3 15 Z M 25.1 10.6 L 27.4 10.6 L 27.4 12.1 L 25.1 12.1 L 25.1 19.4 L 23.3 19.4 L 23.3 5.8 L 25.1 5.8 L 25.1 10.6 Z M 19.2 10.4 C 19.2 11.1 19.5 11.8 20.1 12.5 C 20.7 13.2 21.5 13.9 22.5 14.5 C 22.5 14.5 21.6 15.8 21.6 15.8 C 20.2 15 19.1 14 18.3 12.8 C 17.4 14.1 16.3 15.2 14.9 16.1 C 14.9 16.1 14 14.8 14 14.8 C 15 14.2 15.8 13.5 16.4 12.6 C 17.1 11.8 17.4 11.1 17.4 10.4 C 17.37 10.42 17.4 8.7 17.4 8.7 L 14.6 8.7 L 14.6 7.2 L 22 7.2 L 22 8.7 L 19.2 8.7 C 19.2 8.7 19.2 10.39 19.2 10.4 Z M 37.3 14.2 L 37.3 5.8 L 39.1 5.8 L 39.1 14.2 L 37.3 14.2 Z M 31.9 10.9 C 31.1 12.1 30 13.1 28.6 13.9 C 28.6 13.9 27.7 12.5 27.7 12.5 C 28.7 12 29.5 11.3 30.1 10.6 C 30.7 9.9 31 9.2 31 8.6 C 31.02 8.61 31 6.5 31 6.5 L 32.8 6.5 C 32.8 6.5 32.82 8.58 32.8 8.6 C 32.8 9.2 33.1 9.8 33.7 10.4 C 34.3 11.1 35.1 11.6 36.1 12.1 C 36.1 12.1 35.3 13.5 35.3 13.5 C 33.9 12.7 32.7 11.9 31.9 10.9 C 31.9 10.9 31.9 10.9 31.9 10.9 Z M 37.3 16.4 L 30.1 16.4 L 30.1 14.9 L 39.1 14.9 L 39.1 19.9 L 37.3 19.9 L 37.3 16.4 Z M 55.9 11.1 L 58.1 11.1 L 58.1 12.5 L 55.9 12.5 L 55.9 19.4 L 54.1 19.4 L 54.1 5.8 L 55.9 5.8 L 55.9 11.1 Z M 49.6 7.8 C 49 7.8 48.4 7.8 47.9 7.7 C 47.4 7.7 47 7.6 46.6 7.4 C 46.6 7.4 46.6 6 46.6 6 C 47 6.1 47.4 6.2 47.8 6.3 C 48.2 6.3 48.8 6.3 49.6 6.3 C 49.62 6.33 51.5 6.3 51.5 6.3 L 51.5 7.8 C 51.5 7.8 49.62 7.8 49.6 7.8 Z M 50 10.5 C 50 11.2 50.3 11.9 50.9 12.6 C 51.5 13.3 52.3 14 53.4 14.7 C 53.4 14.7 52.5 16 52.5 16 C 51 15.1 49.9 14.1 49.1 12.9 C 48.2 14.2 47.1 15.3 45.7 16.2 C 45.7 16.2 44.7 14.9 44.7 14.9 C 45.7 14.3 46.5 13.6 47.2 12.8 C 47.8 11.9 48.2 11.2 48.2 10.5 C 48.16 10.51 48.2 10.2 48.2 10.2 L 45.3 10.2 L 45.3 8.7 L 52.8 8.7 L 52.8 10.2 L 50 10.2 C 50 10.2 49.99 10.48 50 10.5 Z M 69.8 13.6 L 68 13.6 L 68 5.8 L 69.8 5.8 L 69.8 13.6 Z M 62.3 13.1 C 61.6 13.1 61 13 60.5 12.7 C 60 12.4 59.6 12 59.3 11.5 C 59 11.1 58.8 10.5 58.8 9.9 C 58.8 9.9 58.8 9.6 58.8 9.6 C 58.8 9 59 8.5 59.3 8 C 59.6 7.5 60 7.1 60.5 6.9 C 61 6.6 61.6 6.4 62.3 6.4 C 63 6.4 63.5 6.6 64.1 6.9 C 64.6 7.1 65 7.5 65.3 8 C 65.6 8.5 65.8 9 65.8 9.6 C 65.8 9.6 65.8 9.9 65.8 9.9 C 65.8 10.5 65.6 11.1 65.3 11.5 C 65 12 64.6 12.4 64.1 12.7 C 63.5 13 63 13.1 62.3 13.1 C 62.3 13.1 62.3 13.1 62.3 13.1 Z M 62.3 11.7 C 62.8 11.7 63.2 11.5 63.6 11.2 C 63.9 10.8 64 10.4 64 9.9 C 64 9.9 64 9.6 64 9.6 C 64 9.2 63.9 8.7 63.6 8.4 C 63.2 8.1 62.8 7.9 62.3 7.9 C 61.8 7.9 61.3 8.1 61 8.4 C 60.7 8.7 60.5 9.2 60.5 9.6 C 60.5 9.6 60.5 9.9 60.5 9.9 C 60.5 10.4 60.7 10.8 61 11.2 C 61.3 11.5 61.8 11.7 62.3 11.7 C 62.3 11.7 62.3 11.7 62.3 11.7 Z M 61.2 14.2 L 69.8 14.2 L 69.8 17.8 L 63 17.8 L 63 18.6 L 70.3 18.6 L 70.3 20 L 61.2 20 L 61.2 16.4 L 68 16.4 L 68 15.7 L 61.2 15.7 L 61.2 14.2 Z M 75.6 12.3 L 83 12.3 L 83 13.8 L 73.7 13.8 L 73.7 7.1 L 82.7 7.1 L 82.7 8.6 L 75.6 8.6 L 75.6 12.3 Z M 71.8 18.4 L 71.8 16.9 L 84.7 16.9 L 84.7 18.4 L 71.8 18.4 Z M 96.4 9.3 L 98.6 9.3 L 98.6 10.8 L 96.4 10.8 L 96.4 14.4 L 94.6 14.4 L 94.6 5.8 L 96.4 5.8 L 96.4 9.3 Z M 93.6 12.9 C 92.4 13.1 91.3 13.3 90.2 13.4 C 89.1 13.5 88 13.5 86.7 13.5 C 86.7 13.53 86.1 13.5 86.1 13.5 L 86.1 9.3 L 90.2 9.3 L 90.2 8.1 L 86.1 8.1 L 86.1 6.7 L 92 6.7 L 92 10.7 L 87.9 10.7 L 87.9 12.1 C 87.9 12.1 87.99 12.09 88 12.1 C 88.7 12.1 89.5 12 90.5 11.9 C 91.4 11.8 92.4 11.7 93.3 11.5 C 93.3 11.5 93.6 12.9 93.6 12.9 Z M 94.6 16.6 L 87.4 16.6 L 87.4 15.1 L 96.4 15.1 L 96.4 19.9 L 94.6 19.9 L 94.6 16.6 Z " stroke="none" fill="#fff"/>
  </g>
</svg>