<?xml version="1.0" standalone="no"?>
<!DOCTYPE svg PUBLIC "-//W3C//DTD SVG 1.1//EN" "http://www.w3.org/Graphics/SVG/1.1/DTD/svg11.dtd">
<svg xmlns="http://www.w3.org/2000/svg" version="1.1" width="141px" height="31.5px" viewBox="0 -1 141 31.5" style="top:-1px">
  <desc>스마트 크루즈 컨트롤</desc>
  <defs/>
  <g id="Polygon627878">
    <path d="M 1.6 13 C 2.3 12.8 3 12.4 3.7 12 C 4.4 11.5 5 11 5.4 10.5 C 5.8 10 6.1 9.5 6.1 9.1 C 6.06 9.06 6.1 6.9 6.1 6.9 L 7.9 6.9 C 7.9 6.9 7.89 9.06 7.9 9.1 C 7.9 9.5 8.1 9.9 8.5 10.4 C 9 10.9 9.5 11.4 10.2 11.8 C 10.9 12.2 11.6 12.6 12.4 12.8 C 12.4 12.8 11.8 14.2 11.8 14.2 C 10.8 13.9 9.9 13.5 9.1 13 C 8.3 12.5 7.6 11.9 7 11.3 C 6.4 11.9 5.7 12.5 4.9 13.1 C 4 13.7 3.1 14.1 2.2 14.4 C 2.2 14.4 1.6 13 1.6 13 Z M 0.5 16.9 L 13.4 16.9 L 13.4 18.4 L 0.5 18.4 L 0.5 16.9 Z M 25.1 10.6 L 27.4 10.6 L 27.4 12.1 L 25.1 12.1 L 25.1 19.4 L 23.3 19.4 L 23.3 5.8 L 25.1 5.8 L 25.1 10.6 Z M 21.2 15.4 L 14.8 15.4 L 14.8 7.2 L 21.2 7.2 L 21.2 15.4 Z M 19.4 8.6 L 16.6 8.6 L 16.6 13.9 L 19.4 13.9 L 19.4 8.6 Z M 31.4 13 L 38.7 13 L 38.7 14.5 L 29.6 14.5 L 29.6 7 L 38.4 7 L 38.4 8.4 L 31.4 8.4 L 31.4 10 L 37.9 10 L 37.9 11.5 L 31.4 11.5 L 31.4 13 Z M 27.5 18.4 L 27.5 16.9 L 40.4 16.9 L 40.4 18.4 L 27.5 18.4 Z M 53.7 12.2 C 52.9 12.3 51.7 12.3 50 12.3 C 50.04 12.3 46 12.3 46 12.3 L 46 10.8 C 46 10.8 50.04 10.83 50 10.8 C 51.7 10.8 53 10.8 53.8 10.7 C 53.8 10.4 53.8 10 53.8 9.6 C 53.83 9.55 53.8 8.7 53.8 8.7 L 46.7 8.7 L 46.7 7.2 L 55.7 7.2 C 55.7 7.2 55.66 9.64 55.7 9.6 C 55.7 10.7 55.6 11.6 55.5 12.6 C 55.5 13.5 55.3 14.6 55 15.8 C 55 15.8 53.2 15.4 53.2 15.4 C 53.4 14.4 53.6 13.3 53.7 12.2 C 53.7 12.2 53.7 12.2 53.7 12.2 Z M 44.8 18.4 L 44.8 16.9 L 57.7 16.9 L 57.7 18.4 L 44.8 18.4 Z M 62.2 11.4 L 69.5 11.4 L 69.5 12.8 L 60.4 12.8 L 60.4 9 L 67.3 9 L 67.3 8.1 L 60.4 8.1 L 60.4 6.6 L 69.1 6.6 L 69.1 10.4 L 62.2 10.4 L 62.2 11.4 Z M 58.3 14 L 71.2 14 L 71.2 15.4 L 65.6 15.4 L 65.6 19.6 L 63.8 19.6 L 63.8 15.4 L 58.3 15.4 L 58.3 14 Z M 72.9 13 C 73.7 12.7 74.4 12.3 75.1 11.8 C 75.8 11.4 76.3 10.9 76.7 10.4 C 77.1 9.9 77.3 9.5 77.3 9.1 C 77.28 9.06 77.3 8.4 77.3 8.4 L 73.9 8.4 L 73.9 7 L 82.5 7 L 82.5 8.4 L 79.1 8.4 C 79.1 8.4 79.14 9.06 79.1 9.1 C 79.1 9.5 79.3 9.9 79.7 10.4 C 80.1 10.8 80.6 11.3 81.3 11.7 C 82 12.1 82.7 12.5 83.5 12.8 C 83.5 12.8 82.9 14.2 82.9 14.2 C 80.9 13.4 79.3 12.4 78.2 11.2 C 77.7 11.8 77 12.4 76.2 12.9 C 75.4 13.5 74.5 14 73.5 14.4 C 73.5 14.4 72.9 13 72.9 13 Z M 71.8 18.4 L 71.8 16.9 L 84.7 16.9 L 84.7 18.4 L 71.8 18.4 Z M 100.6 16.1 L 98.8 16.1 L 98.8 11.5 L 95.9 11.5 L 95.9 10 L 98.8 10 L 98.8 5.8 L 100.6 5.8 L 100.6 16.1 Z M 95.8 8.5 C 95.8 11.3 93.9 13.4 89.9 14.8 C 89.9 14.8 89.3 13.3 89.3 13.3 C 91.3 12.6 92.7 11.8 93.4 10.8 C 92.8 11 92.1 11 91.5 11 C 91.53 11.01 89.3 11 89.3 11 L 89.3 9.6 C 89.3 9.6 91.53 9.55 91.5 9.6 C 92.7 9.6 93.5 9.5 94 9.4 C 94.1 9.2 94.1 9 94.1 8.8 C 94.08 8.83 94.1 8.4 94.1 8.4 L 90 8.4 L 90 6.9 L 95.8 6.9 C 95.8 6.9 95.85 8.53 95.8 8.5 Z M 93.8 15 L 93.8 18.2 L 101.1 18.2 L 101.1 19.6 L 92 19.6 L 92 15 L 93.8 15 Z M 106.4 13 L 113.7 13 L 113.7 14.5 L 104.6 14.5 L 104.6 7 L 113.4 7 L 113.4 8.4 L 106.4 8.4 L 106.4 10 L 112.9 10 L 112.9 11.5 L 106.4 11.5 L 106.4 13 Z M 102.5 18.4 L 102.5 16.9 L 115.4 16.9 L 115.4 18.4 L 102.5 18.4 Z M 123.4 11.6 L 123.4 12.4 L 128.9 12.4 L 128.9 13.9 L 116 13.9 L 116 12.4 L 121.6 12.4 L 121.6 11.6 L 118.2 11.6 L 118.2 8.3 L 124.9 8.3 L 124.9 7.7 L 118.2 7.7 L 118.2 6.3 L 126.8 6.3 L 126.8 9.6 L 120 9.6 L 120 10.2 L 127.2 10.2 L 127.2 11.6 L 123.4 11.6 Z M 126.8 18 L 119.9 18 L 119.9 18.6 L 127.3 18.6 L 127.3 20 L 118.1 20 L 118.1 16.7 L 125 16.7 L 125 16 L 118.1 16 L 118.1 14.7 L 126.8 14.7 L 126.8 18 Z " stroke="none" fill="#fff"/>
  </g>
</svg>