<?xml version="1.0" standalone="no"?>
<!DOCTYPE svg PUBLIC "-//W3C//DTD SVG 1.1//EN" "http://www.w3.org/Graphics/SVG/1.1/DTD/svg11.dtd">
<svg xmlns="http://www.w3.org/2000/svg" version="1.1" width="141px" height="31.5px" viewBox="0 -1 141 31.5" style="top:-1px">
  <desc>빌트인캠 2 플러스</desc>
  <defs/>
  <g id="Polygon628235">
    <path d="M 10.3 5.8 L 12.1 5.8 L 12.1 13.6 L 10.3 13.6 L 10.3 5.8 Z M 5.8 6.6 L 7.6 6.6 L 7.6 12.9 L 1.5 12.9 L 1.5 6.6 L 3.3 6.6 L 3.3 8.3 L 5.8 8.3 L 5.8 6.6 Z M 3.3 9.7 L 3.3 11.5 L 5.8 11.5 L 5.8 9.7 L 3.3 9.7 Z M 5.3 17.8 L 5.3 18.6 L 12.5 18.6 L 12.5 20 L 3.5 20 L 3.5 16.4 L 10.3 16.4 L 10.3 15.7 L 3.5 15.7 L 3.5 14.2 L 12.1 14.2 L 12.1 17.8 L 5.3 17.8 Z M 17.9 13 L 25.2 13 L 25.2 14.5 L 16.1 14.5 L 16.1 7 L 24.9 7 L 24.9 8.4 L 17.9 8.4 L 17.9 10 L 24.4 10 L 24.4 11.5 L 17.9 11.5 L 17.9 13 Z M 14 18.4 L 14 16.9 L 26.9 16.9 L 26.9 18.4 L 14 18.4 Z M 39.1 16.1 L 37.3 16.1 L 37.3 5.8 L 39.1 5.8 L 39.1 16.1 Z M 31.5 13.6 C 30.9 13.6 30.3 13.4 29.7 13.1 C 29.2 12.8 28.8 12.4 28.5 11.9 C 28.2 11.4 28 10.8 28 10.2 C 28 10.2 28 9.9 28 9.9 C 28 9.3 28.2 8.7 28.5 8.2 C 28.8 7.6 29.2 7.2 29.7 6.9 C 30.3 6.6 30.9 6.5 31.5 6.5 C 32.2 6.5 32.8 6.6 33.3 6.9 C 33.9 7.2 34.3 7.6 34.6 8.2 C 34.9 8.7 35 9.3 35 9.9 C 35 9.9 35 10.2 35 10.2 C 35 10.8 34.9 11.4 34.6 11.9 C 34.3 12.4 33.9 12.8 33.3 13.1 C 32.8 13.4 32.2 13.6 31.5 13.6 C 31.5 13.6 31.5 13.6 31.5 13.6 Z M 31.5 12.1 C 32.1 12.1 32.5 11.9 32.8 11.6 C 33.1 11.2 33.3 10.7 33.3 10.2 C 33.3 10.2 33.3 9.9 33.3 9.9 C 33.3 9.3 33.1 8.9 32.8 8.5 C 32.5 8.1 32.1 7.9 31.5 7.9 C 31 7.9 30.6 8.1 30.3 8.5 C 29.9 8.9 29.8 9.3 29.8 9.9 C 29.8 9.9 29.8 10.2 29.8 10.2 C 29.8 10.7 29.9 11.2 30.3 11.6 C 30.6 11.9 31 12.1 31.5 12.1 C 31.5 12.1 31.5 12.1 31.5 12.1 Z M 30.5 15 L 32.3 15 L 32.3 18.2 L 39.6 18.2 L 39.6 19.6 L 30.5 19.6 L 30.5 15 Z M 51.5 9.3 L 51.5 5.8 L 53.3 5.8 L 53.3 14.2 L 51.5 14.2 L 51.5 10.8 L 50.1 10.8 L 50.1 14.1 L 48.3 14.1 L 48.3 6 L 50.1 6 L 50.1 9.3 L 51.5 9.3 Z M 47 8.4 C 47 9.7 46.6 10.8 45.8 11.8 C 44.9 12.8 43.5 13.6 41.7 14.3 C 41.7 14.3 41.1 12.9 41.1 12.9 C 42.8 12.2 44 11.5 44.7 10.6 C 44.1 10.7 43.5 10.8 43 10.8 C 43.03 10.8 41.1 10.8 41.1 10.8 L 41.1 9.4 C 41.1 9.4 43.03 9.36 43 9.4 C 44 9.4 44.8 9.3 45.3 9.2 C 45.3 9 45.3 8.9 45.3 8.7 C 45.33 8.71 45.3 8.3 45.3 8.3 L 41.8 8.3 L 41.8 6.8 L 47 6.8 C 47 6.8 47.04 8.37 47 8.4 Z M 53.3 19.8 L 44 19.8 L 44 14.9 L 53.3 14.9 L 53.3 19.8 Z M 51.5 16.3 L 45.8 16.3 L 45.8 18.3 L 51.5 18.3 L 51.5 16.3 Z M 58.7 18.1 L 58.7 16.7 C 58.7 16.7 62.38 12.97 62.4 13 C 62.9 12.5 63.3 12 63.5 11.6 C 63.7 11.2 63.8 10.8 63.8 10.3 C 63.8 9.7 63.6 9.3 63.3 8.9 C 62.9 8.6 62.5 8.4 61.9 8.4 C 61.3 8.4 60.8 8.5 60.3 8.8 C 59.9 9.1 59.5 9.5 59.1 10 C 59.1 10 59.1 7.8 59.1 7.8 C 59.5 7.5 59.9 7.2 60.4 7 C 60.9 6.8 61.5 6.7 62.1 6.7 C 62.9 6.7 63.6 6.9 64.2 7.2 C 64.7 7.5 65.2 7.9 65.5 8.4 C 65.8 9 65.9 9.6 65.9 10.2 C 65.9 11 65.7 11.7 65.4 12.3 C 65 12.9 64.5 13.5 63.8 14.2 C 63.78 14.25 61.6 16.5 61.6 16.5 L 66.2 16.5 L 66.2 18.1 L 58.7 18.1 Z M 72.8 6.4 L 82.2 6.4 L 82.2 7.8 L 72.8 7.8 L 72.8 6.4 Z M 80.3 9.5 L 82.3 9.5 L 82.3 10.8 L 72.6 10.8 L 72.6 9.5 L 74.6 9.5 L 74.5 8.1 L 76.2 8 L 76.3 9.5 L 78.6 9.5 L 78.7 8 L 80.5 8.1 L 80.3 9.5 Z M 71 13.3 L 71 11.8 L 83.9 11.8 L 83.9 13.3 L 71 13.3 Z M 81.8 17.8 L 74.9 17.8 L 74.9 18.6 L 82.3 18.6 L 82.3 20 L 73.1 20 L 73.1 16.5 L 80 16.5 L 80 15.8 L 73.1 15.8 L 73.1 14.4 L 81.8 14.4 L 81.8 17.8 Z M 94.3 10.5 L 94.3 5.8 L 96.1 5.8 L 96.1 19.4 L 94.3 19.4 L 94.3 12 L 91.8 12 L 91.8 10.5 L 94.3 10.5 Z M 87.3 14.1 C 88.8 14.1 90.5 13.9 92.3 13.5 C 92.3 13.5 92.6 15 92.6 15 C 91.4 15.2 90.4 15.4 89.3 15.5 C 88.3 15.6 87.2 15.6 85.9 15.6 C 85.95 15.63 85.3 15.6 85.3 15.6 L 85.3 10.5 L 89.2 10.5 L 89.2 8.6 L 85.3 8.6 L 85.3 7.1 L 91 7.1 L 91 12 L 87.1 12 L 87.1 14.1 C 87.1 14.1 87.25 14.14 87.3 14.1 Z M 99.1 13 C 99.8 12.8 100.5 12.4 101.2 12 C 101.9 11.5 102.5 11 102.9 10.5 C 103.3 10 103.6 9.5 103.6 9.1 C 103.56 9.06 103.6 6.9 103.6 6.9 L 105.4 6.9 C 105.4 6.9 105.39 9.06 105.4 9.1 C 105.4 9.5 105.6 9.9 106 10.4 C 106.5 10.9 107 11.4 107.7 11.8 C 108.4 12.2 109.1 12.6 109.9 12.8 C 109.9 12.8 109.3 14.2 109.3 14.2 C 108.3 13.9 107.4 13.5 106.6 13 C 105.8 12.5 105.1 11.9 104.5 11.3 C 103.9 11.9 103.2 12.5 102.4 13.1 C 101.5 13.7 100.6 14.1 99.7 14.4 C 99.7 14.4 99.1 13 99.1 13 Z M 98 16.9 L 110.9 16.9 L 110.9 18.4 L 98 18.4 L 98 16.9 Z " stroke="none" fill="#fff"/>
  </g>
</svg>