<?xml version="1.0" standalone="no"?>
<!DOCTYPE svg PUBLIC "-//W3C//DTD SVG 1.1//EN" "http://www.w3.org/Graphics/SVG/1.1/DTD/svg11.dtd">
<svg xmlns="http://www.w3.org/2000/svg" version="1.1" width="141px" height="31.5px" viewBox="0 -1 141 31.5" style="top:-1px">
  <desc>폰 프로젝션 기능</desc>
  <defs/>
  <g id="Polygon627671">
    <path d="M 2.3 6.6 L 11.7 6.6 L 11.7 8 L 2.3 8 L 2.3 6.6 Z M 7.9 11.7 L 7.9 13 L 13.4 13 L 13.4 14.5 L 0.5 14.5 L 0.5 13 L 6.1 13 L 6.1 11.7 L 2.1 11.7 L 2.1 10.3 L 4.1 10.3 L 4 8.4 L 5.7 8.3 L 5.9 10.3 L 8 10.3 L 8.2 8.3 L 10 8.4 L 9.8 10.3 L 11.8 10.3 L 11.8 11.7 L 7.9 11.7 Z M 2.6 15.5 L 4.5 15.5 L 4.5 18.2 L 11.7 18.2 L 11.7 19.6 L 2.6 19.6 L 2.6 15.5 Z M 19.4 7.1 L 29.1 7.1 L 29.1 8.6 L 19.4 8.6 L 19.4 7.1 Z M 27.1 12.6 L 29.2 12.6 L 29.2 14.1 L 19.2 14.1 L 19.2 12.6 L 21.3 12.6 L 21.1 9.1 L 22.8 9 L 23.1 12.6 L 25.4 12.6 L 25.6 9 L 27.4 9.1 L 27.1 12.6 Z M 17.8 18.4 L 17.8 16.9 L 30.7 16.9 L 30.7 18.4 L 17.8 18.4 Z M 38.7 14.4 L 38.7 16.9 L 44.2 16.9 L 44.2 18.4 L 31.3 18.4 L 31.3 16.9 L 36.8 16.9 L 36.8 14.4 L 33.3 14.4 L 33.3 9.8 L 40.3 9.8 L 40.3 8.3 L 33.3 8.3 L 33.3 6.8 L 42.1 6.8 L 42.1 11.3 L 35.2 11.3 L 35.2 13 L 42.5 13 L 42.5 14.4 L 38.7 14.4 Z M 55.3 14.3 L 55.3 5.8 L 57 5.8 L 57 14.3 L 55.3 14.3 Z M 50.5 10.5 L 50.5 9.1 L 52.4 9.1 L 52.4 6 L 54.1 6 L 54.1 14.2 L 52.4 14.2 L 52.4 10.5 L 50.5 10.5 Z M 51.1 13.5 C 49.9 12.7 49 11.9 48.4 11 C 48 11.6 47.7 12.1 47.2 12.5 C 46.8 12.9 46.3 13.3 45.7 13.7 C 45.7 13.7 44.8 12.4 44.8 12.4 C 45.6 11.9 46.3 11.3 46.8 10.6 C 47.2 9.9 47.5 9.2 47.5 8.5 C 47.49 8.47 47.5 8.2 47.5 8.2 L 45.5 8.2 L 45.5 6.8 L 51.3 6.8 L 51.3 8.2 L 49.3 8.2 C 49.3 8.2 49.29 8.44 49.3 8.4 C 49.3 9.2 49.5 9.8 50 10.5 C 50.4 11.1 51.1 11.6 52 12.1 C 52 12.1 51.1 13.5 51.1 13.5 Z M 55.2 16.5 L 47.5 16.5 L 47.5 15 L 57 15 L 57 19.9 L 55.2 19.9 L 55.2 16.5 Z M 69.8 16.1 L 68 16.1 L 68 11.5 L 65.3 11.5 L 65.3 10 L 68 10 L 68 8.9 L 65.3 8.9 L 65.3 7.5 L 68 7.5 L 68 5.8 L 69.8 5.8 L 69.8 16.1 Z M 65.6 14.2 C 64.2 13.4 63.2 12.5 62.4 11.5 C 61.6 12.7 60.5 13.7 59.2 14.6 C 59.2 14.6 58.3 13.3 58.3 13.3 C 59.2 12.7 60 12 60.6 11.3 C 61.2 10.5 61.5 9.8 61.5 9.1 C 61.47 9.12 61.5 6.7 61.5 6.7 L 63.3 6.7 C 63.3 6.7 63.27 9.09 63.3 9.1 C 63.3 9.7 63.6 10.4 64.1 11.1 C 64.7 11.8 65.5 12.4 66.4 12.9 C 66.4 12.9 65.6 14.2 65.6 14.2 Z M 63 15 L 63 18.2 L 70.4 18.2 L 70.4 19.6 L 61.2 19.6 L 61.2 15 L 63 15 Z M 87.1 19.4 L 85.3 19.4 L 85.3 5.8 L 87.1 5.8 L 87.1 19.4 Z M 76.2 15.1 C 78 14.4 79.2 13.6 80 12.6 C 80.7 11.7 81.1 10.6 81.1 9.4 C 81.12 9.39 81.1 8.6 81.1 8.6 L 76.8 8.6 L 76.8 7.2 L 82.9 7.2 C 82.9 7.2 82.93 9.3 82.9 9.3 C 82.9 10.9 82.5 12.2 81.5 13.4 C 80.6 14.6 79 15.7 76.9 16.6 C 76.9 16.6 76.2 15.1 76.2 15.1 Z M 100.1 9.7 L 100.1 11.1 L 91.1 11.1 L 91.1 6.3 L 93 6.3 L 93 9.7 L 100.1 9.7 Z M 89 12.5 L 101.9 12.5 L 101.9 13.9 L 89 13.9 L 89 12.5 Z M 95.5 20.1 C 94.6 20.1 93.8 20 93.1 19.8 C 92.5 19.6 92 19.3 91.6 18.9 C 91.3 18.5 91.1 18 91.1 17.5 C 91.1 17.5 91.1 17.4 91.1 17.4 C 91.1 16.9 91.3 16.4 91.6 16 C 92 15.6 92.5 15.3 93.1 15.1 C 93.8 14.9 94.6 14.8 95.5 14.8 C 96.4 14.8 97.2 14.9 97.8 15.1 C 98.5 15.3 99 15.6 99.3 16 C 99.7 16.4 99.8 16.9 99.8 17.4 C 99.8 17.4 99.8 17.5 99.8 17.5 C 99.8 18 99.7 18.5 99.3 18.9 C 99 19.3 98.5 19.6 97.8 19.8 C 97.2 20 96.4 20.1 95.5 20.1 C 95.5 20.1 95.5 20.1 95.5 20.1 Z M 95.5 18.6 C 96.3 18.6 96.9 18.5 97.4 18.3 C 97.8 18.1 98 17.8 98 17.5 C 98 17.5 98 17.4 98 17.4 C 98 17.1 97.8 16.8 97.4 16.6 C 96.9 16.4 96.3 16.3 95.5 16.3 C 94.6 16.3 94 16.4 93.6 16.6 C 93.1 16.8 92.9 17.1 92.9 17.4 C 92.9 17.4 92.9 17.5 92.9 17.5 C 92.9 17.8 93.1 18.1 93.6 18.3 C 94 18.5 94.6 18.6 95.5 18.6 C 95.5 18.6 95.5 18.6 95.5 18.6 Z " stroke="none" fill="#fff"/>
  </g>
</svg>