<?xml version="1.0" standalone="no"?>
<!DOCTYPE svg PUBLIC "-//W3C//DTD SVG 1.1//EN" "http://www.w3.org/Graphics/SVG/1.1/DTD/svg11.dtd">
<svg xmlns="http://www.w3.org/2000/svg" version="1.1" width="141px" height="31.5px" viewBox="0 -1 141 31.5" style="top:-1px">
  <desc>공조 장치</desc>
  <defs/>
  <g id="Polygon627263">
    <path d="M 9.4 8 L 2.6 8 L 2.6 6.5 L 11.3 6.5 C 11.3 6.5 11.26 8.19 11.3 8.2 C 11.3 9.2 11.1 10.2 10.9 11.3 C 10.9 11.3 9 10.9 9 10.9 C 9.2 10.5 9.3 10.1 9.3 9.6 C 9.4 9.2 9.4 8.7 9.4 8.3 C 9.43 8.28 9.4 8 9.4 8 Z M 7.2 9.4 L 7.2 12.2 L 13.4 12.2 L 13.4 13.7 L 0.5 13.7 L 0.5 12.2 L 5.3 12.2 L 5.3 9.4 L 7.2 9.4 Z M 7 14.5 C 7.9 14.5 8.7 14.6 9.3 14.9 C 10 15.1 10.5 15.4 10.8 15.8 C 11.2 16.2 11.3 16.7 11.3 17.2 C 11.3 17.2 11.3 17.4 11.3 17.4 C 11.3 17.9 11.2 18.4 10.8 18.8 C 10.5 19.2 10 19.5 9.3 19.8 C 8.7 20 7.9 20.1 7 20.1 C 6.1 20.1 5.3 20 4.6 19.8 C 4 19.5 3.5 19.2 3.1 18.8 C 2.8 18.4 2.6 17.9 2.6 17.4 C 2.6 17.4 2.6 17.2 2.6 17.2 C 2.6 16.7 2.8 16.2 3.1 15.8 C 3.5 15.4 4 15.1 4.6 14.9 C 5.3 14.6 6.1 14.5 7 14.5 C 7 14.5 7 14.5 7 14.5 Z M 9.5 17.3 C 9.5 16.9 9.3 16.6 8.9 16.4 C 8.4 16.1 7.8 16 7 16 C 6.2 16 5.5 16.1 5.1 16.4 C 4.6 16.6 4.4 16.9 4.4 17.3 C 4.4 17.3 4.4 17.4 4.4 17.4 C 4.4 17.7 4.6 18 5.1 18.3 C 5.5 18.5 6.2 18.6 7 18.6 C 7.8 18.6 8.4 18.5 8.9 18.3 C 9.3 18 9.5 17.7 9.5 17.4 C 9.5 17.4 9.5 17.3 9.5 17.3 Z M 15.2 12.7 C 16 12.4 16.7 12 17.4 11.6 C 18 11.2 18.6 10.7 18.9 10.2 C 19.3 9.8 19.5 9.3 19.5 8.9 C 19.53 8.94 19.5 8.4 19.5 8.4 L 16.2 8.4 L 16.2 6.9 L 24.8 6.9 L 24.8 8.4 L 21.4 8.4 C 21.4 8.4 21.39 8.94 21.4 8.9 C 21.4 9.3 21.6 9.8 22 10.2 C 22.4 10.6 22.9 11.1 23.5 11.5 C 24.2 11.9 24.9 12.2 25.8 12.5 C 25.8 12.5 25.2 13.9 25.2 13.9 C 24.2 13.6 23.3 13.2 22.5 12.7 C 21.7 12.2 21 11.6 20.5 11 C 20 11.6 19.3 12.2 18.5 12.7 C 17.7 13.3 16.8 13.8 15.8 14.1 C 15.8 14.1 15.2 12.7 15.2 12.7 Z M 21.4 13.6 L 21.4 16.9 L 26.9 16.9 L 26.9 18.4 L 14 18.4 L 14 16.9 L 19.6 16.9 L 19.6 13.6 L 21.4 13.6 Z M 42.4 5.8 L 42.4 9.3 L 44.6 9.3 L 44.6 10.8 L 42.4 10.8 L 42.4 14.2 L 40.6 14.2 L 40.6 5.8 L 42.4 5.8 Z M 35.4 10.9 C 34.6 12.2 33.5 13.2 32.2 13.9 C 32.2 13.9 31.3 12.5 31.3 12.5 C 32.3 12 33.1 11.4 33.6 10.7 C 34.2 10 34.5 9.3 34.5 8.6 C 34.53 8.62 34.5 8.2 34.5 8.2 L 31.9 8.2 L 31.9 6.7 L 39 6.7 L 39 8.2 L 36.4 8.2 C 36.4 8.2 36.36 8.59 36.4 8.6 C 36.4 9.2 36.6 9.9 37.2 10.5 C 37.8 11.2 38.6 11.8 39.6 12.3 C 39.6 12.3 38.7 13.6 38.7 13.6 C 37.3 12.9 36.2 12 35.4 10.9 C 35.4 10.9 35.4 10.9 35.4 10.9 Z M 38.1 14.5 C 39.1 14.5 39.9 14.6 40.5 14.8 C 41.2 15 41.7 15.3 42 15.8 C 42.4 16.2 42.5 16.6 42.5 17.2 C 42.5 17.2 42.5 17.3 42.5 17.3 C 42.5 17.8 42.4 18.3 42 18.7 C 41.7 19.1 41.2 19.4 40.5 19.7 C 39.9 19.9 39.1 20 38.1 20 C 37.2 20 36.4 19.9 35.8 19.7 C 35.1 19.4 34.6 19.1 34.3 18.7 C 33.9 18.3 33.7 17.8 33.7 17.3 C 33.7 17.3 33.7 17.2 33.7 17.2 C 33.7 16.6 33.9 16.2 34.3 15.8 C 34.6 15.3 35.1 15 35.8 14.8 C 36.4 14.6 37.2 14.5 38.1 14.5 C 38.1 14.5 38.1 14.5 38.1 14.5 Z M 40.7 17.2 C 40.7 16.8 40.5 16.5 40.1 16.3 C 39.6 16.1 39 15.9 38.1 15.9 C 37.3 15.9 36.7 16.1 36.2 16.3 C 35.8 16.5 35.6 16.8 35.6 17.2 C 35.6 17.2 35.6 17.3 35.6 17.3 C 35.6 17.6 35.8 17.9 36.2 18.2 C 36.7 18.4 37.3 18.5 38.1 18.5 C 39 18.5 39.6 18.4 40.1 18.2 C 40.5 17.9 40.7 17.6 40.7 17.3 C 40.7 17.3 40.7 17.2 40.7 17.2 Z M 54.5 19.4 L 54.5 5.8 L 56.3 5.8 L 56.3 19.4 L 54.5 19.4 Z M 49.8 7.8 C 49.1 7.8 48.5 7.8 48.1 7.7 C 47.6 7.7 47.1 7.6 46.8 7.4 C 46.8 7.4 46.8 6 46.8 6 C 47.1 6.1 47.5 6.2 48 6.3 C 48.4 6.3 49 6.3 49.8 6.3 C 49.77 6.33 51.6 6.3 51.6 6.3 L 51.6 7.8 C 51.6 7.8 49.77 7.8 49.8 7.8 Z M 50.1 10.5 C 50.1 11.2 50.4 11.9 51 12.6 C 51.6 13.3 52.5 14 53.5 14.7 C 53.5 14.7 52.6 16 52.6 16 C 51.2 15.1 50.1 14.1 49.2 12.9 C 48.4 14.2 47.2 15.3 45.8 16.2 C 45.8 16.2 44.9 14.9 44.9 14.9 C 45.9 14.3 46.7 13.6 47.3 12.8 C 48 11.9 48.3 11.2 48.3 10.5 C 48.31 10.51 48.3 10.2 48.3 10.2 L 45.5 10.2 L 45.5 8.7 L 53 8.7 L 53 10.2 L 50.1 10.2 C 50.1 10.2 50.14 10.48 50.1 10.5 Z " stroke="none" fill="#fff"/>
  </g>
</svg>