<?xml version="1.0" standalone="no"?>
<!DOCTYPE svg PUBLIC "-//W3C//DTD SVG 1.1//EN" "http://www.w3.org/Graphics/SVG/1.1/DTD/svg11.dtd">
<svg xmlns="http://www.w3.org/2000/svg" version="1.1" width="146px" height="29.5px" viewBox="0 -1 146 29.5" style="top:-1px">
  <desc>자동 정차 기능 (오토홀드)</desc>
  <defs/>
  <g id="Polygon627416">
    <path d="M 11.6 9.7 L 13.9 9.7 L 13.9 11.2 L 11.6 11.2 L 11.6 18.5 L 9.8 18.5 L 9.8 5 L 11.6 5 L 11.6 9.7 Z M 5.7 9.5 C 5.7 10.2 6 10.9 6.6 11.6 C 7.2 12.3 8 13 9 13.6 C 9 13.6 8.1 14.9 8.1 14.9 C 6.7 14.1 5.6 13.1 4.8 11.9 C 3.9 13.2 2.8 14.3 1.4 15.2 C 1.4 15.2 0.5 13.9 0.5 13.9 C 1.5 13.3 2.3 12.6 2.9 11.8 C 3.6 10.9 3.9 10.2 3.9 9.5 C 3.87 9.53 3.9 7.8 3.9 7.8 L 1.1 7.8 L 1.1 6.3 L 8.5 6.3 L 8.5 7.8 L 5.7 7.8 C 5.7 7.8 5.7 9.5 5.7 9.5 Z M 20.7 10.5 L 20.7 11.6 L 26.2 11.6 L 26.2 13.1 L 13.3 13.1 L 13.3 11.6 L 18.9 11.6 L 18.9 10.5 L 15.4 10.5 L 15.4 5.6 L 24.2 5.6 L 24.2 7.1 L 17.2 7.1 L 17.2 9 L 24.5 9 L 24.5 10.5 L 20.7 10.5 Z M 19.8 13.8 C 20.7 13.8 21.5 13.9 22.1 14.1 C 22.8 14.3 23.3 14.6 23.6 15 C 24 15.4 24.2 15.9 24.2 16.4 C 24.2 16.4 24.2 16.5 24.2 16.5 C 24.2 17.1 24 17.5 23.6 17.9 C 23.3 18.3 22.8 18.7 22.1 18.9 C 21.5 19.1 20.7 19.2 19.8 19.2 C 18.9 19.2 18.1 19.1 17.5 18.9 C 16.8 18.7 16.3 18.3 16 17.9 C 15.6 17.5 15.4 17.1 15.4 16.5 C 15.4 16.5 15.4 16.4 15.4 16.4 C 15.4 15.9 15.6 15.4 16 15 C 16.3 14.6 16.8 14.3 17.5 14.1 C 18.1 13.9 18.9 13.8 19.8 13.8 C 19.8 13.8 19.8 13.8 19.8 13.8 Z M 22.3 16.4 C 22.3 16.1 22.1 15.8 21.7 15.6 C 21.3 15.3 20.6 15.2 19.8 15.2 C 19 15.2 18.3 15.3 17.9 15.6 C 17.5 15.8 17.2 16.1 17.2 16.4 C 17.2 16.4 17.2 16.5 17.2 16.5 C 17.2 16.9 17.5 17.2 17.9 17.4 C 18.3 17.6 19 17.7 19.8 17.7 C 20.6 17.7 21.3 17.6 21.7 17.4 C 22.1 17.2 22.3 16.9 22.3 16.5 C 22.3 16.5 22.3 16.4 22.3 16.4 Z M 36.4 9.8 L 36.4 8.4 L 39 8.4 L 39 5 L 40.8 5 L 40.8 13.3 L 39 13.3 L 39 9.8 L 36.4 9.8 Z M 36.5 12.8 C 35.2 12.1 34.1 11.2 33.4 10.1 C 32.6 11.3 31.5 12.3 30.2 13.1 C 30.2 13.1 29.3 11.7 29.3 11.7 C 30.3 11.2 31 10.6 31.6 9.9 C 32.2 9.2 32.5 8.5 32.5 7.8 C 32.46 7.79 32.5 7.3 32.5 7.3 L 30 7.3 L 30 5.9 L 36.7 5.9 L 36.7 7.3 L 34.3 7.3 C 34.3 7.3 34.27 7.76 34.3 7.8 C 34.3 8.4 34.5 9.1 35.1 9.7 C 35.6 10.4 36.4 11 37.3 11.5 C 37.3 11.5 36.5 12.8 36.5 12.8 Z M 36.6 13.6 C 37.5 13.6 38.3 13.7 38.9 13.9 C 39.6 14.1 40.1 14.5 40.4 14.9 C 40.8 15.3 41 15.7 41 16.3 C 41 16.3 41 16.4 41 16.4 C 41 16.9 40.8 17.4 40.4 17.8 C 40.1 18.2 39.6 18.5 38.9 18.8 C 38.3 19 37.5 19.1 36.6 19.1 C 35.6 19.1 34.9 19 34.2 18.8 C 33.5 18.5 33 18.2 32.7 17.8 C 32.3 17.4 32.2 16.9 32.2 16.4 C 32.2 16.4 32.2 16.3 32.2 16.3 C 32.2 15.7 32.3 15.3 32.7 14.9 C 33 14.5 33.5 14.1 34.2 13.9 C 34.9 13.7 35.6 13.6 36.6 13.6 C 36.6 13.6 36.6 13.6 36.6 13.6 Z M 39.1 16.3 C 39.1 15.9 38.9 15.6 38.5 15.4 C 38 15.2 37.4 15 36.6 15 C 35.7 15 35.1 15.2 34.6 15.4 C 34.2 15.6 34 15.9 34 16.3 C 34 16.3 34 16.4 34 16.4 C 34 16.8 34.2 17.1 34.6 17.3 C 35.1 17.5 35.7 17.6 36.6 17.6 C 37.4 17.6 38 17.5 38.5 17.3 C 38.9 17.1 39.1 16.8 39.1 16.4 C 39.1 16.4 39.1 16.3 39.1 16.3 Z M 53.2 10.2 L 55.4 10.2 L 55.4 11.6 L 53.2 11.6 L 53.2 18.5 L 51.4 18.5 L 51.4 5 L 53.2 5 L 53.2 10.2 Z M 46.9 6.9 C 46.3 6.9 45.7 6.9 45.2 6.8 C 44.7 6.8 44.3 6.7 43.9 6.5 C 43.9 6.5 43.9 5.1 43.9 5.1 C 44.3 5.2 44.7 5.3 45.1 5.4 C 45.5 5.4 46.1 5.4 46.9 5.4 C 46.92 5.43 48.8 5.4 48.8 5.4 L 48.8 6.9 C 48.8 6.9 46.92 6.9 46.9 6.9 Z M 47.3 9.6 C 47.3 10.3 47.6 11 48.2 11.7 C 48.8 12.4 49.6 13.1 50.7 13.8 C 50.7 13.8 49.8 15.1 49.8 15.1 C 48.3 14.2 47.2 13.2 46.4 12 C 45.5 13.3 44.4 14.4 43 15.3 C 43 15.3 42 14 42 14 C 43 13.4 43.8 12.7 44.5 11.9 C 45.1 11 45.5 10.3 45.5 9.6 C 45.46 9.62 45.5 9.3 45.5 9.3 L 42.6 9.3 L 42.6 7.8 L 50.1 7.8 L 50.1 9.3 L 47.3 9.3 C 47.3 9.3 47.29 9.59 47.3 9.6 Z M 69.5 18.5 L 67.7 18.5 L 67.7 5 L 69.5 5 L 69.5 18.5 Z M 58.7 14.2 C 60.4 13.5 61.7 12.7 62.4 11.8 C 63.2 10.8 63.6 9.8 63.6 8.5 C 63.57 8.49 63.6 7.7 63.6 7.7 L 59.2 7.7 L 59.2 6.3 L 65.4 6.3 C 65.4 6.3 65.38 8.4 65.4 8.4 C 65.4 10 64.9 11.3 64 12.5 C 63 13.7 61.5 14.8 59.4 15.7 C 59.4 15.7 58.7 14.2 58.7 14.2 Z M 81.9 8.8 L 81.9 10.2 L 72.9 10.2 L 72.9 5.4 L 74.7 5.4 L 74.7 8.8 L 81.9 8.8 Z M 70.8 11.6 L 83.7 11.6 L 83.7 13.1 L 70.8 13.1 L 70.8 11.6 Z M 77.2 19.2 C 76.3 19.2 75.6 19.1 74.9 18.9 C 74.2 18.7 73.7 18.4 73.4 18 C 73.1 17.6 72.9 17.1 72.9 16.6 C 72.9 16.6 72.9 16.5 72.9 16.5 C 72.9 16 73.1 15.5 73.4 15.1 C 73.7 14.7 74.2 14.4 74.9 14.2 C 75.6 14 76.3 13.9 77.2 13.9 C 78.2 13.9 78.9 14 79.6 14.2 C 80.3 14.4 80.8 14.7 81.1 15.1 C 81.4 15.5 81.6 16 81.6 16.5 C 81.6 16.5 81.6 16.6 81.6 16.6 C 81.6 17.1 81.4 17.6 81.1 18 C 80.8 18.4 80.3 18.7 79.6 18.9 C 78.9 19.1 78.2 19.2 77.2 19.2 C 77.2 19.2 77.2 19.2 77.2 19.2 Z M 77.2 17.7 C 78.1 17.7 78.7 17.6 79.1 17.4 C 79.6 17.2 79.8 16.9 79.8 16.6 C 79.8 16.6 79.8 16.5 79.8 16.5 C 79.8 16.2 79.6 15.9 79.1 15.7 C 78.7 15.5 78.1 15.4 77.2 15.4 C 76.4 15.4 75.8 15.5 75.4 15.7 C 74.9 15.9 74.7 16.2 74.7 16.5 C 74.7 16.5 74.7 16.6 74.7 16.6 C 74.7 16.9 74.9 17.2 75.4 17.4 C 75.8 17.6 76.4 17.7 77.2 17.7 C 77.2 17.7 77.2 17.7 77.2 17.7 Z M 86.2 13.8 C 86.2 11.9 86.8 10.2 87.8 8.8 C 87.8 8.8 88.5 8.8 88.5 8.8 C 88.1 9.3 87.7 10 87.5 10.9 C 87.2 11.8 87.1 12.8 87.1 13.8 C 87.1 14.9 87.2 15.9 87.5 16.8 C 87.7 17.6 88.1 18.4 88.5 18.9 C 88.5 18.9 87.8 18.9 87.8 18.9 C 86.8 17.5 86.2 15.8 86.2 13.8 C 86.2 13.8 86.2 13.8 86.2 13.8 Z M 93.3 14.5 C 92.6 14.5 92.1 14.4 91.6 14.2 C 91.1 14 90.7 13.7 90.5 13.3 C 90.2 13 90.1 12.6 90.1 12.1 C 90.1 12.1 90.1 12 90.1 12 C 90.1 11.5 90.2 11.1 90.5 10.8 C 90.7 10.4 91.1 10.1 91.6 9.9 C 92.1 9.7 92.6 9.6 93.3 9.6 C 94 9.6 94.6 9.7 95.1 9.9 C 95.6 10.1 95.9 10.4 96.2 10.8 C 96.4 11.1 96.6 11.5 96.6 12 C 96.6 12 96.6 12.1 96.6 12.1 C 96.6 12.6 96.4 13 96.2 13.3 C 95.9 13.7 95.6 14 95.1 14.2 C 94.6 14.4 94 14.5 93.3 14.5 C 93.3 14.5 93.3 14.5 93.3 14.5 Z M 90.8 12.1 C 90.8 12.6 91 13 91.5 13.4 C 91.9 13.7 92.5 13.9 93.3 13.9 C 94.1 13.9 94.8 13.7 95.2 13.4 C 95.6 13 95.8 12.6 95.8 12.1 C 95.8 12.1 95.8 12 95.8 12 C 95.8 11.5 95.6 11 95.2 10.7 C 94.8 10.4 94.1 10.2 93.3 10.2 C 92.5 10.2 91.9 10.4 91.5 10.7 C 91 11 90.8 11.5 90.8 12 C 90.8 12 90.8 12.1 90.8 12.1 Z M 93.7 15 L 93.7 17.3 L 98 17.3 L 98 17.9 L 88.6 17.9 L 88.6 17.3 L 93 17.3 L 93 15 L 93.7 15 Z M 103.1 15 L 103.1 17.3 L 107.5 17.3 L 107.5 17.9 L 98 17.9 L 98 17.3 L 102.4 17.3 L 102.4 15 L 99.6 15 L 99.6 9.6 L 105.8 9.6 L 105.8 10.2 L 100.4 10.2 L 100.4 12 L 105.5 12 L 105.5 12.6 L 100.4 12.6 L 100.4 14.4 L 106 14.4 L 106 15 L 103.1 15 Z M 113.8 9.6 C 113.8 9.6 112.46 9.55 112.5 9.6 C 112 9.6 111.7 9.5 111.4 9.5 C 111 9.5 110.7 9.4 110.4 9.4 C 110.4 9.4 110.4 8.8 110.4 8.8 C 111 8.9 111.6 9 112.5 9 C 112.46 8.98 113.8 9 113.8 9 L 113.8 9.6 Z M 108.8 10.1 L 115.5 10.1 L 115.5 10.6 L 108.8 10.6 L 108.8 10.1 Z M 112.5 14.4 L 116.9 14.4 L 116.9 15 L 107.4 15 L 107.4 14.4 L 111.8 14.4 C 111.8 14.4 111.77 13.69 111.8 13.7 C 111.1 13.7 110.6 13.5 110.2 13.3 C 109.8 13 109.7 12.8 109.7 12.4 C 109.7 12.4 109.7 12.3 109.7 12.3 C 109.7 12.1 109.8 11.9 110 11.7 C 110.1 11.5 110.4 11.4 110.8 11.3 C 111.2 11.1 111.6 11.1 112.1 11.1 C 112.6 11.1 113.1 11.1 113.5 11.3 C 113.8 11.4 114.1 11.5 114.3 11.7 C 114.5 11.9 114.6 12.1 114.6 12.3 C 114.6 12.3 114.6 12.4 114.6 12.4 C 114.6 12.8 114.4 13 114 13.3 C 113.7 13.5 113.2 13.7 112.5 13.7 C 112.49 13.69 112.5 14.4 112.5 14.4 Z M 110.4 12.4 C 110.4 12.6 110.5 12.8 110.8 12.9 C 111.1 13.1 111.6 13.1 112.1 13.1 C 112.7 13.1 113.1 13.1 113.4 12.9 C 113.7 12.8 113.9 12.6 113.9 12.4 C 113.9 12.4 113.9 12.4 113.9 12.4 C 113.9 12.2 113.7 12 113.4 11.9 C 113.1 11.7 112.7 11.6 112.1 11.6 C 111.6 11.6 111.1 11.7 110.8 11.9 C 110.5 12 110.4 12.2 110.4 12.4 C 110.4 12.4 110.4 12.4 110.4 12.4 Z M 115.1 17.7 L 109.9 17.7 L 109.9 18.6 L 115.4 18.6 L 115.4 19.2 L 109.1 19.2 L 109.1 17.2 L 114.4 17.2 L 114.4 16.3 L 109.1 16.3 L 109.1 15.7 L 115.1 15.7 L 115.1 17.7 Z M 119.2 14 L 124.9 14 L 124.9 14.6 L 118.4 14.6 L 118.4 9.8 L 124.6 9.8 L 124.6 10.5 L 119.2 10.5 L 119.2 14 Z M 116.8 17.9 L 116.8 17.3 L 126.3 17.3 L 126.3 17.9 L 116.8 17.9 Z M 126.4 18.9 C 126.8 18.4 127.1 17.6 127.4 16.8 C 127.7 15.9 127.8 14.9 127.8 13.8 C 127.8 12.8 127.7 11.8 127.4 10.9 C 127.1 10 126.8 9.3 126.4 8.8 C 126.4 8.8 127.1 8.8 127.1 8.8 C 128.1 10.2 128.6 11.9 128.6 13.8 C 128.6 15.8 128.1 17.5 127.1 18.9 C 127.1 18.9 126.4 18.9 126.4 18.9 Z " stroke="none" fill="#fff"/>
  </g>
</svg>