<?xml version="1.0" standalone="no"?>
<!DOCTYPE svg PUBLIC "-//W3C//DTD SVG 1.1//EN" "http://www.w3.org/Graphics/SVG/1.1/DTD/svg11.dtd">
<svg xmlns="http://www.w3.org/2000/svg" version="1.1" width="141px" height="31.5px" viewBox="0 -1 141 31.5" style="top:-1px">
  <desc>후측방 모니터</desc>
  <defs/>
  <g id="Polygon627722">
    <path d="M 7.4 7.6 C 6.1 7.6 5.1 7.5 4.5 7.3 C 4.5 7.3 4.5 5.9 4.5 5.9 C 4.9 6 5.3 6.1 5.7 6.2 C 6.1 6.2 6.7 6.2 7.4 6.2 C 7.42 6.24 9.4 6.2 9.4 6.2 L 9.4 7.6 C 9.4 7.6 7.42 7.65 7.4 7.6 Z M 2.2 8.2 L 11.8 8.2 L 11.8 9.6 L 2.2 9.6 L 2.2 8.2 Z M 3.4 12.1 C 3.4 11.7 3.6 11.3 3.9 11 C 4.2 10.6 4.6 10.4 5.1 10.2 C 5.7 10 6.3 9.9 7 9.9 C 7.7 9.9 8.3 10 8.8 10.2 C 9.4 10.4 9.8 10.6 10.1 11 C 10.4 11.3 10.5 11.7 10.5 12.1 C 10.5 12.1 10.5 12.2 10.5 12.2 C 10.5 12.7 10.4 13.1 10.1 13.4 C 9.8 13.7 9.4 14 8.8 14.2 C 8.3 14.4 7.7 14.4 7 14.4 C 6.3 14.4 5.7 14.4 5.1 14.2 C 4.6 14 4.2 13.7 3.9 13.4 C 3.6 13.1 3.4 12.7 3.4 12.2 C 3.4 12.2 3.4 12.1 3.4 12.1 Z M 8.7 12.2 C 8.7 11.9 8.6 11.7 8.3 11.5 C 8 11.4 7.6 11.3 7 11.3 C 6.5 11.3 6 11.4 5.7 11.5 C 5.4 11.7 5.2 11.9 5.2 12.2 C 5.2 12.2 5.2 12.2 5.2 12.2 C 5.2 12.5 5.4 12.7 5.7 12.8 C 6 13 6.4 13.1 7 13.1 C 7.5 13.1 7.9 13 8.3 12.8 C 8.6 12.7 8.7 12.5 8.7 12.2 C 8.7 12.2 8.7 12.2 8.7 12.2 Z M 0.5 15 L 13.4 15 L 13.4 16.4 L 7.9 16.4 L 7.9 19.8 L 6.1 19.8 L 6.1 16.4 L 0.5 16.4 L 0.5 15 Z M 20.9 7.3 C 19.6 7.3 18.6 7.1 18 6.9 C 18 6.9 18 5.5 18 5.5 C 18.4 5.7 18.8 5.7 19.2 5.8 C 19.6 5.8 20.2 5.8 20.9 5.8 C 20.92 5.85 22.9 5.8 22.9 5.8 L 22.9 7.3 C 22.9 7.3 20.92 7.26 20.9 7.3 Z M 15.5 11.1 C 16.4 10.9 17.2 10.7 17.9 10.3 C 18.6 10 19.1 9.7 19.4 9.3 C 19.36 9.3 16.3 9.3 16.3 9.3 L 16.3 7.9 L 24.6 7.9 L 24.6 9.3 C 24.6 9.3 21.6 9.3 21.6 9.3 C 21.8 9.6 22.3 10 23 10.2 C 23.7 10.5 24.5 10.8 25.5 10.9 C 25.5 10.9 25 12.3 25 12.3 C 24.1 12.2 23.2 11.9 22.4 11.6 C 21.7 11.3 21 10.9 20.5 10.5 C 19.3 11.5 17.8 12.1 16 12.4 C 16 12.4 15.5 11.1 15.5 11.1 Z M 14 14.5 L 14 13 L 26.9 13 L 26.9 14.5 L 14 14.5 Z M 22.9 17.1 L 15.7 17.1 L 15.7 15.6 L 24.7 15.6 L 24.7 19.9 L 22.9 19.9 L 22.9 17.1 Z M 38.6 5.8 L 38.6 9.3 L 40.9 9.3 L 40.9 10.8 L 38.6 10.8 L 38.6 14.2 L 36.8 14.2 L 36.8 5.8 L 38.6 5.8 Z M 32.6 6.6 L 34.4 6.6 L 34.4 13.3 L 28.3 13.3 L 28.3 6.6 L 30.1 6.6 L 30.1 8.6 L 32.6 8.6 L 32.6 6.6 Z M 30.1 10 L 30.1 11.9 L 32.6 11.9 L 32.6 10 L 30.1 10 Z M 34.4 14.5 C 35.3 14.5 36.1 14.6 36.8 14.8 C 37.4 15 37.9 15.3 38.3 15.8 C 38.6 16.2 38.8 16.6 38.8 17.2 C 38.8 17.2 38.8 17.3 38.8 17.3 C 38.8 17.8 38.6 18.3 38.3 18.7 C 37.9 19.1 37.4 19.4 36.8 19.7 C 36.1 19.9 35.3 20 34.4 20 C 33.5 20 32.7 19.9 32 19.7 C 31.4 19.4 30.9 19.1 30.5 18.7 C 30.2 18.3 30 17.8 30 17.3 C 30 17.3 30 17.2 30 17.2 C 30 16.6 30.2 16.2 30.5 15.8 C 30.9 15.3 31.4 15 32 14.8 C 32.7 14.6 33.5 14.5 34.4 14.5 C 34.4 14.5 34.4 14.5 34.4 14.5 Z M 37 17.2 C 37 16.8 36.8 16.5 36.3 16.3 C 35.9 16.1 35.2 15.9 34.4 15.9 C 33.6 15.9 32.9 16.1 32.5 16.3 C 32 16.5 31.8 16.8 31.8 17.2 C 31.8 17.2 31.8 17.3 31.8 17.3 C 31.8 17.6 32 17.9 32.5 18.2 C 32.9 18.4 33.6 18.5 34.4 18.5 C 35.2 18.5 35.9 18.4 36.3 18.2 C 36.8 17.9 37 17.6 37 17.3 C 37 17.3 37 17.2 37 17.2 Z M 46.8 6.9 L 55.7 6.9 L 55.7 13.3 L 46.8 13.3 L 46.8 6.9 Z M 48.6 11.9 L 53.9 11.9 L 53.9 8.4 L 48.6 8.4 L 48.6 11.9 Z M 52.1 14 L 52.1 16.9 L 57.7 16.9 L 57.7 18.4 L 44.8 18.4 L 44.8 16.9 L 50.3 16.9 L 50.3 14 L 52.1 14 Z M 68 19.4 L 68 5.8 L 69.8 5.8 L 69.8 19.4 L 68 19.4 Z M 61.1 14 C 62.9 14 64.8 13.8 66.7 13.3 C 66.7 13.3 67 14.8 67 14.8 C 65.7 15.1 64.6 15.2 63.5 15.3 C 62.4 15.4 61.2 15.5 59.9 15.5 C 59.88 15.49 59.2 15.5 59.2 15.5 L 59.2 7.1 L 61 7.1 L 61 14 C 61 14 61.12 14.01 61.1 14 Z M 81.5 10.2 L 81.5 5.8 L 83.3 5.8 L 83.3 19.4 L 81.5 19.4 L 81.5 11.7 L 79.2 11.7 L 79.2 10.2 L 81.5 10.2 Z M 74.5 13.9 C 76.2 13.9 77.9 13.7 79.7 13.3 C 79.7 13.3 80 14.8 80 14.8 C 78.8 15 77.7 15.2 76.6 15.3 C 75.6 15.4 74.5 15.4 73.2 15.4 C 73.21 15.42 72.6 15.4 72.6 15.4 L 72.6 7.1 L 78.7 7.1 L 78.7 8.6 L 74.4 8.6 L 74.4 10.4 L 78.4 10.4 L 78.4 11.8 L 74.4 11.8 L 74.4 13.9 C 74.4 13.9 74.5 13.92 74.5 13.9 Z " stroke="none" fill="#fff"/>
  </g>
</svg>