<?xml version="1.0" standalone="no"?>
<!DOCTYPE svg PUBLIC "-//W3C//DTD SVG 1.1//EN" "http://www.w3.org/Graphics/SVG/1.1/DTD/svg11.dtd">
<svg xmlns="http://www.w3.org/2000/svg" version="1.1" width="141px" height="31.5px" viewBox="0 -1 141 31.5" style="top:-1px">
  <desc>전자식 파킹 브레이크</desc>
  <defs/>
  <g id="Polygon627569">
    <path d="M 7.5 10.9 L 7.5 9.4 L 10.3 9.4 L 10.3 5.8 L 12.1 5.8 L 12.1 16.1 L 10.3 16.1 L 10.3 10.9 L 7.5 10.9 Z M 7.8 13.9 C 6.4 13.2 5.4 12.3 4.6 11.2 C 3.8 12.4 2.8 13.4 1.5 14.1 C 1.5 14.1 0.6 12.8 0.6 12.8 C 1.5 12.3 2.3 11.7 2.9 11 C 3.4 10.2 3.7 9.5 3.7 8.8 C 3.73 8.83 3.7 8.3 3.7 8.3 L 1.3 8.3 L 1.3 6.8 L 8 6.8 L 8 8.3 L 5.5 8.3 C 5.5 8.3 5.55 8.8 5.5 8.8 C 5.5 9.5 5.8 10.1 6.4 10.8 C 6.9 11.4 7.7 12 8.6 12.6 C 8.6 12.6 7.8 13.9 7.8 13.9 Z M 5.3 15 L 5.3 18.2 L 12.6 18.2 L 12.6 19.6 L 3.5 19.6 L 3.5 15 L 5.3 15 Z M 25.1 10.6 L 27.4 10.6 L 27.4 12.1 L 25.1 12.1 L 25.1 19.4 L 23.3 19.4 L 23.3 5.8 L 25.1 5.8 L 25.1 10.6 Z M 19.2 10.4 C 19.2 11.1 19.5 11.8 20.1 12.5 C 20.7 13.2 21.5 13.9 22.5 14.5 C 22.5 14.5 21.6 15.8 21.6 15.8 C 20.2 15 19.1 14 18.3 12.8 C 17.4 14.1 16.3 15.2 14.9 16.1 C 14.9 16.1 14 14.8 14 14.8 C 15 14.2 15.8 13.5 16.4 12.6 C 17.1 11.8 17.4 11.1 17.4 10.4 C 17.37 10.42 17.4 8.7 17.4 8.7 L 14.6 8.7 L 14.6 7.2 L 22 7.2 L 22 8.7 L 19.2 8.7 C 19.2 8.7 19.2 10.39 19.2 10.4 Z M 37.3 14.2 L 37.3 5.8 L 39.1 5.8 L 39.1 14.2 L 37.3 14.2 Z M 31.9 10.9 C 31.1 12.1 30 13.1 28.6 13.9 C 28.6 13.9 27.7 12.5 27.7 12.5 C 28.7 12 29.5 11.3 30.1 10.6 C 30.7 9.9 31 9.2 31 8.6 C 31.02 8.61 31 6.5 31 6.5 L 32.8 6.5 C 32.8 6.5 32.82 8.58 32.8 8.6 C 32.8 9.2 33.1 9.8 33.7 10.4 C 34.3 11.1 35.1 11.6 36.1 12.1 C 36.1 12.1 35.3 13.5 35.3 13.5 C 33.9 12.7 32.7 11.9 31.9 10.9 C 31.9 10.9 31.9 10.9 31.9 10.9 Z M 37.3 16.4 L 30.1 16.4 L 30.1 14.9 L 39.1 14.9 L 39.1 19.9 L 37.3 19.9 L 37.3 16.4 Z M 55.9 10.6 L 58.1 10.6 L 58.1 12.1 L 55.9 12.1 L 55.9 19.4 L 54.1 19.4 L 54.1 5.8 L 55.9 5.8 L 55.9 10.6 Z M 45.3 7.2 L 52.9 7.2 L 52.9 8.6 L 45.3 8.6 L 45.3 7.2 Z M 51.6 13.7 C 52 13.6 52.5 13.5 53.2 13.4 C 53.2 13.4 53.5 14.8 53.5 14.8 C 52.1 15.1 50.8 15.3 49.6 15.4 C 48.4 15.4 46.9 15.5 45 15.5 C 44.95 15.49 45 14 45 14 L 46.6 14 L 46.3 9.3 L 48.1 9.2 C 48.1 9.2 48.36 13.96 48.4 14 C 48.8 13.9 49.3 13.9 49.8 13.9 C 49.83 13.87 50.1 9.2 50.1 9.2 L 51.9 9.3 C 51.9 9.3 51.6 13.68 51.6 13.7 Z M 68 5.8 L 69.8 5.8 L 69.8 14.2 L 68 14.2 L 68 5.8 Z M 65.4 8.5 C 65.4 9.8 64.9 11.1 63.9 12.1 C 62.9 13.2 61.4 14 59.3 14.7 C 59.3 14.7 58.7 13.2 58.7 13.2 C 60.7 12.6 62.2 11.8 63 10.8 C 62.3 10.9 61.7 10.9 61 10.9 C 61.05 10.95 58.8 10.9 58.8 10.9 L 58.8 9.5 C 58.8 9.5 61.05 9.51 61 9.5 C 62.2 9.5 63 9.5 63.6 9.4 C 63.7 9.2 63.7 9 63.7 8.8 C 63.67 8.77 63.7 8.3 63.7 8.3 L 59.5 8.3 L 59.5 6.8 L 65.4 6.8 C 65.4 6.8 65.44 8.47 65.4 8.5 Z M 65.6 14.4 C 66.5 14.4 67.3 14.5 68 14.7 C 68.6 15 69.1 15.3 69.5 15.7 C 69.8 16.1 70 16.6 70 17.1 C 70 17.1 70 17.3 70 17.3 C 70 17.8 69.8 18.3 69.5 18.7 C 69.1 19.1 68.6 19.4 68 19.6 C 67.3 19.9 66.5 20 65.6 20 C 64.7 20 63.9 19.9 63.2 19.6 C 62.6 19.4 62.1 19.1 61.7 18.7 C 61.4 18.3 61.2 17.8 61.2 17.3 C 61.2 17.3 61.2 17.1 61.2 17.1 C 61.2 16.6 61.4 16.1 61.7 15.7 C 62.1 15.3 62.6 15 63.2 14.7 C 63.9 14.5 64.7 14.4 65.6 14.4 C 65.6 14.4 65.6 14.4 65.6 14.4 Z M 68.2 17.1 C 68.2 16.8 68 16.5 67.5 16.2 C 67.1 16 66.4 15.9 65.6 15.9 C 64.8 15.9 64.1 16 63.7 16.2 C 63.2 16.5 63 16.8 63 17.1 C 63 17.1 63 17.2 63 17.2 C 63 17.6 63.2 17.9 63.7 18.2 C 64.1 18.4 64.8 18.5 65.6 18.5 C 66.4 18.5 67.1 18.4 67.5 18.2 C 68 17.9 68.2 17.6 68.2 17.2 C 68.2 17.2 68.2 17.1 68.2 17.1 Z M 84.6 6.9 L 86.4 6.9 L 86.4 14.2 L 77.6 14.2 L 77.6 6.9 L 79.4 6.9 L 79.4 9.2 L 84.6 9.2 L 84.6 6.9 Z M 79.4 10.7 L 79.4 12.8 L 84.6 12.8 L 84.6 10.7 L 79.4 10.7 Z M 75.5 18.4 L 75.5 16.9 L 88.4 16.9 L 88.4 18.4 L 75.5 18.4 Z M 99.5 19.4 L 99.5 5.8 L 101.3 5.8 L 101.3 19.4 L 99.5 19.4 Z M 95.2 10.4 L 96.7 10.4 L 96.7 6 L 98.4 6 L 98.4 18.9 L 96.7 18.9 L 96.7 11.9 L 95.2 11.9 L 95.2 10.4 Z M 91.7 13.9 C 92.2 13.9 92.8 13.9 93.5 13.8 C 94.2 13.7 94.9 13.6 95.6 13.5 C 95.6 13.5 95.8 14.9 95.8 14.9 C 94.8 15.1 93.9 15.2 93 15.3 C 92.1 15.4 91 15.4 89.8 15.4 C 89.76 15.4 89.8 10.4 89.8 10.4 L 92.8 10.4 L 92.8 8.6 L 89.8 8.6 L 89.8 7.1 L 94.6 7.1 L 94.6 11.9 L 91.5 11.9 L 91.5 13.9 C 91.5 13.9 91.74 13.92 91.7 13.9 Z M 114.1 19.4 L 112.3 19.4 L 112.3 5.8 L 114.1 5.8 L 114.1 19.4 Z M 106.8 15.9 C 106 15.9 105.4 15.7 104.8 15.3 C 104.3 14.9 103.8 14.4 103.5 13.8 C 103.2 13.1 103.1 12.3 103.1 11.4 C 103.1 11.4 103.1 11.1 103.1 11.1 C 103.1 10.3 103.2 9.5 103.5 8.8 C 103.8 8.1 104.3 7.6 104.8 7.3 C 105.4 6.9 106 6.7 106.8 6.7 C 107.5 6.7 108.2 6.9 108.7 7.3 C 109.3 7.6 109.7 8.1 110 8.8 C 110.3 9.5 110.5 10.3 110.5 11.1 C 110.5 11.1 110.5 11.4 110.5 11.4 C 110.5 12.3 110.3 13.1 110 13.8 C 109.7 14.4 109.3 14.9 108.7 15.3 C 108.2 15.7 107.5 15.9 106.8 15.9 C 106.8 15.9 106.8 15.9 106.8 15.9 Z M 106.8 14.4 C 107.4 14.4 107.9 14.1 108.2 13.6 C 108.5 13.1 108.7 12.3 108.7 11.4 C 108.7 11.4 108.7 11.1 108.7 11.1 C 108.7 10.2 108.5 9.5 108.2 9 C 107.9 8.4 107.4 8.2 106.8 8.2 C 106.2 8.2 105.7 8.4 105.3 9 C 105 9.5 104.8 10.2 104.8 11.1 C 104.8 11.1 104.8 11.4 104.8 11.4 C 104.8 12.3 105 13.1 105.3 13.6 C 105.7 14.1 106.2 14.4 106.8 14.4 C 106.8 14.4 106.8 14.4 106.8 14.4 Z M 125 12.2 C 124.2 12.3 122.9 12.3 121.3 12.3 C 121.29 12.3 117.3 12.3 117.3 12.3 L 117.3 10.8 C 117.3 10.8 121.29 10.83 121.3 10.8 C 123 10.8 124.2 10.8 125.1 10.7 C 125.1 10.4 125.1 10 125.1 9.6 C 125.08 9.55 125.1 8.7 125.1 8.7 L 118 8.7 L 118 7.2 L 126.9 7.2 C 126.9 7.2 126.91 9.64 126.9 9.6 C 126.9 10.7 126.9 11.6 126.8 12.6 C 126.7 13.5 126.5 14.6 126.2 15.8 C 126.2 15.8 124.4 15.4 124.4 15.4 C 124.7 14.4 124.9 13.3 125 12.2 C 125 12.2 125 12.2 125 12.2 Z M 116 18.4 L 116 16.9 L 128.9 16.9 L 128.9 18.4 L 116 18.4 Z " stroke="none" fill="#fff"/>
  </g>
</svg>