<?xml version="1.0" standalone="no"?>
<!DOCTYPE svg PUBLIC "-//W3C//DTD SVG 1.1//EN" "http://www.w3.org/Graphics/SVG/1.1/DTD/svg11.dtd">
<svg xmlns="http://www.w3.org/2000/svg" version="1.1" width="141px" height="31.5px" viewBox="0 -1 141 31.5" style="top:-1px">
  <desc>지능형 속도 보조</desc>
  <defs/>
  <g id="Polygon628031">
    <path d="M 10.3 19.4 L 10.3 5.8 L 12.1 5.8 L 12.1 19.4 L 10.3 19.4 Z M 5.8 10.4 C 5.8 11 6.2 11.7 6.8 12.5 C 7.4 13.2 8.2 13.9 9.2 14.5 C 9.2 14.5 8.2 15.8 8.2 15.8 C 6.8 15 5.7 14 4.9 12.8 C 4 14.1 2.9 15.2 1.6 16.1 C 1.6 16.1 0.6 14.8 0.6 14.8 C 1.6 14.2 2.5 13.4 3.1 12.6 C 3.7 11.8 4 11.1 4 10.4 C 4.02 10.41 4 8.7 4 8.7 L 1.2 8.7 L 1.2 7.2 L 8.6 7.2 L 8.6 8.7 L 5.8 8.7 C 5.8 8.7 5.85 10.38 5.8 10.4 Z M 25.1 9.7 L 25.1 11.1 L 16.1 11.1 L 16.1 6.3 L 18 6.3 L 18 9.7 L 25.1 9.7 Z M 14 12.5 L 26.9 12.5 L 26.9 13.9 L 14 13.9 L 14 12.5 Z M 20.5 20.1 C 19.6 20.1 18.8 20 18.1 19.8 C 17.5 19.6 17 19.3 16.6 18.9 C 16.3 18.5 16.1 18 16.1 17.5 C 16.1 17.5 16.1 17.4 16.1 17.4 C 16.1 16.9 16.3 16.4 16.6 16 C 17 15.6 17.5 15.3 18.1 15.1 C 18.8 14.9 19.6 14.8 20.5 14.8 C 21.4 14.8 22.2 14.9 22.8 15.1 C 23.5 15.3 24 15.6 24.3 16 C 24.7 16.4 24.8 16.9 24.8 17.4 C 24.8 17.4 24.8 17.5 24.8 17.5 C 24.8 18 24.7 18.5 24.3 18.9 C 24 19.3 23.5 19.6 22.8 19.8 C 22.2 20 21.4 20.1 20.5 20.1 C 20.5 20.1 20.5 20.1 20.5 20.1 Z M 20.5 18.6 C 21.3 18.6 21.9 18.5 22.4 18.3 C 22.8 18.1 23 17.8 23 17.5 C 23 17.5 23 17.4 23 17.4 C 23 17.1 22.8 16.8 22.4 16.6 C 21.9 16.4 21.3 16.3 20.5 16.3 C 19.6 16.3 19 16.4 18.6 16.6 C 18.1 16.8 17.9 17.1 17.9 17.4 C 17.9 17.4 17.9 17.5 17.9 17.5 C 17.9 17.8 18.1 18.1 18.6 18.3 C 19 18.5 19.6 18.6 20.5 18.6 C 20.5 18.6 20.5 18.6 20.5 18.6 Z M 31.9 7.5 C 30.8 7.5 29.9 7.4 29.3 7.2 C 29.3 7.2 29.3 5.8 29.3 5.8 C 29.6 5.9 30 6 30.4 6.1 C 30.8 6.1 31.3 6.1 31.9 6.1 C 31.95 6.15 33.8 6.1 33.8 6.1 L 33.8 7.5 C 33.8 7.5 31.95 7.54 31.9 7.5 Z M 35.3 11.2 L 35.3 9.8 L 37.3 9.8 L 37.3 5.8 L 39.1 5.8 L 39.1 14.6 L 37.3 14.6 L 37.3 13.6 L 35.3 13.6 L 35.3 12.2 L 37.3 12.2 L 37.3 11.2 L 35.3 11.2 Z M 27.9 8.1 L 35.3 8.1 L 35.3 9.5 L 27.9 9.5 L 27.9 8.1 Z M 34.5 12.4 C 34.5 12.8 34.4 13.2 34.2 13.6 C 33.9 13.9 33.6 14.2 33.1 14.4 C 32.7 14.6 32.2 14.7 31.6 14.7 C 31 14.7 30.5 14.6 30.1 14.4 C 29.7 14.2 29.3 13.9 29.1 13.6 C 28.8 13.2 28.7 12.8 28.7 12.4 C 28.7 12.4 28.7 12.3 28.7 12.3 C 28.7 11.8 28.8 11.4 29.1 11.1 C 29.3 10.7 29.7 10.4 30.1 10.2 C 30.5 10.1 31 10 31.6 10 C 32.2 10 32.7 10.1 33.1 10.2 C 33.6 10.4 33.9 10.7 34.2 11.1 C 34.4 11.4 34.5 11.8 34.5 12.3 C 34.5 12.3 34.5 12.4 34.5 12.4 Z M 30.4 12.4 C 30.4 12.7 30.5 12.9 30.7 13.1 C 30.9 13.2 31.2 13.3 31.6 13.3 C 32 13.3 32.3 13.2 32.5 13.1 C 32.7 12.9 32.8 12.7 32.8 12.4 C 32.8 12.4 32.8 12.3 32.8 12.3 C 32.8 12 32.7 11.7 32.5 11.6 C 32.3 11.4 32 11.3 31.6 11.3 C 31.2 11.3 30.9 11.4 30.7 11.6 C 30.5 11.7 30.4 12 30.4 12.3 C 30.4 12.3 30.4 12.4 30.4 12.4 Z M 34.8 14.9 C 36.2 14.9 37.3 15.1 38.1 15.6 C 38.9 16 39.2 16.6 39.2 17.4 C 39.2 17.4 39.2 17.5 39.2 17.5 C 39.2 18.3 38.9 18.9 38.1 19.3 C 37.3 19.8 36.2 20 34.8 20 C 33.5 20 32.4 19.8 31.6 19.3 C 30.8 18.9 30.4 18.3 30.4 17.5 C 30.4 17.5 30.4 17.4 30.4 17.4 C 30.4 16.6 30.8 16 31.6 15.6 C 32.4 15.1 33.5 14.9 34.8 14.9 C 34.8 14.9 34.8 14.9 34.8 14.9 Z M 37.4 17.4 C 37.4 17.1 37.2 16.8 36.8 16.6 C 36.3 16.5 35.7 16.4 34.8 16.4 C 34 16.4 33.4 16.5 32.9 16.6 C 32.5 16.8 32.3 17.1 32.3 17.4 C 32.3 17.4 32.3 17.5 32.3 17.5 C 32.3 17.8 32.5 18.1 32.9 18.3 C 33.4 18.5 34 18.6 34.8 18.6 C 35.7 18.6 36.3 18.5 36.8 18.3 C 37.2 18.1 37.4 17.8 37.4 17.5 C 37.4 17.5 37.4 17.4 37.4 17.4 Z M 51.2 9 C 50.7 9.6 50 10.1 49.2 10.6 C 48.4 11 47.6 11.4 46.6 11.7 C 46.6 11.7 46 10.3 46 10.3 C 46.8 10.1 47.5 9.8 48.1 9.4 C 48.8 9.1 49.3 8.7 49.7 8.3 C 50.1 7.9 50.3 7.5 50.3 7.1 C 50.31 7.14 50.3 6.1 50.3 6.1 L 52.1 6.1 C 52.1 6.1 52.14 7.14 52.1 7.1 C 52.1 7.5 52.3 7.8 52.7 8.2 C 53.1 8.6 53.6 8.9 54.3 9.3 C 54.9 9.6 55.6 9.9 56.4 10.1 C 56.4 10.1 55.8 11.5 55.8 11.5 C 54.9 11.2 54 10.8 53.2 10.4 C 52.4 10 51.7 9.5 51.2 9 C 51.2 9 51.2 9 51.2 9 Z M 52.1 10.9 L 52.1 12.6 L 57.7 12.6 L 57.7 14.1 L 44.8 14.1 L 44.8 12.6 L 50.3 12.6 L 50.3 10.9 L 52.1 10.9 Z M 53.6 16.8 L 46.5 16.8 L 46.5 15.3 L 55.4 15.3 L 55.4 19.9 L 53.6 19.9 L 53.6 16.8 Z M 62.1 11.8 L 69.5 11.8 L 69.5 13.3 L 60.2 13.3 L 60.2 6.9 L 69.2 6.9 L 69.2 8.4 L 62.1 8.4 L 62.1 11.8 Z M 65.7 14 L 65.7 16.9 L 71.2 16.9 L 71.2 18.4 L 58.3 18.4 L 58.3 16.9 L 63.8 16.9 L 63.8 14 L 65.7 14 Z M 84.6 6.6 L 86.4 6.6 L 86.4 13.6 L 77.6 13.6 L 77.6 6.6 L 79.4 6.6 L 79.4 8.8 L 84.6 8.8 L 84.6 6.6 Z M 79.4 10.2 L 79.4 12.1 L 84.6 12.1 L 84.6 10.2 L 79.4 10.2 Z M 82.9 14.2 L 82.9 16.9 L 88.4 16.9 L 88.4 18.4 L 75.5 18.4 L 75.5 16.9 L 81.1 16.9 L 81.1 14.2 L 82.9 14.2 Z M 90.2 12.7 C 91 12.4 91.7 12 92.4 11.6 C 93 11.2 93.6 10.7 93.9 10.2 C 94.3 9.8 94.5 9.3 94.5 8.9 C 94.53 8.94 94.5 8.4 94.5 8.4 L 91.2 8.4 L 91.2 6.9 L 99.8 6.9 L 99.8 8.4 L 96.4 8.4 C 96.4 8.4 96.39 8.94 96.4 8.9 C 96.4 9.3 96.6 9.8 97 10.2 C 97.4 10.6 97.9 11.1 98.5 11.5 C 99.2 11.9 99.9 12.2 100.8 12.5 C 100.8 12.5 100.2 13.9 100.2 13.9 C 99.2 13.6 98.3 13.2 97.5 12.7 C 96.7 12.2 96 11.6 95.5 11 C 95 11.6 94.3 12.2 93.5 12.7 C 92.7 13.3 91.8 13.8 90.8 14.1 C 90.8 14.1 90.2 12.7 90.2 12.7 Z M 96.4 13.6 L 96.4 16.9 L 101.9 16.9 L 101.9 18.4 L 89 18.4 L 89 16.9 L 94.6 16.9 L 94.6 13.6 L 96.4 13.6 Z " stroke="none" fill="#fff"/>
  </g>
</svg>