<?xml version="1.0" standalone="no"?>
<!DOCTYPE svg PUBLIC "-//W3C//DTD SVG 1.1//EN" "http://www.w3.org/Graphics/SVG/1.1/DTD/svg11.dtd">
<svg xmlns="http://www.w3.org/2000/svg" version="1.1" width="147px" height="31.5px" viewBox="0 -1 147 31.5" style="top:-1px">
  <desc>운전자세 메모리 시스템</desc>
  <defs/>
  <g id="Polygon627365">
    <path d="M 7 11.9 C 6.2 11.9 5.4 11.8 4.8 11.6 C 4.1 11.4 3.6 11 3.3 10.6 C 2.9 10.2 2.7 9.7 2.7 9.2 C 2.7 9.2 2.7 9 2.7 9 C 2.7 8.5 2.9 8 3.3 7.6 C 3.6 7.2 4.1 6.9 4.8 6.6 C 5.4 6.4 6.2 6.3 7 6.3 C 7.8 6.3 8.6 6.4 9.2 6.6 C 9.8 6.9 10.3 7.2 10.7 7.6 C 11.1 8 11.2 8.5 11.2 9 C 11.2 9 11.2 9.2 11.2 9.2 C 11.2 9.7 11.1 10.2 10.7 10.6 C 10.3 11 9.8 11.4 9.2 11.6 C 8.6 11.8 7.8 11.9 7 11.9 C 7 11.9 7 11.9 7 11.9 Z M 4.5 9.1 C 4.5 9.6 4.7 9.9 5.1 10.2 C 5.6 10.4 6.2 10.5 7 10.5 C 7.8 10.5 8.4 10.4 8.8 10.2 C 9.2 9.9 9.5 9.6 9.5 9.1 C 9.5 9.1 9.5 9.1 9.5 9.1 C 9.5 8.7 9.2 8.3 8.8 8.1 C 8.4 7.8 7.8 7.7 7 7.7 C 6.2 7.7 5.6 7.8 5.1 8.1 C 4.7 8.3 4.5 8.7 4.5 9.1 C 4.5 9.1 4.5 9.1 4.5 9.1 Z M 0.5 14.3 L 0.5 12.8 L 13.4 12.8 L 13.4 14.3 L 7.9 14.3 L 7.9 17.1 L 6.1 17.1 L 6.1 14.3 L 0.5 14.3 Z M 2.6 15.4 L 4.5 15.4 L 4.5 18.3 L 11.7 18.3 L 11.7 19.8 L 2.6 19.8 L 2.6 15.4 Z M 20.4 11 L 20.4 9.5 L 23.1 9.5 L 23.1 6 L 24.9 6 L 24.9 16.2 L 23.1 16.2 L 23.1 11 L 20.4 11 Z M 20.6 14 C 19.3 13.3 18.2 12.4 17.5 11.3 C 16.6 12.5 15.6 13.5 14.3 14.2 C 14.3 14.2 13.4 12.9 13.4 12.9 C 14.4 12.4 15.1 11.8 15.7 11.1 C 16.3 10.3 16.6 9.6 16.6 8.9 C 16.56 8.94 16.6 8.4 16.6 8.4 L 14.1 8.4 L 14.1 6.9 L 20.9 6.9 L 20.9 8.4 L 18.4 8.4 C 18.4 8.4 18.37 8.91 18.4 8.9 C 18.4 9.6 18.6 10.2 19.2 10.9 C 19.7 11.5 20.5 12.1 21.5 12.7 C 21.5 12.7 20.6 14 20.6 14 Z M 18.1 15.1 L 18.1 18.3 L 25.5 18.3 L 25.5 19.8 L 16.3 19.8 L 16.3 15.1 L 18.1 15.1 Z M 37.3 10.7 L 39.5 10.7 L 39.5 12.2 L 37.3 12.2 L 37.3 19.5 L 35.5 19.5 L 35.5 6 L 37.3 6 L 37.3 10.7 Z M 31.3 10.5 C 31.3 11.2 31.7 11.9 32.3 12.6 C 32.9 13.3 33.7 14 34.7 14.6 C 34.7 14.6 33.7 15.9 33.7 15.9 C 32.3 15.1 31.2 14.1 30.4 12.9 C 29.5 14.2 28.4 15.3 27.1 16.2 C 27.1 16.2 26.1 14.9 26.1 14.9 C 27.1 14.3 28 13.6 28.6 12.8 C 29.2 11.9 29.5 11.2 29.5 10.5 C 29.52 10.53 29.5 8.8 29.5 8.8 L 26.7 8.8 L 26.7 7.3 L 34.1 7.3 L 34.1 8.8 L 31.3 8.8 C 31.3 8.8 31.35 10.5 31.3 10.5 Z M 49.5 19.5 L 49.5 6 L 51.2 6 L 51.2 19.5 L 49.5 19.5 Z M 44.5 10.2 L 46.7 10.2 L 46.7 6.1 L 48.4 6.1 L 48.4 19 L 46.7 19 L 46.7 11.7 L 44.5 11.7 L 44.5 10.2 Z M 43.4 10.2 C 43.4 10.9 43.6 11.7 44.1 12.5 C 44.6 13.3 45.3 14 46.1 14.6 C 46.1 14.6 45.1 15.9 45.1 15.9 C 44 15 43.1 14.1 42.5 13 C 41.9 14.2 41 15.2 40 16.1 C 40 16.1 38.8 14.9 38.8 14.9 C 39.6 14.3 40.3 13.5 40.8 12.6 C 41.4 11.8 41.6 11 41.6 10.2 C 41.62 10.24 41.6 7.1 41.6 7.1 L 43.4 7.1 C 43.4 7.1 43.39 10.21 43.4 10.2 Z M 65.4 19.5 L 65.4 6 L 67.1 6 L 67.1 19.5 L 65.4 19.5 Z M 61 10.6 L 62.6 10.6 L 62.6 6.1 L 64.3 6.1 L 64.3 19 L 62.6 19 L 62.6 12.1 L 61 12.1 L 61 15.4 L 55.6 15.4 L 55.6 7.4 L 61 7.4 L 61 10.6 Z M 57.3 14 L 59.3 14 L 59.3 8.8 L 57.3 8.8 L 57.3 14 Z M 69.7 7 L 78.6 7 L 78.6 13.5 L 69.7 13.5 L 69.7 7 Z M 71.5 12 L 76.8 12 L 76.8 8.5 L 71.5 8.5 L 71.5 12 Z M 75.1 14.1 L 75.1 17 L 80.6 17 L 80.6 18.5 L 67.7 18.5 L 67.7 17 L 73.3 17 L 73.3 14.1 L 75.1 14.1 Z M 92.1 19.5 L 90.3 19.5 L 90.3 6 L 92.1 6 L 92.1 19.5 Z M 81.5 10.6 L 85.7 10.6 L 85.7 8.7 L 81.5 8.7 L 81.5 7.2 L 87.6 7.2 L 87.6 12.1 L 83.3 12.1 L 83.3 14.2 C 83.3 14.2 83.41 14.25 83.4 14.2 C 85.1 14.2 86.9 14 88.8 13.6 C 88.8 13.6 89.1 15.1 89.1 15.1 C 87.9 15.3 86.7 15.5 85.7 15.6 C 84.6 15.7 83.4 15.7 82.1 15.7 C 82.14 15.73 81.5 15.7 81.5 15.7 L 81.5 10.6 Z M 106.2 19.5 L 106.2 6 L 108 6 L 108 19.5 L 106.2 19.5 Z M 101.8 10.3 C 101.8 10.9 102.1 11.7 102.7 12.4 C 103.4 13.2 104.2 13.9 105.1 14.5 C 105.1 14.5 104.2 15.9 104.2 15.9 C 102.8 15 101.7 13.9 100.9 12.8 C 100 14.1 98.9 15.2 97.5 16.1 C 97.5 16.1 96.6 14.8 96.6 14.8 C 97.2 14.4 97.8 14 98.3 13.4 C 98.8 12.9 99.2 12.4 99.5 11.8 C 99.8 11.3 100 10.8 100 10.3 C 99.97 10.32 100 7.1 100 7.1 L 101.8 7.1 C 101.8 7.1 101.82 10.29 101.8 10.3 Z M 110.3 13.1 C 111.1 12.9 111.8 12.5 112.5 12.1 C 113.2 11.6 113.7 11.1 114.2 10.6 C 114.6 10.1 114.8 9.6 114.8 9.2 C 114.81 9.16 114.8 7 114.8 7 L 116.6 7 C 116.6 7 116.64 9.16 116.6 9.2 C 116.6 9.6 116.9 10 117.3 10.5 C 117.7 11 118.3 11.5 118.9 11.9 C 119.6 12.4 120.4 12.7 121.1 12.9 C 121.1 12.9 120.5 14.3 120.5 14.3 C 119.6 14.1 118.7 13.7 117.9 13.1 C 117 12.6 116.3 12 115.7 11.4 C 115.2 12 114.5 12.6 113.6 13.2 C 112.8 13.8 111.9 14.2 111 14.5 C 111 14.5 110.3 13.1 110.3 13.1 Z M 109.3 17 L 122.2 17 L 122.2 18.5 L 109.3 18.5 L 109.3 17 Z M 132.6 14.3 L 132.6 6 L 134.3 6 L 134.3 14.3 L 132.6 14.3 Z M 131.4 14.2 L 129.7 14.2 L 129.7 10.9 L 128.2 10.9 L 128.2 9.4 L 129.7 9.4 L 129.7 6.1 L 131.4 6.1 L 131.4 14.2 Z M 128.9 13.2 C 127.9 13.4 126.9 13.5 126 13.6 C 125.1 13.7 124 13.7 122.7 13.7 C 122.68 13.69 122.7 6.9 122.7 6.9 L 127.7 6.9 L 127.7 8.3 L 124.5 8.3 L 124.5 9.5 L 127.4 9.5 L 127.4 10.9 L 124.5 10.9 L 124.5 12.2 C 124.5 12.2 124.66 12.22 124.7 12.2 C 125.2 12.2 125.8 12.2 126.5 12.1 C 127.2 12 127.9 11.9 128.6 11.8 C 128.6 11.8 128.9 13.2 128.9 13.2 Z M 134.3 19.9 L 125.1 19.9 L 125.1 15 L 134.3 15 L 134.3 19.9 Z M 132.5 16.4 L 126.9 16.4 L 126.9 18.4 L 132.5 18.4 L 132.5 16.4 Z " stroke="none" fill="#fff"/>
  </g>
</svg>