<?xml version="1.0" standalone="no"?>
<!DOCTYPE svg PUBLIC "-//W3C//DTD SVG 1.1//EN" "http://www.w3.org/Graphics/SVG/1.1/DTD/svg11.dtd">
<svg xmlns="http://www.w3.org/2000/svg" version="1.1" width="291px" height="31.5px" viewBox="0 -1 291 31.5" style="top:-1px">
  <desc>스마트키 배터리 방전 시 대처요령</desc>
  <defs/>
  <g id="Polygon628337">
    <path d="M 1.6 13.1 C 2.3 12.9 3 12.5 3.7 12.1 C 4.4 11.6 5 11.1 5.4 10.6 C 5.8 10.1 6.1 9.6 6.1 9.2 C 6.06 9.16 6.1 7 6.1 7 L 7.9 7 C 7.9 7 7.89 9.16 7.9 9.2 C 7.9 9.6 8.1 10 8.5 10.5 C 9 11 9.5 11.5 10.2 11.9 C 10.9 12.4 11.6 12.7 12.4 12.9 C 12.4 12.9 11.8 14.3 11.8 14.3 C 10.8 14.1 9.9 13.7 9.1 13.1 C 8.3 12.6 7.6 12 7 11.4 C 6.4 12 5.7 12.6 4.9 13.2 C 4 13.8 3.1 14.2 2.2 14.5 C 2.2 14.5 1.6 13.1 1.6 13.1 Z M 0.5 17 L 13.4 17 L 13.4 18.5 L 0.5 18.5 L 0.5 17 Z M 25.1 10.7 L 27.4 10.7 L 27.4 12.2 L 25.1 12.2 L 25.1 19.5 L 23.3 19.5 L 23.3 6 L 25.1 6 L 25.1 10.7 Z M 21.2 15.5 L 14.8 15.5 L 14.8 7.3 L 21.2 7.3 L 21.2 15.5 Z M 19.4 8.7 L 16.6 8.7 L 16.6 14 L 19.4 14 L 19.4 8.7 Z M 31.4 13.1 L 38.7 13.1 L 38.7 14.6 L 29.6 14.6 L 29.6 7.1 L 38.4 7.1 L 38.4 8.5 L 31.4 8.5 L 31.4 10.1 L 37.9 10.1 L 37.9 11.6 L 31.4 11.6 L 31.4 13.1 Z M 27.5 18.5 L 27.5 17 L 40.4 17 L 40.4 18.5 L 27.5 18.5 Z M 50.8 19.5 L 50.8 6 L 52.6 6 L 52.6 19.5 L 50.8 19.5 Z M 42.1 8.7 L 42.1 7.3 L 48.2 7.3 C 48.2 7.3 48.24 9.4 48.2 9.4 C 48.2 11 47.8 12.4 46.8 13.6 C 45.9 14.8 44.3 15.9 42.2 16.9 C 42.2 16.9 41.4 15.4 41.4 15.4 C 42.7 14.9 43.6 14.3 44.4 13.7 C 45.1 13.1 45.6 12.5 46 11.7 C 45.3 11.8 44.6 11.9 43.7 11.9 C 43.74 11.89 41.4 11.9 41.4 11.9 L 41.4 10.4 C 41.4 10.4 43.74 10.42 43.7 10.4 C 44.9 10.4 45.8 10.4 46.4 10.3 C 46.4 10 46.4 9.8 46.4 9.5 C 46.42 9.49 46.4 8.7 46.4 8.7 L 42.1 8.7 Z M 68.8 10.6 L 68.8 6 L 70.5 6 L 70.5 19.5 L 68.8 19.5 L 68.8 12.1 L 67.5 12.1 L 67.5 19 L 65.8 19 L 65.8 6.1 L 67.5 6.1 L 67.5 10.6 L 68.8 10.6 Z M 60.9 10 L 62.7 10 L 62.7 7.1 L 64.5 7.1 L 64.5 15.4 L 59.1 15.4 L 59.1 7.1 L 60.9 7.1 L 60.9 10 Z M 60.9 11.4 L 60.9 14 L 62.7 14 L 62.7 11.4 L 60.9 11.4 Z M 81.5 10.3 L 81.5 6 L 83.3 6 L 83.3 19.5 L 81.5 19.5 L 81.5 11.8 L 79.2 11.8 L 79.2 10.3 L 81.5 10.3 Z M 74.5 14 C 76.2 14 77.9 13.8 79.7 13.4 C 79.7 13.4 80 14.9 80 14.9 C 78.8 15.1 77.7 15.3 76.6 15.4 C 75.6 15.5 74.5 15.5 73.2 15.5 C 73.21 15.52 72.6 15.5 72.6 15.5 L 72.6 7.2 L 78.7 7.2 L 78.7 8.7 L 74.4 8.7 L 74.4 10.5 L 78.4 10.5 L 78.4 11.9 L 74.4 11.9 L 74.4 14 C 74.4 14 74.5 14.02 74.5 14 Z M 96.8 19.5 L 95 19.5 L 95 6 L 96.8 6 L 96.8 19.5 Z M 86.2 10.6 L 90.4 10.6 L 90.4 8.7 L 86.2 8.7 L 86.2 7.2 L 92.3 7.2 L 92.3 12.1 L 88.1 12.1 L 88.1 14.2 C 88.1 14.2 88.14 14.25 88.1 14.2 C 89.8 14.2 91.7 14 93.6 13.6 C 93.6 13.6 93.9 15.1 93.9 15.1 C 92.6 15.3 91.5 15.5 90.4 15.6 C 89.3 15.7 88.2 15.7 86.9 15.7 C 86.86 15.73 86.2 15.7 86.2 15.7 L 86.2 10.6 Z M 113.6 6 L 113.6 9.4 L 115.9 9.4 L 115.9 10.9 L 113.6 10.9 L 113.6 14.3 L 111.8 14.3 L 111.8 6 L 113.6 6 Z M 107.6 6.7 L 109.4 6.7 L 109.4 13.4 L 103.3 13.4 L 103.3 6.7 L 105.1 6.7 L 105.1 8.7 L 107.6 8.7 L 107.6 6.7 Z M 105.1 10.1 L 105.1 12 L 107.6 12 L 107.6 10.1 L 105.1 10.1 Z M 109.4 14.6 C 110.3 14.6 111.1 14.7 111.8 14.9 C 112.4 15.1 112.9 15.5 113.3 15.9 C 113.6 16.3 113.8 16.7 113.8 17.3 C 113.8 17.3 113.8 17.4 113.8 17.4 C 113.8 17.9 113.6 18.4 113.3 18.8 C 112.9 19.2 112.4 19.5 111.8 19.8 C 111.1 20 110.3 20.1 109.4 20.1 C 108.5 20.1 107.7 20 107 19.8 C 106.4 19.5 105.9 19.2 105.5 18.8 C 105.2 18.4 105 17.9 105 17.4 C 105 17.4 105 17.3 105 17.3 C 105 16.7 105.2 16.3 105.5 15.9 C 105.9 15.5 106.4 15.1 107 14.9 C 107.7 14.7 108.5 14.6 109.4 14.6 C 109.4 14.6 109.4 14.6 109.4 14.6 Z M 112 17.3 C 112 16.9 111.8 16.6 111.3 16.4 C 110.9 16.2 110.2 16 109.4 16 C 108.6 16 107.9 16.2 107.5 16.4 C 107 16.6 106.8 16.9 106.8 17.3 C 106.8 17.3 106.8 17.4 106.8 17.4 C 106.8 17.8 107 18.1 107.5 18.3 C 107.9 18.5 108.6 18.6 109.4 18.6 C 110.2 18.6 110.9 18.5 111.3 18.3 C 111.8 18.1 112 17.8 112 17.4 C 112 17.4 112 17.3 112 17.3 Z M 123 11 L 123 9.5 L 125.8 9.5 L 125.8 6 L 127.6 6 L 127.6 16.2 L 125.8 16.2 L 125.8 11 L 123 11 Z M 123.3 14 C 121.9 13.3 120.9 12.4 120.1 11.3 C 119.3 12.5 118.3 13.5 117 14.2 C 117 14.2 116.1 12.9 116.1 12.9 C 117 12.4 117.8 11.8 118.4 11.1 C 118.9 10.3 119.2 9.6 119.2 8.9 C 119.23 8.94 119.2 8.4 119.2 8.4 L 116.8 8.4 L 116.8 6.9 L 123.5 6.9 L 123.5 8.4 L 121 8.4 C 121 8.4 121.05 8.91 121 8.9 C 121 9.6 121.3 10.2 121.9 10.9 C 122.4 11.5 123.2 12.1 124.1 12.7 C 124.1 12.7 123.3 14 123.3 14 Z M 120.8 15.1 L 120.8 18.3 L 128.1 18.3 L 128.1 19.8 L 119 19.8 L 119 15.1 L 120.8 15.1 Z M 143 19.5 L 143 6 L 144.8 6 L 144.8 19.5 L 143 19.5 Z M 138.6 10.3 C 138.6 10.9 139 11.7 139.6 12.4 C 140.2 13.2 141 13.9 142 14.5 C 142 14.5 141 15.9 141 15.9 C 139.6 15 138.5 13.9 137.7 12.8 C 136.9 14.1 135.7 15.2 134.4 16.1 C 134.4 16.1 133.4 14.8 133.4 14.8 C 134 14.4 134.6 14 135.1 13.4 C 135.7 12.9 136.1 12.4 136.4 11.8 C 136.7 11.3 136.8 10.8 136.8 10.3 C 136.8 10.32 136.8 7.1 136.8 7.1 L 138.6 7.1 C 138.6 7.1 138.64 10.29 138.6 10.3 Z M 161 10.5 L 161 6 L 162.8 6 L 162.8 19.5 L 161 19.5 L 161 12 L 159.8 12 L 159.8 19 L 158.1 19 L 158.1 6.1 L 159.8 6.1 L 159.8 10.5 L 161 10.5 Z M 153.3 14 C 154.3 14 155.7 13.8 157.2 13.5 C 157.2 13.5 157.5 14.9 157.5 14.9 C 155.7 15.3 153.9 15.4 151.8 15.4 C 151.83 15.42 151.3 15.4 151.3 15.4 L 151.3 7.4 L 156.6 7.4 L 156.6 8.8 L 153.1 8.8 L 153.1 14 C 153.1 14 153.27 13.98 153.3 14 Z M 173.8 11.3 L 173.8 6 L 175.6 6 L 175.6 19.5 L 173.8 19.5 L 173.8 12.8 L 171.3 12.8 L 171.3 11.3 L 173.8 11.3 Z M 168.9 7.9 C 168.2 7.9 167.6 7.9 167.2 7.8 C 166.7 7.8 166.2 7.7 165.9 7.5 C 165.9 7.5 165.9 6.1 165.9 6.1 C 166.2 6.2 166.6 6.3 167.1 6.4 C 167.5 6.4 168.1 6.4 168.9 6.4 C 168.87 6.43 170.7 6.4 170.7 6.4 L 170.7 7.9 C 170.7 7.9 168.87 7.9 168.9 7.9 Z M 169.2 10.6 C 169.2 11.3 169.5 12 170.1 12.7 C 170.7 13.4 171.6 14.1 172.6 14.8 C 172.6 14.8 171.7 16.1 171.7 16.1 C 170.3 15.2 169.2 14.2 168.3 13 C 167.5 14.3 166.3 15.4 164.9 16.3 C 164.9 16.3 164 15 164 15 C 165 14.4 165.8 13.7 166.4 12.9 C 167.1 12 167.4 11.3 167.4 10.6 C 167.41 10.62 167.4 10.3 167.4 10.3 L 164.6 10.3 L 164.6 8.8 L 172.1 8.8 L 172.1 10.3 L 169.2 10.3 C 169.2 10.3 169.24 10.59 169.2 10.6 Z M 184 13.7 C 183.1 13.7 182.3 13.5 181.6 13.2 C 180.9 13 180.3 12.6 180 12 C 179.6 11.5 179.4 10.9 179.4 10.3 C 179.4 10.3 179.4 10.1 179.4 10.1 C 179.4 9.5 179.6 8.9 180 8.4 C 180.3 7.8 180.9 7.4 181.6 7.2 C 182.3 6.9 183.1 6.7 184 6.7 C 184.9 6.7 185.7 6.9 186.4 7.2 C 187.1 7.4 187.6 7.8 188 8.4 C 188.4 8.9 188.6 9.5 188.6 10.1 C 188.6 10.1 188.6 10.3 188.6 10.3 C 188.6 10.9 188.4 11.5 188 12 C 187.6 12.6 187.1 13 186.4 13.2 C 185.7 13.5 184.9 13.7 184 13.7 C 184 13.7 184 13.7 184 13.7 Z M 181.2 10.3 C 181.2 10.9 181.4 11.3 181.9 11.7 C 182.4 12 183.1 12.2 184 12.2 C 184.9 12.2 185.5 12 186 11.7 C 186.5 11.3 186.7 10.9 186.7 10.3 C 186.7 10.3 186.7 10.2 186.7 10.2 C 186.7 9.6 186.5 9.1 186 8.7 C 185.5 8.4 184.9 8.2 184 8.2 C 183.1 8.2 182.4 8.4 181.9 8.7 C 181.4 9.1 181.2 9.6 181.2 10.2 C 181.2 10.2 181.2 10.3 181.2 10.3 Z M 187.2 14 L 187.2 17 L 190.4 17 L 190.4 18.5 L 177.5 18.5 L 177.5 17 L 180.7 17 L 180.7 14 L 182.5 14 L 182.5 17 L 185.4 17 L 185.4 14 L 187.2 14 Z M 198.8 13.4 C 197.8 13.6 196.8 13.7 195.8 13.8 C 194.8 13.9 193.6 14 192.4 14 C 192.42 13.96 191.8 14 191.8 14 L 191.8 9.6 L 195.8 9.6 L 195.8 8.2 L 191.8 8.2 L 191.8 6.8 L 197.6 6.8 L 197.6 11 L 193.6 11 L 193.6 12.5 C 193.6 12.5 193.75 12.51 193.8 12.5 C 194.4 12.5 195.1 12.5 195.9 12.4 C 196.8 12.3 197.6 12.2 198.4 12 C 198.36 12.04 198.4 10.7 198.4 10.7 L 200.8 10.7 L 200.8 9.6 L 198.4 9.6 L 198.4 8.1 L 200.8 8.1 L 200.8 6 L 202.6 6 L 202.6 14.5 L 200.8 14.5 L 200.8 12.2 L 198.6 12.2 C 198.6 12.2 198.84 13.39 198.8 13.4 Z M 198.3 14.7 C 199.3 14.7 200.1 14.8 200.7 15 C 201.4 15.2 201.9 15.5 202.2 15.9 C 202.6 16.3 202.7 16.8 202.7 17.3 C 202.7 17.3 202.7 17.4 202.7 17.4 C 202.7 18 202.6 18.4 202.2 18.8 C 201.9 19.2 201.4 19.5 200.7 19.8 C 200.1 20 199.3 20.1 198.3 20.1 C 197.4 20.1 196.6 20 196 19.8 C 195.3 19.5 194.8 19.2 194.5 18.8 C 194.1 18.4 193.9 18 193.9 17.4 C 193.9 17.4 193.9 17.3 193.9 17.3 C 193.9 16.8 194.1 16.3 194.5 15.9 C 194.8 15.5 195.3 15.2 196 15 C 196.6 14.8 197.4 14.7 198.3 14.7 C 198.3 14.7 198.3 14.7 198.3 14.7 Z M 200.9 17.3 C 200.9 17 200.7 16.7 200.3 16.5 C 199.8 16.2 199.2 16.1 198.3 16.1 C 197.5 16.1 196.9 16.2 196.4 16.5 C 196 16.7 195.8 17 195.8 17.3 C 195.8 17.3 195.8 17.4 195.8 17.4 C 195.8 17.8 196 18.1 196.4 18.3 C 196.9 18.5 197.5 18.6 198.3 18.6 C 199.2 18.6 199.8 18.5 200.3 18.3 C 200.7 18.1 200.9 17.8 200.9 17.4 C 200.9 17.4 200.9 17.3 200.9 17.3 Z " stroke="none" fill="#fff"/>
  </g>
</svg>