<?xml version="1.0" standalone="no"?>
<!DOCTYPE svg PUBLIC "-//W3C//DTD SVG 1.1//EN" "http://www.w3.org/Graphics/SVG/1.1/DTD/svg11.dtd">
<svg xmlns="http://www.w3.org/2000/svg" version="1.1" width="141px" height="31.5px" viewBox="0 -1 141 31.5" style="top:-1px">
  <desc>중립 주차</desc>
  <defs/>
  <g id="Polygon628286">
    <path d="M 1.9 10.3 C 2.6 10.2 3.2 10 3.8 9.7 C 4.4 9.5 4.9 9.2 5.3 8.9 C 5.7 8.6 5.9 8.3 6 8 C 6 7.96 2.7 8 2.7 8 L 2.7 6.5 L 11.3 6.5 L 11.3 8 C 11.3 8 7.95 7.96 7.9 8 C 8.1 8.4 8.5 8.8 9.3 9.2 C 10 9.6 11 10 12.1 10.2 C 12.1 10.2 11.6 11.6 11.6 11.6 C 10.6 11.4 9.7 11.1 9 10.8 C 8.2 10.4 7.5 10 7 9.5 C 6.4 10 5.7 10.5 5 10.9 C 4.2 11.2 3.3 11.5 2.4 11.7 C 2.4 11.7 1.9 10.3 1.9 10.3 Z M 13.4 13.6 L 7.9 13.6 C 7.9 13.6 7.89 14.85 7.9 14.8 C 9 14.9 9.8 15.2 10.4 15.7 C 11 16.1 11.3 16.7 11.3 17.4 C 11.3 17.4 11.3 17.5 11.3 17.5 C 11.3 18 11.2 18.5 10.8 18.9 C 10.5 19.3 10 19.6 9.3 19.8 C 8.7 20 7.9 20.1 7 20.1 C 6.1 20.1 5.3 20 4.6 19.8 C 4 19.6 3.5 19.3 3.1 18.9 C 2.8 18.5 2.6 18 2.6 17.5 C 2.6 17.5 2.6 17.4 2.6 17.4 C 2.6 16.7 2.9 16.1 3.5 15.7 C 4.1 15.2 5 14.9 6.1 14.8 C 6.06 14.85 6.1 13.6 6.1 13.6 L 0.5 13.6 L 0.5 12.2 L 13.4 12.2 L 13.4 13.6 Z M 9.5 17.4 C 9.5 17.1 9.3 16.8 8.9 16.6 C 8.4 16.4 7.8 16.3 7 16.3 C 6.1 16.3 5.5 16.4 5.1 16.6 C 4.6 16.8 4.4 17.1 4.4 17.4 C 4.4 17.4 4.4 17.5 4.4 17.5 C 4.4 17.8 4.6 18.1 5.1 18.3 C 5.5 18.5 6.1 18.6 7 18.6 C 7.8 18.6 8.4 18.5 8.9 18.3 C 9.3 18.1 9.5 17.8 9.5 17.5 C 9.5 17.5 9.5 17.4 9.5 17.4 Z M 23.8 14 L 23.8 5.8 L 25.6 5.8 L 25.6 14 L 23.8 14 Z M 22.1 12.8 C 21.1 13 20 13.2 19 13.3 C 17.9 13.4 16.8 13.4 15.6 13.4 C 15.57 13.42 15 13.4 15 13.4 L 15 9.3 L 19 9.3 L 19 8.1 L 15 8.1 L 15 6.6 L 20.9 6.6 L 20.9 10.7 L 16.8 10.7 L 16.8 12 C 16.8 12 16.9 11.98 16.9 12 C 17.6 12 18.4 11.9 19.3 11.8 C 20.2 11.8 21 11.6 21.9 11.5 C 21.9 11.5 22.1 12.8 22.1 12.8 Z M 18.7 15.9 L 23.8 15.9 L 23.8 14.7 L 25.6 14.7 L 25.6 19.8 L 16.9 19.8 L 16.9 14.7 L 18.7 14.7 L 18.7 15.9 Z M 18.7 17.3 L 18.7 18.3 L 23.8 18.3 L 23.8 17.3 L 18.7 17.3 Z M 32.6 11.2 C 33.3 11 34 10.7 34.7 10.4 C 35.3 10 35.8 9.7 36.2 9.3 C 36.6 8.9 36.8 8.5 36.8 8.2 C 36.79 8.19 33.4 8.2 33.4 8.2 L 33.4 6.7 L 42 6.7 L 42 8.2 C 42 8.2 38.65 8.19 38.7 8.2 C 38.7 8.5 38.8 8.9 39.2 9.2 C 39.6 9.6 40.1 9.9 40.7 10.3 C 41.4 10.6 42.1 10.8 42.9 11 C 42.9 11 42.4 12.4 42.4 12.4 C 41.4 12.2 40.5 11.9 39.7 11.5 C 38.9 11.1 38.3 10.6 37.7 10.1 C 37.2 10.6 36.5 11.1 35.7 11.6 C 34.9 12 34.1 12.3 33.1 12.6 C 33.1 12.6 32.6 11.2 32.6 11.2 Z M 31.3 13.4 L 44.2 13.4 L 44.2 14.9 L 38.6 14.9 L 38.6 19.6 L 36.8 19.6 L 36.8 14.9 L 31.3 14.9 L 31.3 13.4 Z M 55.9 11.1 L 58.1 11.1 L 58.1 12.5 L 55.9 12.5 L 55.9 19.4 L 54.1 19.4 L 54.1 5.8 L 55.9 5.8 L 55.9 11.1 Z M 49.6 7.8 C 49 7.8 48.4 7.8 47.9 7.7 C 47.4 7.7 47 7.6 46.6 7.4 C 46.6 7.4 46.6 6 46.6 6 C 47 6.1 47.4 6.2 47.8 6.3 C 48.2 6.3 48.8 6.3 49.6 6.3 C 49.62 6.33 51.5 6.3 51.5 6.3 L 51.5 7.8 C 51.5 7.8 49.62 7.8 49.6 7.8 Z M 50 10.5 C 50 11.2 50.3 11.9 50.9 12.6 C 51.5 13.3 52.3 14 53.4 14.7 C 53.4 14.7 52.5 16 52.5 16 C 51 15.1 49.9 14.1 49.1 12.9 C 48.2 14.2 47.1 15.3 45.7 16.2 C 45.7 16.2 44.7 14.9 44.7 14.9 C 45.7 14.3 46.5 13.6 47.2 12.8 C 47.8 11.9 48.2 11.2 48.2 10.5 C 48.16 10.51 48.2 10.2 48.2 10.2 L 45.3 10.2 L 45.3 8.7 L 52.8 8.7 L 52.8 10.2 L 50 10.2 C 50 10.2 49.99 10.48 50 10.5 Z " stroke="none" fill="#fff"/>
  </g>
</svg>